
<svg width="16" height="16" viewBox="0 0 16 16" fill="none" xmlns="http://www.w3.org/2000/svg">
  <defs>
    <symbol id='acronym-ssr' viewBox="0 0 20 16">
      <path fill-rule="evenodd" clip-rule="evenodd" d="M2.5 2.25H17.5C18.1904 2.25 18.75 2.80964 18.75 3.5V12.5C18.75 13.1904 18.1904 13.75 17.5 13.75H2.5C1.80964 13.75 1.25 13.1904 1.25 12.5V3.5C1.25 2.80964 1.80964 2.25 2.5 2.25ZM0 3.5C0 2.11929 1.11929 1 2.5 1H17.5C18.8807 1 20 2.11929 20 3.5V12.5C20 13.8807 18.8807 15 17.5 15H2.5C1.11929 15 0 13.8807 0 12.5V3.5ZM14.5 11V9.16841C15.0912 9.44927 15.5 10.0519 15.5 10.75V11H17V10.75C17 9.96416 16.7211 9.24347 16.2569 8.68151C16.7064 8.36477 17 7.84167 17 7.25V6.75C17 5.7835 16.2165 5 15.25 5H14.5H13.75H13V5.75V8.25V9V11H14.5ZM15.25 7.5H14.5V6.5H15.25C15.3881 6.5 15.5 6.61193 15.5 6.75V7.25C15.5 7.38807 15.3881 7.5 15.25 7.5ZM9.875 6.5C9.66789 6.5 9.5 6.66789 9.5 6.875C9.5 7.08211 9.66789 7.25 9.875 7.25C10.9105 7.25 11.75 8.08947 11.75 9.125C11.75 10.1605 10.9105 11 9.875 11H8.25V9.5H9.875C10.0821 9.5 10.25 9.33211 10.25 9.125C10.25 8.91789 10.0821 8.75 9.875 8.75C8.83947 8.75 8 7.91053 8 6.875C8 5.83947 8.83947 5 9.875 5H11.25V6.5H9.875ZM4.75 6.875C4.75 6.66789 4.91789 6.5 5.125 6.5H6.5V5H5.125C4.08947 5 3.25 5.83947 3.25 6.875C3.25 7.91053 4.08947 8.75 5.125 8.75C5.33211 8.75 5.5 8.91789 5.5 9.125C5.5 9.33211 5.33211 9.5 5.125 9.5H3.5V11H5.125C6.16053 11 7 10.1605 7 9.125C7 8.08947 6.16053 7.25 5.125 7.25C4.91789 7.25 4.75 7.08211 4.75 6.875Z" fill="currentColor"/>
    </symbol>
  </defs>
</svg>