
<svg width="16" height="16" viewBox="0 0 16 16" fill="none" xmlns="http://www.w3.org/2000/svg">
  <defs>
    <symbol id='acronym-ssg' viewBox="0 0 21 16">
      <path fill-rule="evenodd" clip-rule="evenodd" d="M2.5 2.25H18.5C19.1904 2.25 19.75 2.80964 19.75 3.5V12.5C19.75 13.1904 19.1904 13.75 18.5 13.75H2.5C1.80964 13.75 1.25 13.1904 1.25 12.5V3.5C1.25 2.80964 1.80964 2.25 2.5 2.25ZM0 3.5C0 2.11929 1.11929 1 2.5 1H18.5C19.8807 1 21 2.11929 21 3.5V12.5C21 13.8807 19.8807 15 18.5 15H2.5C1.11929 15 0 13.8807 0 12.5V3.5ZM15.25 5C14.0074 5 13 6.00736 13 7.25V8.75C13 9.99264 14.0074 11 15.25 11H16.5C17.1904 11 17.75 10.4404 17.75 9.75V9.25C17.75 8.55964 17.1904 8 16.5 8H15.75V9.5H15.25C14.8358 9.5 14.5 9.16421 14.5 8.75V7.25C14.5 6.83579 14.8358 6.5 15.25 6.5H15.75C16.0261 6.5 16.25 6.72386 16.25 7H17.75C17.75 5.89543 16.8546 5 15.75 5H15.25ZM9.875 6.5C9.66789 6.5 9.5 6.66789 9.5 6.875C9.5 7.08211 9.66789 7.25 9.875 7.25C10.9105 7.25 11.75 8.08947 11.75 9.125C11.75 10.1605 10.9105 11 9.875 11H8.25V9.5H9.875C10.0821 9.5 10.25 9.33211 10.25 9.125C10.25 8.91789 10.0821 8.75 9.875 8.75C8.83947 8.75 8 7.91053 8 6.875C8 5.83947 8.83947 5 9.875 5H11.25V6.5H9.875ZM4.75 6.875C4.75 6.66789 4.91789 6.5 5.125 6.5H6.5V5H5.125C4.08947 5 3.25 5.83947 3.25 6.875C3.25 7.91053 4.08947 8.75 5.125 8.75C5.33211 8.75 5.5 8.91789 5.5 9.125C5.5 9.33211 5.33211 9.5 5.125 9.5H3.5V11H5.125C6.16053 11 7 10.1605 7 9.125C7 8.08947 6.16053 7.25 5.125 7.25C4.91789 7.25 4.75 7.08211 4.75 6.875Z" fill="currentColor"/>
    </symbol>
  </defs>
</svg>