
<svg width="16" height="16" viewBox="0 0 16 16" fill="none" xmlns="http://www.w3.org/2000/svg">
  <defs>
    <symbol id='acronym-gif' viewBox="0 0 20 16">
      <path fill-rule="evenodd" clip-rule="evenodd" d="M2.5 15H17.5C18.8807 15 20 13.8807 20 12.5V3.5C20 2.11929 18.8807 1 17.5 1H2.5C1.11929 1 0 2.11929 0 3.5V12.5L0.0126953 12.7559C0.140824 14.0164 1.20566 15 2.5 15ZM17.5 13.75H2.5C1.80964 13.75 1.25 13.1904 1.25 12.5V3.5L1.25684 3.37207C1.32092 2.74183 1.85285 2.25 2.5 2.25H17.5C18.1904 2.25 18.75 2.80964 18.75 3.5V12.5C18.75 13.1904 18.1904 13.75 17.5 13.75ZM7.25 11C7.94036 11 8.5 10.4404 8.5 9.75V9.25C8.5 8.55964 7.94036 8 7.25 8H6.5V9.5H6C5.58579 9.5 5.25 9.16421 5.25 8.75V7.25C5.25 6.83579 5.58579 6.5 6 6.5H6.5C6.77614 6.5 7 6.72386 7 7H8.5C8.5 5.89543 7.60457 5 6.5 5H6C4.75736 5 3.75 6.00736 3.75 7.25V8.75C3.75 9.99264 4.75736 11 6 11H7.25ZM11.25 5V11H9.75V5H11.25ZM16.5 6.5V5H12.5V11H14V9H16.5V7.5H14V6.5H16.5Z" fill="currentColor"/>
    </symbol>
  </defs>
</svg>