
<svg width="16" height="16" viewBox="0 0 16 16" fill="none" xmlns="http://www.w3.org/2000/svg">
  <defs>
    <symbol id='acronym-json' viewBox="0 0 26 14">
      <path fill-rule="evenodd" clip-rule="evenodd" d="M23.5 1.25H2.5C1.80964 1.25 1.25 1.80964 1.25 2.5V11.5C1.25 12.1904 1.80964 12.75 2.5 12.75H23.5C24.1904 12.75 24.75 12.1904 24.75 11.5V2.5C24.75 1.80964 24.1904 1.25 23.5 1.25ZM2.5 0C1.11929 0 0 1.11929 0 2.5V11.5C0 12.8807 1.11929 14 2.5 14H23.5C24.8807 14 26 12.8807 26 11.5V2.5C26 1.11929 24.8807 0 23.5 0H2.5ZM18.5 4H19.25H19.5H19.9413L20.1556 4.38577L21.5 6.80566V4H23V9.25V10H22.25H22H21.5587L21.3444 9.61423L20 7.19434V10H18.5V4.75V4ZM5 8.125V4H6.5V8.125C6.5 9.16053 5.66053 10 4.625 10C3.58947 10 2.75 9.16053 2.75 8.125V7.75H4.25V8.125C4.25 8.33211 4.41789 8.5 4.625 8.5C4.83211 8.5 5 8.33211 5 8.125ZM12.5 6C12.5 4.89543 13.3954 4 14.5 4H15.25C16.3546 4 17.25 4.89543 17.25 6V8C17.25 9.10457 16.3546 10 15.25 10H14.5C13.3954 10 12.5 9.10457 12.5 8V6ZM14.5 5.5C14.2239 5.5 14 5.72386 14 6V8C14 8.27614 14.2239 8.5 14.5 8.5H15.25C15.5261 8.5 15.75 8.27614 15.75 8V6C15.75 5.72386 15.5261 5.5 15.25 5.5H14.5ZM9.25 5.875C9.25 5.66789 9.41789 5.5 9.625 5.5H11V4H9.625C8.58947 4 7.75 4.83947 7.75 5.875C7.75 6.91053 8.58947 7.75 9.625 7.75C9.83211 7.75 10 7.91789 10 8.125C10 8.33211 9.83211 8.5 9.625 8.5H8V10H9.625C10.6605 10 11.5 9.16053 11.5 8.125C11.5 7.08947 10.6605 6.25 9.625 6.25C9.41789 6.25 9.25 6.08211 9.25 5.875Z" fill="currentColor"/>
    </symbol>
  </defs>
</svg>