
<svg width="16" height="16" viewBox="0 0 16 16" fill="none" xmlns="http://www.w3.org/2000/svg">
  <defs>
    <symbol id='ai-sdk' viewBox="0 0 16 16">
      <g clip-path="url(#clip0_5110_1818716)"><path fill-rule="evenodd" clip-rule="evenodd" d="M15.5001 0C15.7762 0 16.0001 0.223865 16.0001 0.500012L16 4.65661C16 4.86349 15.8726 5.049 15.6795 5.12327L9.62447 7.45214C9.54223 7.48378 9.45486 7.5 9.36674 7.5C8.57084 7.5 8.36616 6.39765 9.10901 6.11194L11.4091 5.22727C11.5308 5.18049 11.4973 5 11.3669 5H0.5C0.223853 5 -6.74172e-06 4.77613 1.52277e-10 4.49999L9.76564e-05 0.499988C0.000104398 0.22385 0.22396 0 0.500098 0H15.5001ZM0.500049 8.5C0.223907 8.5 4.8828e-05 8.72386 4.8828e-05 9V13.1566C4.8828e-05 13.3635 0.127463 13.549 0.320558 13.6233L6.37556 15.9521C6.45781 15.9838 6.54518 16 6.6333 16C7.42921 16 7.63389 14.8976 6.89104 14.6119L4.59096 13.7273C4.46933 13.6805 4.50284 13.5 4.63316 13.5H15.5C15.7762 13.5 16 13.2761 16 13V9C16 8.72386 15.7762 8.5 15.5 8.5H0.500049Z" fill="currentColor"/></g><defs><clipPath id="clip0_5110_1818716"><rect width="16" height="16" fill="white"/></clipPath></defs>
    </symbol>
  </defs>
</svg>