
<svg width="16" height="16" viewBox="0 0 16 16" fill="none" xmlns="http://www.w3.org/2000/svg">
  <defs>
    <symbol id='arrow-crossed' viewBox="0 0 16 16">
      <path fill-rule="evenodd" clip-rule="evenodd" d="M10.7499 1H9.99987V2.5H10.7499H12.4392L1.46954 13.4697L0.939209 14L1.99987 15.0607L2.5302 14.5303L13.4987 3.56182V5.25V6H14.9987V5.25V2C14.9987 1.44772 14.551 1 13.9987 1H10.7499Z" fill="currentColor"/><path fill-rule="evenodd" clip-rule="evenodd" d="M6.0002 7.06064L5.46983 6.53035L1.4691 2.53031L0.938721 2.00002L1.99929 0.93927L2.52967 1.46955L6.5304 5.4696L7.06077 5.99988L6.0002 7.06064ZM12.4377 13.4994H10.7499H9.99994V14.9994H10.7499H13.9994C14.5517 14.9994 14.9994 14.5517 14.9994 13.9994V10.75V9.99996H13.4994V10.75V12.4398L10.5305 9.46975L10.0003 8.93931L8.93944 9.99976L9.46966 10.5302L12.4377 13.4994Z" fill="currentColor"/>
    </symbol>
  </defs>
</svg>