
<svg width="16" height="16" viewBox="0 0 16 16" fill="none" xmlns="http://www.w3.org/2000/svg">
  <defs>
    <symbol id='arrow-move' viewBox="0 0 16 16">
      <g clip-path="url(#clip0_1999_1496835)"><path fill-rule="evenodd" clip-rule="evenodd" d="M4.93926 3.00002L5.46959 2.46969L7.29282 0.64647C7.68334 0.255946 8.31651 0.255946 8.70703 0.64647L10.5303 2.46969L11.0606 3.00002L9.99992 4.06068L9.46959 3.53035L8.75004 2.8108V7.25002H13.1893L12.4697 6.53034L11.9393 6.00002L13 4.93935L13.5303 5.46969L15.3536 7.29291C15.7441 7.68343 15.7441 8.3166 15.3536 8.70712L13.5303 10.5303L13 11.0607L11.9393 10L12.4697 9.46969L13.1893 8.75002H8.75004V13.1892L9.46959 12.4697L9.99992 11.9394L11.0606 13L10.5303 13.5304L8.70703 15.3536C8.31651 15.7441 7.68334 15.7441 7.29282 15.3536L5.46959 13.5304L4.93926 13L5.99992 11.9394L6.53025 12.4697L7.25004 13.1895V8.75002H2.81063L3.53029 9.46969L4.06062 10L2.99996 11.0607L2.46963 10.5303L0.646409 8.70712C0.255885 8.3166 0.255885 7.68343 0.646409 7.29291L2.46963 5.46969L2.99996 4.93935L4.06062 6.00002L3.53029 6.53034L2.81062 7.25002H7.25004V2.81057L6.53025 3.53035L5.99992 4.06068L4.93926 3.00002Z" fill="currentColor"/></g><defs><clipPath id="clip0_1999_1496835"><rect width="16" height="16" fill="white"/></clipPath></defs>
    </symbol>
  </defs>
</svg>