
<svg width="16" height="16" viewBox="0 0 16 16" fill="none" xmlns="http://www.w3.org/2000/svg">
  <defs>
    <symbol id='bezier-curve' viewBox="0 0 16 16">
      <g clip-path="url(#clip0_1682_1422749)"><path fill-rule="evenodd" clip-rule="evenodd" d="M3 4.5C3.82843 4.5 4.5 3.82843 4.5 3C4.5 2.17157 3.82843 1.5 3 1.5C2.17157 1.5 1.5 2.17157 1.5 3C1.5 3.82843 2.17157 4.5 3 4.5ZM3 6C4.65685 6 6 4.65685 6 3C6 1.34315 4.65685 0 3 0C1.34315 0 0 1.34315 0 3C0 4.65685 1.34315 6 3 6ZM15.9938 3.5C13.6432 3.50108 12.1974 4.11318 11.1661 4.96803C10.1006 5.85129 9.41245 7.03988 8.65118 8.3721L8.62305 8.42135C7.89179 9.70125 7.08402 11.1151 5.79114 12.1868C5.66036 12.2952 5.52522 12.3997 5.38536 12.5H8.5V14H1.23978e-05C8.26518e-06 14 4.13259e-06 14 0 14V12.5C4.13259e-06 12.5 8.26518e-06 12.5 1.23978e-05 12.5C2.35425 12.5 3.8017 11.8876 4.83386 11.032C5.89938 10.1487 6.58755 8.96012 7.34882 7.6279L7.37695 7.57865C8.10821 6.29875 8.91598 4.88494 10.2089 3.81321C10.3396 3.7048 10.4748 3.60031 10.6146 3.5H7.5V2H15.9935C15.9956 2 15.9978 2 16 2V3.5C15.9979 3.5 15.9958 3.5 15.9938 3.5ZM14.5 13C14.5 13.8284 13.8284 14.5 13 14.5C12.1716 14.5 11.5 13.8284 11.5 13C11.5 12.1716 12.1716 11.5 13 11.5C13.8284 11.5 14.5 12.1716 14.5 13ZM16 13C16 14.6569 14.6569 16 13 16C11.3431 16 10 14.6569 10 13C10 11.3431 11.3431 10 13 10C14.6569 10 16 11.3431 16 13Z" fill="currentColor"/></g><defs><clipPath id="clip0_1682_1422749"><rect width="16" height="16" fill="white"/></clipPath></defs>
    </symbol>
  </defs>
</svg>