
<svg width="16" height="16" viewBox="0 0 16 16" fill="none" xmlns="http://www.w3.org/2000/svg">
  <defs>
    <symbol id='blob' viewBox="0 0 16 16">
      <g clip-path="url(#clip0_53_138718)"><path d="M8 0.75C10.2482 0.75 12.1961 2.10418 13.5479 3.89062C14.9037 5.68253 15.75 8.01818 15.75 10.2158C15.75 11.3202 15.5353 12.2363 15.0928 12.9746C14.6459 13.7201 14.0034 14.2235 13.2559 14.5576C11.8178 15.2003 9.90074 15.25 8 15.25C6.09926 15.25 4.18215 15.2003 2.74414 14.5576C1.99664 14.2235 1.35413 13.7201 0.907227 12.9746C0.464689 12.2363 0.25 11.3202 0.25 10.2158C0.250027 8.01818 1.0963 5.68253 2.45215 3.89062C3.80393 2.10418 5.75183 0.75 8 0.75ZM8 2.25C6.38231 2.25 4.83014 3.23421 3.64844 4.7959C2.47082 6.35225 1.75003 8.37493 1.75 10.2158C1.75 11.1306 1.92755 11.7595 2.19336 12.2031C2.4549 12.6394 2.83724 12.9554 3.35645 13.1875C4.45192 13.6771 6.03483 13.75 8 13.75C9.96517 13.75 11.5481 13.6771 12.6436 13.1875C13.1628 12.9554 13.5451 12.6394 13.8066 12.2031C14.0724 11.7595 14.25 11.1306 14.25 10.2158C14.25 8.37493 13.5292 6.35225 12.3516 4.7959C11.1699 3.23421 9.61769 2.25 8 2.25Z" fill="currentColor"/></g><defs><clipPath id="clip0_53_138718"><rect width="16" height="16" fill="white"/></clipPath></defs>
    </symbol>
  </defs>
</svg>