
<svg width="16" height="16" viewBox="0 0 16 16" fill="none" xmlns="http://www.w3.org/2000/svg">
  <defs>
    <symbol id='browser-opera' viewBox="0 0 16 16">
      <g clip-path="url(#clip0_53_307846)"><path fill-rule="evenodd" clip-rule="evenodd" d="M0.124969 8.00014C0.124969 3.65099 3.65068 0.125275 7.99983 0.125275L8.01475 0.125295L8.0271 0.125312H8.02942V0.125316C10.0341 0.13276 11.8627 0.889882 13.2486 2.12968L13.2486 2.12971C14.859 3.57061 15.875 5.66758 15.875 8.00052C15.875 10.3338 14.859 12.4298 13.2483 13.8708L13.2482 13.8709C11.8555 15.1163 10.0159 15.875 7.99993 15.875C7.87317 15.875 7.74845 15.8717 7.6253 15.8659C3.44984 15.6703 0.124969 12.2236 0.124969 8.00014ZM7.99983 1.37527C4.34104 1.37527 1.37497 4.34134 1.37497 8.00014C1.37497 11.5529 4.17205 14.4527 7.6838 14.6172L7.68399 14.6173C7.79019 14.6223 7.89518 14.625 7.99993 14.625C8.03505 14.625 8.0701 14.6248 8.10508 14.6242C6.92485 14.233 5.89648 13.4732 5.12728 12.4785C4.22579 11.4082 3.67054 9.87053 3.63256 8.18487L3.63224 8.17079H3.6324V7.82937V7.8153L3.63256 7.8153C3.67052 6.12972 4.22574 4.59173 5.1271 3.52164C5.89631 2.52712 6.92454 1.76729 8.10458 1.37607C8.07818 1.37566 8.05175 1.37541 8.02527 1.37531C8.02511 1.37531 8.02494 1.37531 8.02478 1.37531L8.01218 1.37529L7.99983 1.37527ZM12.4489 3.09168C11.7037 2.60682 10.8426 2.33225 9.92614 2.33225C9.79092 2.33225 9.65681 2.33825 9.52403 2.35004C10.2164 2.6668 10.8168 3.19946 11.2874 3.85772C12.063 4.94254 12.5232 6.40922 12.5232 8.00047C12.5232 9.59173 12.063 11.0584 11.2874 12.1432C10.8171 12.801 10.2171 13.3334 9.52543 13.6502C9.65782 13.662 9.79152 13.6679 9.92634 13.6679C10.8425 13.6679 11.7034 13.3934 12.4486 12.9088C13.7861 11.6957 14.625 9.9467 14.625 8.00052C14.625 6.0545 13.786 4.30454 12.4489 3.09168ZM8.07681 3.28079C7.36234 3.28079 6.66589 3.63895 6.09036 4.31838L6.09034 4.31841C5.39541 5.13869 4.91637 6.39136 4.8824 7.83656V8.16361C4.9164 9.60882 5.39541 10.8612 6.09054 11.6818L6.09062 11.6819C6.66617 12.3615 7.36263 12.7202 8.07681 12.7202C8.87812 12.7202 9.66226 12.267 10.2705 11.4162C10.878 10.5666 11.2732 9.36097 11.2732 8.00047C11.2732 6.63995 10.878 5.43429 10.2706 4.58472C9.66233 3.73398 8.87819 3.28079 8.07681 3.28079Z" fill="currentColor"/></g><defs><clipPath id="clip0_53_307846"><rect width="16" height="16" fill="white"/></clipPath></defs>
    </symbol>
  </defs>
</svg>