
<svg width="16" height="16" viewBox="0 0 16 16" fill="none" xmlns="http://www.w3.org/2000/svg">
  <defs>
    <symbol id='browser-firefox' viewBox="0 0 16 16">
      <g clip-path="url(#clip0_53_309844)"><path fill-rule="evenodd" clip-rule="evenodd" d="M4.745 1.93188V0.657166L3.73726 1.43778C1.57364 3.11375 0.201635 5.86678 0.0997348 8.16438L0.0991211 8.17822V8.19207V8.22835V8.22946C0.102507 10.1453 0.82436 11.9903 2.12211 13.4001C3.41984 14.8099 5.19915 15.6821 7.10876 15.8447C9.01836 16.0072 10.9196 15.4483 12.4371 14.2782C13.9592 13.1047 15.315 11.2235 15.315 8.22835C15.315 5.91548 14.8666 4.72633 14.4109 3.75455C14.3622 3.65075 14.3145 3.55133 14.2682 3.45481C13.9032 2.69361 13.625 2.11333 13.625 1.00001H12.375C12.375 1.41546 12.1987 1.85891 11.8676 2.31919C11.5381 2.77725 11.0854 3.20939 10.6104 3.58804C10.1383 3.96439 9.66285 4.27322 9.30363 4.48857C9.1247 4.59584 8.97624 4.67895 8.87362 4.73468L8.84601 4.7496H7.245V4.7468V4.7408V4.73478V4.72875V4.7227V4.71664V4.71056V4.70447V4.69837V4.69225V4.68612V4.67998V4.67382V4.66764V4.66146V4.65526V4.64905V4.64282V4.63658V4.63033V4.62407V4.6178V4.61151V4.60521V4.5989V4.59258V4.58624V4.5799V4.57354V4.56717V4.56079V4.5544V4.548V4.54159V4.53517V4.52873V4.52229V4.51584V4.50938V4.50291V4.49643V4.48993V4.48343V4.47693V4.47041V4.46388V4.45734V4.4508V4.44425V4.43769V4.43112V4.42454V4.41795V4.41136V4.40476V4.39815V4.39154V4.38492V4.37829V4.37165V4.36501V4.35836V4.3517V4.34504V4.33837V4.3317V4.32502V4.31833V4.31164V4.30494V4.29824V4.29154V4.28482V4.27811V4.27138V4.26466V4.25793V4.25119V4.24445V4.23771V4.23096V4.22421V4.21746V4.2107V4.20394V4.19717V4.19041V4.18364V4.17686V4.17009V4.16331V4.15653V4.14975V4.14297V4.13618V4.12939V4.1226V4.11581V4.10902V4.10223V4.09543V4.08864V4.08184V4.07505V4.06825V4.06145V4.05465V4.04786V4.04106V4.03426V4.02747V4.02067V4.01388V4.00708V4.00029V3.9935V3.98671V3.97992V3.97313V3.96635V3.95956V3.95278V3.946V3.93922V3.93245V3.92567V3.91891V3.91214V3.90537V3.89861V3.89186V3.8851V3.87835V3.8716V3.86486V3.85812V3.85139V3.84466V3.83793V3.83121V3.82449V3.81778V3.81108V3.80437V3.79768V3.79099V3.7843V3.77762V3.77095V3.76428V3.75762V3.75096V3.74432V3.73767V3.73104V3.72441V3.71779V3.71117V3.70457V3.69797V3.69137V3.68479V3.67821V3.67165V3.66508V3.65853V3.65199V3.64545V3.63893V3.63241V3.6259V3.6194V3.61291V3.60643V3.59996V3.5935V3.58705V3.58061V3.57418V3.56776V3.56135V3.55495V3.54856V3.54218V3.53581V3.52946V3.52311V3.51678V3.51046V3.50415V3.49785V3.49156V3.48529V3.47903V3.47278V3.46654V3.46032V3.45411V3.44791V3.44172V3.43555V3.42939V3.42325V3.41712V3.411V3.4049V3.39881V3.39274V3.38668V3.38063V3.3746V3.36859V3.36259V3.3566V3.35063V3.34468V3.33874V3.33281V3.32691V3.32101V3.31514V3.30928V3.30344V3.29761V3.2918V3.28601V3.28023V3.27448V3.26874V3.26301V3.25731V3.25162V3.24595V3.2403V3.23466V3.22905V3.22345V3.21787V3.21231V3.20677V3.20125V3.19575V3.19026V3.1848V3.17935V3.17393V3.16852V3.16314V3.15777V3.15243V3.14711V3.1418V3.13652V3.13126V3.12602V3.1208V3.1156V3.11042V3.10527V3.10014V3.09503V3.08994V3.08487V3.07982V3.0748V3.0698V3.06482V3.05987V3.05494V3.05003V3.04515V3.04028V3.03545V3.03063V3.02584V3.02108V3.01634V3.01162V3.00692V3.00226V2.99761V2.99299V2.9884V2.98383V2.97929V2.97477V2.97028V2.96581V2.96137V2.95696V2.95257V2.94821V2.94387V2.93956V2.93528V2.93102V2.9268V2.92259V2.91842V2.91427V2.91016V2.90606V2.902V2.89797V2.89396V2.88998V2.88603V2.88211V2.87822V2.87435V2.87052V2.86671V2.86294V2.85919V2.85547V2.85178V2.84813V2.8445V2.8409V2.83733V2.8338V2.83029V2.82682V2.82337V2.81996V2.81658V2.81323V2.80991V2.80662V2.80336V2.80014V2.79695V2.79379V2.79066V2.78756V2.7845V2.78147V2.77847V2.77551V2.77258V2.76968V2.76682V2.76399V2.76119V2.75843V2.7557V2.75301V2.75035V2.74772V2.74513V2.74257V2.74005V2.73757V2.73511V2.7327V2.73032V2.72797V2.72567V2.72339V2.72116V2.71895V2.71679V2.71466V2.71257V2.71052V2.7085V2.70652V2.70457V2.70267V2.7008V2.69897V2.69717V1.41052L6.23364 2.2059C5.75879 2.57934 5.20838 3.07887 4.745 3.51652V3.51418V3.50633V3.49847V3.49061V3.48274V3.47487V3.46699V3.4591V3.45121V3.44332V3.43542V3.42751V3.4196V3.41168V3.40377V3.39584V3.38791V3.37998V3.37205V3.36411V3.35616V3.34822V3.34027V3.33231V3.32435V3.31639V3.30843V3.30047V3.2925V3.28453V3.27655V3.26858V3.2606V3.25262V3.24464V3.23665V3.22867V3.22068V3.2127V3.20471V3.19672V3.18872V3.18073V3.17274V3.16475V3.15675V3.14876V3.14077V3.13277V3.12478V3.11678V3.10879V3.1008V3.09281V3.08481V3.07682V3.06883V3.06085V3.05286V3.04487V3.03689V3.02891V3.02093V3.01295V3.00497V2.997V2.98902V2.98105V2.97309V2.96512V2.95716V2.9492V2.94125V2.93329V2.92534V2.9174V2.90946V2.90152V2.89358V2.88565V2.87773V2.86981V2.86189V2.85398V2.84607V2.83817V2.83027V2.82237V2.81449V2.8066V2.79873V2.79086V2.78299V2.77513V2.76728V2.75943V2.75159V2.74375V2.73592V2.7281V2.72029V2.71248V2.70468V2.69688V2.68909V2.68132V2.67354V2.66578V2.65802V2.65027V2.64253V2.6348V2.62708V2.61936V2.61166V2.60396V2.59627V2.58859V2.58092V2.57326V2.56561V2.55796V2.55033V2.54271V2.53509V2.52749V2.5199V2.51232V2.50474V2.49718V2.48963V2.48209V2.47456V2.46704V2.45954V2.45204V2.44456V2.43709V2.42963V2.42218V2.41474V2.40732V2.3999V2.3925V2.38512V2.37774V2.37038V2.36303V2.3557V2.34837V2.34106V2.33377V2.32649V2.31922V2.31196V2.30472V2.2975V2.29029V2.28309V2.2759V2.26874V2.26158V2.25444V2.24732V2.24021V2.23312V2.22604V2.21898V2.21193V2.2049V2.19788V2.19089V2.1839V2.17694V2.16999V2.16305V2.15614V2.14924V2.14236V2.13549V2.12864V2.12181V2.115V2.1082V2.10142V2.09467V2.08792V2.0812V2.07449V2.06781V2.06114V2.05449V2.04786V2.04125V2.03465V2.02808V2.02153V2.01499V2.00848V2.00198V1.99551V1.98905V1.98262V1.9762V1.96981V1.96343V1.95708V1.95075V1.94444V1.93815V1.93188ZM11.3896 4.56547C11.8719 4.18096 12.3731 3.71647 12.7774 3.1902C12.8908 3.47683 13.0174 3.73957 13.1425 3.99918L13.1425 3.99926C13.1885 4.09469 13.2343 4.1897 13.2791 4.28532C13.6684 5.11523 14.065 6.12394 14.065 8.22835C14.065 10.7765 12.9393 12.3126 11.6739 13.2883C10.404 14.2675 8.81292 14.7352 7.21479 14.5992C5.61666 14.4631 4.12769 13.7332 3.04179 12.5535C1.95601 11.3739 1.35208 9.8305 1.34912 8.22778V8.20632C1.42168 6.66163 2.20623 4.79408 3.495 3.3651V3.37205V3.37998V3.38791V3.39584V3.40377V3.41168V3.4196V3.42751V3.43542V3.44332V3.45121V3.4591V3.46699V3.47487V3.48274V3.49061V3.49847V3.50633V3.51418V3.52202V3.52986V3.53769V3.54552V3.55334V3.56115V3.56895V3.57675V3.58454V3.59232V3.6001V3.60787V3.61563V3.62338V3.63112V3.63886V3.64659V3.65431V3.66202V3.66972V3.67741V3.6851V3.69277V3.70044V3.70809V3.71574V3.72338V3.73101V3.73862V3.74623V3.75383V3.76142V3.76899V3.77656V3.78412V3.79166V3.7992V3.80672V3.81423V3.82173V3.82922V3.8367V3.84416V3.85162V3.85906V3.86649V3.87391V3.88131V3.88871V3.89609V3.90346V3.91081V3.91815V3.92548V3.9328V3.9401V3.94739V3.95466V3.96192V3.96917V3.9764V3.98362V3.99083V3.99802V4.00519V4.01235V4.0195V4.02663V4.03375V4.04085V4.04793V4.055V4.06205V4.06909V4.07612V4.08312V4.09011V4.09709V4.10404V4.11098V4.11791V4.12482V4.13171V4.13858V4.14544V4.15228V4.1591V4.1659V4.17269V4.17946V4.18621V4.19294V4.19965V4.20635V4.21302V4.21968V4.22632V4.23294V4.23954V4.24613V4.25269V4.25923V4.26576V4.27226V4.27875V4.28521V4.29166V4.29808V4.30448V4.31087V4.31723V4.32357V4.32989V4.33619V4.34247V4.34873V4.35497V4.36118V4.36738V4.37355V4.3797V4.38583V4.39193V4.39801V4.40407V4.41011V4.41613V4.42212V4.42809V4.43404V4.43996V4.44586V4.45174V4.45759V4.46342V4.46922V4.475V4.48076V4.48649V4.4922V4.49788V4.50354V4.50918V4.51479V4.52037V4.52593V4.53146V4.53697V4.54245V4.54791V4.55334V4.55875V4.56413V4.56948V4.57481V4.58011V4.58538V4.59062V4.59584V4.60104V4.6062V4.61134V4.61645V4.62153V4.62659V4.63162V4.63662V4.64159V4.64653V4.65144V4.65633V4.66119V4.66602V4.67082V4.67559V4.68033V4.68504V4.68973V4.69438V4.69901V4.7036V4.70816V4.7127V4.7172V4.72168V4.72612V4.73053V4.73492V4.73927V4.74359V4.74788V4.75214V4.75636V4.76056V4.76472V4.76885V4.77295V4.77702V4.78106V4.78506V4.78903V4.79297V4.79688V4.80075V4.80459V4.8084V4.81217V4.81591V4.81962V4.82329V4.82693V4.83054V4.83411V4.83765V4.84115V4.84462V4.84806V4.85146V4.85482V4.85815V4.86145V4.86471V4.86793V4.87112V4.87428V4.87739V4.88048V4.88352V4.88653V4.88951V4.89245V4.89535V4.89821V4.90104V4.90383V4.90659V4.9093V4.91198V4.91463V4.91723V4.9198V4.92233V4.92482V4.92727V4.92969V4.93207V4.93441V4.93671V4.93897V4.94119V4.94337V4.94552V4.94762V4.94969V4.95172V4.9537V4.95565V4.95756V4.95942V4.96125V4.96304V4.96479V4.96649V4.96816V4.96978V4.97136V4.97291V4.97441V4.97587V4.97729V4.97866V4.98V4.98129V4.98254V4.98375V4.98492V4.98604V4.98713V4.98817V4.98916V4.99012V4.99103V4.9919V4.99272V4.9935V4.99424V4.99493V4.99558V4.99619V4.99675V4.99727V4.99774V4.99817V4.99855V4.99889V4.99919V4.99944V4.99964V4.9998V4.99992V4.99999L4.12 5.00001H3.495V6.52677L4.56557 5.43829L4.56559 5.43827L4.56572 5.43814L4.56638 5.43747L4.56926 5.43455L4.58112 5.42254L4.62803 5.37524C4.66917 5.33387 4.72935 5.2736 4.80493 5.1986C4.95616 5.04852 5.16855 4.83995 5.4128 4.60634C5.59507 4.43202 5.79297 4.24579 5.995 4.06066V4.06145V4.06825V4.07505V4.08184V4.08864V4.09543V4.10223V4.10902V4.11581V4.1226V4.12939V4.13618V4.14297V4.14975V4.15653V4.16331V4.17009V4.17686V4.18364V4.19041V4.19717V4.20394V4.2107V4.21746V4.22421V4.23096V4.23771V4.24445V4.25119V4.25793V4.26466V4.27138V4.27811V4.28482V4.29154V4.29824V4.30494V4.31164V4.31833V4.32502V4.3317V4.33837V4.34504V4.3517V4.35836V4.36501V4.37165V4.37829V4.38492V4.39154V4.39815V4.40476V4.41136V4.41795V4.42454V4.43112V4.43769V4.44425V4.4508V4.45734V4.46388V4.47041V4.47693V4.48343V4.48993V4.49643V4.50291V4.50938V4.51584V4.52229V4.52873V4.53517V4.54159V4.548V4.5544V4.56079V4.56717V4.57354V4.5799V4.58624V4.59258V4.5989V4.60521V4.61151V4.6178V4.62407V4.63033V4.63658V4.64282V4.64905V4.65526V4.66146V4.66764V4.67382V4.67998V4.68612V4.69225V4.69837V4.70447V4.71056V4.71664V4.7227V4.72875V4.73478V4.7408V4.7468V4.75279V4.75876V4.76471V4.77065V4.77658V4.78249V4.78838V4.79426V4.80012V4.80596V4.81179V4.8176V4.82339V4.82917V4.83493V4.84067V4.8464V4.85211V4.8578V4.86347V4.86912V4.87476V4.88037V4.88597V4.89155V4.89712V4.90266V4.90818V4.91369V4.91917V4.92464V4.93008V4.93551V4.94092V4.9463V4.95167V4.95702V4.96234V4.96765V4.97293V4.9782V4.98344V4.98866V4.99386V4.99904V5.0042V5.00933V5.01444V5.01954V5.0246V5.02965V5.03468V5.03968V5.04466V5.04961V5.05455V5.05946V5.06434V5.06921V5.07405V5.07886V5.08366V5.08842V5.09317V5.09789V5.10258V5.10725V5.1119V5.11652V5.12112V5.12569V5.13023V5.13475V5.13925V5.14372V5.14816V5.15258V5.15697V5.16133V5.16567V5.16998V5.17427V5.17853V5.18276V5.18696V5.19114V5.19529V5.19941V5.2035V5.20757V5.2116V5.21561V5.21959V5.22355V5.22747V5.23137V5.23523V5.23907V5.24288V5.24666V5.25041V5.25413V5.25782V5.26148V5.26511V5.26871V5.27228V5.27582V5.27933V5.28281V5.28625V5.28967V5.29306V5.29641V5.29973V5.30302V5.30628V5.30951V5.3127V5.31587V5.319V5.3221V5.32516V5.32819V5.33119V5.33416V5.33709V5.33999V5.34286V5.3457V5.3485V5.35126V5.35399V5.35669V5.35935V5.36198V5.36458V5.36714V5.36966V5.37215V5.3746V5.9996H6V6.00001L9 8.00001L5.54648 9.72677C6.08951 10.4969 6.98601 11 8 11C9.65686 11 11 9.65686 11 8.00001C11 7.03441 10.5438 6.17536 9.83519 5.62663C9.87094 5.60564 9.90804 5.58364 9.94637 5.56067C10.3372 5.32639 10.8617 4.98629 11.3896 4.56547Z" fill="currentColor"/></g><defs><clipPath id="clip0_53_309844"><rect width="16" height="16" fill="white"/></clipPath></defs>
    </symbol>
  </defs>
</svg>