
<svg width="16" height="16" viewBox="0 0 16 16" fill="none" xmlns="http://www.w3.org/2000/svg">
  <defs>
    <symbol id='clock-dashed' viewBox="0 0 16 16">
      <g clip-path="url(#clip0_678_1472799)"><path fill-rule="evenodd" clip-rule="evenodd" d="M5.35063 2.06247C5.96366 1.78847 6.62698 1.60666 7.32348 1.53473L7.1694 0.0426636C6.31205 0.1312 5.49433 0.355227 4.73855 0.693033L5.35063 2.06247ZM8.67648 1.53473C11.9481 1.87258 14.5 4.63876 14.5 8.00001C14.5 11.5899 11.5898 14.5 7.99998 14.5C4.63898 14.5 1.87295 11.9485 1.53477 8.67722L0.0427246 8.83147C0.459133 12.8594 3.86231 16 7.99998 16C12.4183 16 16 12.4183 16 8.00001C16 3.86204 12.8589 0.458666 8.83056 0.0426636L8.67648 1.53473ZM2.73969 4.18084C3.14141 3.62861 3.628 3.14195 4.18018 2.74018L3.29765 1.52727C2.61872 2.02128 2.02061 2.61945 1.52668 3.29845L2.73969 4.18084ZM1.53477 7.32279C1.60675 6.62656 1.78853 5.96348 2.06244 5.35066L0.693003 4.73858C0.355312 5.4941 0.131324 6.31152 0.0427246 7.16854L1.53477 7.32279ZM8.74998 4.75V4H7.24998V4.75V7.875C7.24998 8.18976 7.39817 8.48615 7.64998 8.675L9.54998 10.1L10.15 10.55L11.05 9.35L10.45 8.9L8.74998 7.625V4.75Z" fill="currentColor"/></g><defs><clipPath id="clip0_678_1472799"><rect width="16" height="16" fill="white"/></clipPath></defs>
    </symbol>
  </defs>
</svg>