
<svg width="16" height="16" viewBox="0 0 16 16" fill="none" xmlns="http://www.w3.org/2000/svg">
  <defs>
    <symbol id='codepen' viewBox="0 0 16 16">
      <g clip-path="url(#clip0_53_257765)"><path fill-rule="evenodd" clip-rule="evenodd" d="M8 0.0993652L8.40611 0.360926L15.6561 5.03042L16 5.25191V5.66095V10.3304V10.7395L15.6561 10.961L8.40611 15.6305L8 15.892L7.59389 15.6305L0.343892 10.961L0 10.7395V10.3304V5.66095V5.25191L0.343892 5.03042L7.59389 0.360926L8 0.0993652ZM1.5 9.16023L3.24781 7.9957L1.5 6.83118V9.16023ZM2.0654 5.70585L4.375 7.24468L7.375 5.24585L7.375 2.2861L2.0654 5.70585ZM11.625 7.24468L8.625 5.24585V2.2861L13.9346 5.70585L11.625 7.24468ZM14.5 6.83118L12.7522 7.9957L14.5 9.16023V6.83118ZM10.4978 7.9957L8 6.33147L5.50219 7.9957L8 9.65994L10.4978 7.9957ZM7.375 10.7456L4.375 8.74673L2.0654 10.2856L7.375 13.7053V10.7456ZM8.625 13.7053L13.9346 10.2856L11.625 8.74673L8.625 10.7456V13.7053Z" fill="currentColor"/></g><defs><clipPath id="clip0_53_257765"><rect width="16" height="16" fill="white"/></clipPath></defs>
    </symbol>
  </defs>
</svg>