
<svg width="16" height="16" viewBox="0 0 16 16" fill="none" xmlns="http://www.w3.org/2000/svg">
  <defs>
    <symbol id='code-wrap' viewBox="0 0 16 16">
      <path fill-rule="evenodd" clip-rule="evenodd" d="M7.22763 14.1819L10.2276 2.18186L10.4095 1.45426L8.95432 1.09045L8.77242 1.81806L5.77242 13.8181L5.59051 14.5457L7.04573 14.9095L7.22763 14.1819ZM3.75002 12.0606L3.21969 11.5303L0.39647 8.70707C0.00594568 8.31655 0.00594568 7.68338 0.39647 7.29286L3.21969 4.46963L3.75002 3.9393L4.81068 4.99996L4.28035 5.53029L1.81068 7.99996L4.28035 10.4696L4.81068 11L3.75002 12.0606ZM12.25 12.0606L12.7804 11.5303L15.6036 8.70707C15.9941 8.31655 15.9941 7.68338 15.6036 7.29286L12.7804 4.46963L12.25 3.9393L11.1894 4.99996L11.7197 5.53029L14.1894 7.99996L11.7197 10.4696L11.1894 11L12.25 12.0606Z" fill="currentColor"/>
    </symbol>
  </defs>
</svg>