
<svg width="16" height="16" viewBox="0 0 16 16" fill="none" xmlns="http://www.w3.org/2000/svg">
  <defs>
    <symbol id='device-tablet' viewBox="0 0 16 16">
      <path fill-rule="evenodd" clip-rule="evenodd" d="M3.25 0C2.2835 0 1.5 0.783501 1.5 1.75V14.25C1.5 15.2165 2.2835 16 3.25 16H12.75C13.7165 16 14.5 15.2165 14.5 14.25V1.75C14.5 0.783502 13.7165 0 12.75 0H3.25ZM3 1.75C3 1.61193 3.11193 1.5 3.25 1.5H12.75C12.8881 1.5 13 1.61193 13 1.75V14.25C13 14.3881 12.8881 14.5 12.75 14.5H3.25C3.11193 14.5 3 14.3881 3 14.25V1.75ZM5.25 4.75C5.80228 4.75 6.25 4.30228 6.25 3.75C6.25 3.19772 5.80228 2.75 5.25 2.75C4.69772 2.75 4.25 3.19772 4.25 3.75C4.25 4.30228 4.69772 4.75 5.25 4.75Z" fill="currentColor"/>
    </symbol>
  </defs>
</svg>