
<svg width="16" height="16" viewBox="0 0 16 16" fill="none" xmlns="http://www.w3.org/2000/svg">
  <defs>
    <symbol id='face-plus' viewBox="0 0 16 16">
      <g clip-path="url(#clip0_396_1349672)"><path d="M8 0.500122C8.61936 0.500122 9.22259 0.575707 9.7998 0.717896L9.62012 1.44543L9.44043 2.17395C8.97976 2.06049 8.49744 2.00012 8 2.00012C4.68629 2.00012 2 4.68641 2 8.00012C2.00007 11.3138 4.68633 14.0001 8 14.0001C11.3137 14.0001 13.9999 11.3138 14 8.00012C14 7.50272 13.9396 7.02033 13.8262 6.55969L14.5547 6.38L15.2822 6.20032C15.4244 6.77749 15.5 7.3808 15.5 8.00012C15.4999 12.1422 12.1421 15.5001 8 15.5001C3.85791 15.5001 0.500066 12.1422 0.5 8.00012C0.5 3.85799 3.85786 0.500122 8 0.500122ZM11.6826 10.1603L11.2871 10.6447C10.5109 11.5964 9.32682 12.207 8.00098 12.2072C6.67503 12.207 5.49005 11.5966 4.71387 10.6447L4.31934 10.1603L5.28809 9.37122L5.68262 9.85559C6.2316 10.5287 7.06664 10.957 8.00098 10.9572C8.93519 10.957 9.76937 10.5286 10.3184 9.85559L10.7129 9.37122L11.6826 10.1603ZM5.75 5.50012C6.44036 5.50012 7 6.05977 7 6.75012C6.99993 7.44042 6.44032 8.00012 5.75 8.00012C5.05968 8.00012 4.50007 7.44042 4.5 6.75012C4.5 6.05977 5.05964 5.50012 5.75 5.50012ZM10.25 5.50012C10.9404 5.50012 11.5 6.05977 11.5 6.75012C11.4999 7.44042 10.9403 8.00012 10.25 8.00012C9.55968 8.00012 9.00007 7.44042 9 6.75012C9 6.05977 9.55964 5.50012 10.25 5.50012ZM14.125 0.130005V1.88H15.875V3.13H14.125V4.88H12.875V3.13H11.125V1.88H12.875V0.130005H14.125Z" fill="currentColor"/></g><defs><clipPath id="clip0_396_1349672"><rect width="16" height="16" fill="white"/></clipPath></defs>
    </symbol>
  </defs>
</svg>