
<svg width="16" height="16" viewBox="0 0 16 16" fill="none" xmlns="http://www.w3.org/2000/svg">
  <defs>
    <symbol id='face-unhappy' viewBox="0 0 16 16">
      <g clip-path="url(#clip0_53_152688)"><path fill-rule="evenodd" clip-rule="evenodd" d="M14.5 8C14.5 11.5899 11.5899 14.5 8 14.5C4.41015 14.5 1.5 11.5899 1.5 8C1.5 4.41015 4.41015 1.5 8 1.5C11.5899 1.5 14.5 4.41015 14.5 8ZM16 8C16 12.4183 12.4183 16 8 16C3.58172 16 0 12.4183 0 8C0 3.58172 3.58172 0 8 0C12.4183 0 16 3.58172 16 8ZM11.5249 11.2622L11.8727 11.7814L10.8342 12.4771L10.4863 11.9578C9.94904 11.1557 9.0363 10.6298 8.00098 10.6298C6.96759 10.6298 6.05634 11.1537 5.51863 11.9533L5.16986 12.4719L4.13259 11.7744L4.48137 11.2558C5.2414 10.1256 6.53398 9.37982 8.00098 9.37982C9.47073 9.37982 10.7654 10.1284 11.5249 11.2622ZM7 6.75C7 7.44036 6.44036 8 5.75 8C5.05964 8 4.5 7.44036 4.5 6.75C4.5 6.05964 5.05964 5.5 5.75 5.5C6.44036 5.5 7 6.05964 7 6.75ZM10.25 8C10.9404 8 11.5 7.44036 11.5 6.75C11.5 6.05964 10.9404 5.5 10.25 5.5C9.55964 5.5 9 6.05964 9 6.75C9 7.44036 9.55964 8 10.25 8Z" fill="currentColor"/></g><defs><clipPath id="clip0_53_152688"><rect width="16" height="16" fill="white"/></clipPath></defs>
    </symbol>
  </defs>
</svg>