
<svg width="16" height="16" viewBox="0 0 16 16" fill="none" xmlns="http://www.w3.org/2000/svg">
  <defs>
    <symbol id='face-happy' viewBox="0 0 16 16">
      <g clip-path="url(#clip0_53_167671)"><path d="M8 0C12.4183 0 16 3.58172 16 8C16 12.4183 12.4183 16 8 16C3.58172 16 0 12.4183 0 8C0 3.58172 3.58172 0 8 0ZM8 1.5C4.41015 1.5 1.5 4.41015 1.5 8C1.5 11.5899 4.41015 14.5 8 14.5C11.5899 14.5 14.5 11.5899 14.5 8C14.5 4.41015 11.5899 1.5 8 1.5ZM11.873 10.3281L11.5244 10.8477C10.7649 11.9814 9.47069 12.7305 8.00098 12.7305C6.53408 12.7305 5.2415 11.9846 4.48145 10.8545L4.13281 10.3359L5.16992 9.6377L5.51855 10.1562C6.05626 10.9558 6.96759 11.4805 8.00098 11.4805C9.03624 11.4805 9.94901 10.9544 10.4863 10.1523L10.834 9.63281L11.873 10.3281ZM5.75 5.5C6.44036 5.5 7 6.05964 7 6.75C7 7.44036 6.44036 8 5.75 8C5.05964 8 4.5 7.44036 4.5 6.75C4.5 6.05964 5.05964 5.5 5.75 5.5ZM10.25 5.5C10.9404 5.5 11.5 6.05964 11.5 6.75C11.5 7.44036 10.9404 8 10.25 8C9.55964 8 9 7.44036 9 6.75C9 6.05964 9.55964 5.5 10.25 5.5Z" fill="currentColor"/></g><defs><clipPath id="clip0_53_167671"><rect width="16" height="16" fill="white"/></clipPath></defs>
    </symbol>
  </defs>
</svg>