
<svg width="16" height="16" viewBox="0 0 16 16" fill="none" xmlns="http://www.w3.org/2000/svg">
  <defs>
    <symbol id='fluid' viewBox="0 0 16 16">
      <g clip-path="url(#clip0_7792_40881131)"><path fill-rule="evenodd" clip-rule="evenodd" d="M2.25 1.5H13.75C14.1642 1.5 14.5 1.83579 14.5 2.25V10.5H12C10.8899 10.5 10.1856 10.1972 9.75164 9.82276C9.31544 9.44642 9.08623 8.94134 9.02645 8.41532C8.96554 7.87928 9.08566 7.35886 9.30371 6.99453C9.52153 6.63057 9.77794 6.5 10 6.5V5C7.02876 5 5.52208 6.60451 4.25754 7.9955L4.21379 8.04363C3.32473 9.0218 2.57197 9.85002 1.5 10.2476V2.25C1.5 1.83579 1.83579 1.5 2.25 1.5ZM0 12V10.5V2.25C0 1.00736 1.00736 0 2.25 0H13.75C14.9926 0 16 1.00736 16 2.25V10.5V12V13.75C16 14.9926 14.9926 16 13.75 16H8H2.25C1.00736 16 0 14.9926 0 13.75V12ZM14.5 12V13.75C14.5 14.1642 14.1642 14.5 13.75 14.5H8H2.25C1.83579 14.5 1.5 14.1642 1.5 13.75V11.8167C3.22183 11.3712 4.29187 10.1908 5.24079 9.14409L5.36746 9.00451C6.08957 8.21018 6.77166 7.4888 7.66883 7.02646C7.52423 7.51789 7.47579 8.05441 7.53605 8.58468C7.63252 9.43366 8.01269 10.3036 8.77179 10.9585C9.53315 11.6153 10.6101 12 12 12H14.5Z" fill="currentColor"/></g><defs><clipPath id="clip0_7792_40881131"><rect width="16" height="16" fill="white"/></clipPath></defs>
    </symbol>
  </defs>
</svg>