
<svg width="16" height="16" viewBox="0 0 16 16" fill="none" xmlns="http://www.w3.org/2000/svg">
  <defs>
    <symbol id='forward-10-seconds-10' viewBox="0 0 16 16">
      <path fill-rule="evenodd" clip-rule="evenodd" d="M0 7.94507C0 5.05051 1.75642 2.567 4.26177 1.5011L1.75 1.5011H1L1 0.00109863H1.75H5.92462C6.47691 0.00109863 6.92462 0.448814 6.92462 1.0011V5.17572V5.92572H5.42462V5.17572V2.67382C3.15496 3.35103 1.5 5.45527 1.5 7.94507C1.5 10.9826 3.96243 13.4451 7 13.4451H7.75V14.9451H7C3.13401 14.9451 0 11.8111 0 7.94507ZM14.37 5.62744C13.4739 5.62744 12.7475 6.35386 12.7475 7.24994V9.37994C12.7475 10.276 13.4739 11.0024 14.37 11.0024C15.2661 11.0024 15.9925 10.276 15.9925 9.37994V7.24994C15.9925 6.35386 15.2661 5.62744 14.37 5.62744ZM13.9925 7.24994C13.9925 7.04145 14.1615 6.87244 14.37 6.87244C14.5785 6.87244 14.7475 7.04145 14.7475 7.24994V9.37994C14.7475 9.58843 14.5785 9.75744 14.37 9.75744C14.1615 9.75744 13.9925 9.58843 13.9925 9.37994V7.24994ZM11.2425 6.37292C11.2425 6.18124 11.1542 6.00024 11.0031 5.88227C10.852 5.7643 10.655 5.72252 10.469 5.76901L9.46902 6.01901L8.8651 6.16999L9.16706 7.37782L9.77097 7.22684L9.99749 7.17021V9.75043H9.62H8.99749V10.9954H9.62H10.62H11.62H12.2425V9.75043H11.62H11.2425V6.37292Z" fill="currentColor"/>
    </symbol>
  </defs>
</svg>