
<svg width="16" height="16" viewBox="0 0 16 16" fill="none" xmlns="http://www.w3.org/2000/svg">
  <defs>
    <symbol id='function-ruby' viewBox="0 0 16 16">
      <path fill-rule="evenodd" clip-rule="evenodd" d="M0 2.25C0 1.00736 1.00736 0 2.25 0H13.75C14.9926 0 16 1.00736 16 2.25V8H14.5V2.25C14.5 1.83579 14.1642 1.5 13.75 1.5H2.25C1.83579 1.5 1.5 1.83579 1.5 2.25V13.75C1.5 14.1642 1.83579 14.5 2.25 14.5H8V16H2.25C1.00736 16 0 14.9926 0 13.75V2.25ZM9.24618 5C8.41986 5 7.75 5.66986 7.75 6.49618V7H8.75H9.5V8.5H8.75H7.75V9.50439C7.75 11.1588 6.40882 12.5 4.75439 12.5H4.00439V11H4.75439C5.58039 11 6.25 10.3304 6.25 9.50439V8.5H5.25H4.5V7H5.25H6.25V6.49618C6.25 4.84144 7.59144 3.5 9.24618 3.5H9.99618V5H9.24618Z" fill="currentColor"/><path d="M15.7247 11.3855L14.5481 10.0481H10.4519L9.27523 11.3855C8.92446 11.7841 8.94646 12.3874 9.32532 12.7595L12.5 15.8773L15.6746 12.7595C16.0534 12.3874 16.0754 11.7842 15.7247 11.3855Z" fill="var(--ds-red-900)"/><path fill-rule="evenodd" clip-rule="evenodd" d="M12.466 9.48833C13.6685 9.4926 14.8003 9.91651 14.7972 10.5166C14.794 11.1166 13.7446 11.5332 12.5423 11.5287C11.34 11.5242 10.1983 11.1295 10.2016 10.5296C10.2044 9.92963 11.2637 9.48385 12.466 9.48833Z" fill="var(--ds-red-600)"/>
    </symbol>
  </defs>
</svg>