
<svg width="16" height="16" viewBox="0 0 16 16" fill="none" xmlns="http://www.w3.org/2000/svg">
  <defs>
    <symbol id='function' viewBox="0 0 16 16">
      <g clip-path="url(#clip0_53_370730)"><path d="M13.75 0C14.9926 0 16 1.00736 16 2.25V13.75C16 14.9926 14.9926 16 13.75 16H2.25C1.00736 16 0 14.9926 0 13.75V2.25C0 1.00736 1.00736 0 2.25 0H13.75ZM2.25 1.5C1.83579 1.5 1.5 1.83579 1.5 2.25V13.75C1.5 14.1642 1.83579 14.5 2.25 14.5H13.75C14.1642 14.5 14.5 14.1642 14.5 13.75V2.25C14.5 1.83579 14.1642 1.5 13.75 1.5H2.25ZM10.9971 5H10.2471C9.42078 5 8.75103 5.66982 8.75098 6.49609V7H10.5V8.5H8.75098V9.50488C8.75071 11.1589 7.40892 12.4997 5.75488 12.5H5.00488V11H5.75488C6.5805 10.9997 7.25071 10.3305 7.25098 9.50488V8.5H5.5V7H7.25098V6.49609C7.25103 4.84139 8.59235 3.5 10.2471 3.5H10.9971V5Z" fill="currentColor"/></g><defs><clipPath id="clip0_53_370730"><rect width="16" height="16" fill="white"/></clipPath></defs>
    </symbol>
  </defs>
</svg>