
<svg width="16" height="16" viewBox="0 0 16 16" fill="none" xmlns="http://www.w3.org/2000/svg">
  <defs>
    <symbol id='function-middleware' viewBox="0 0 16 16">
      <g clip-path="url(#clip0_53_135720)"><path d="M13.75 0C14.9926 0 16 1.00736 16 2.25V13.75C16 14.9926 14.9926 16 13.75 16H2.25C1.00736 16 0 14.9926 0 13.75V2.25C0 1.00736 1.00736 0 2.25 0H13.75ZM2.25 1.5C1.83579 1.5 1.5 1.83579 1.5 2.25V13.75C1.5 14.1642 1.83579 14.5 2.25 14.5H13.75C14.1642 14.5 14.5 14.1642 14.5 13.75V2.25C14.5 1.83579 14.1642 1.5 13.75 1.5H2.25ZM5.5 4.91797C5.77093 4.81046 6.06579 4.75 6.375 4.75C7.00424 4.75 7.57504 4.99607 8 5.39551C8.42496 4.99607 8.99576 4.75 9.625 4.75C10.9367 4.75 12 5.81332 12 7.125V11.25H10.5V7.125C10.5 6.64175 10.1082 6.25 9.625 6.25C9.14175 6.25 8.75 6.64175 8.75 7.125V11.25H7.25V7.125C7.25 6.64175 6.85825 6.25 6.375 6.25C5.89175 6.25 5.5 6.64175 5.5 7.125V11.25H4V4.75H5.5V4.91797Z" fill="currentColor"/></g><defs><clipPath id="clip0_53_135720"><rect width="16" height="16" fill="white"/></clipPath></defs>
    </symbol>
  </defs>
</svg>