
<svg width="16" height="16" viewBox="0 0 16 16" fill="none" xmlns="http://www.w3.org/2000/svg">
  <defs>
    <symbol id='git-branch-plus' viewBox="0 0 16 16">
      <path fill-rule="evenodd" clip-rule="evenodd" d="M10 0C8.89543 0 8 0.895431 8 2V6C8 7.10457 8.89543 8 10 8H10.8541C10.5927 8.63449 10.2069 9.21767 9.71231 9.71231C8.9389 10.4857 7.94904 10.9929 6.8851 11.1749C6.59439 10.1565 5.77903 9.35937 4.75 9.09451V1.75V1H3.25V1.75V9.09451C1.95608 9.42754 1 10.6021 1 12C1 13.6569 2.34315 15 4 15C5.42051 15 6.61042 14.0127 6.921 12.6869C8.37102 12.4872 9.7262 11.8197 10.773 10.773C11.5549 9.99104 12.1252 9.03705 12.4469 8H14C15.1046 8 16 7.10457 16 6V2C16 0.895431 15.1046 0 14 0H10ZM10.25 3.375H9.625V4.625H10.25H11.375V5.75V6.375H12.625V5.75V4.625H13.75H14.375V3.375H13.75H12.625V2.25V1.625H11.375V2.25V3.375H10.25ZM5.5 12C5.5 12.8284 4.82843 13.5 4 13.5C3.17157 13.5 2.5 12.8284 2.5 12C2.5 11.1716 3.17157 10.5 4 10.5C4.82843 10.5 5.5 11.1716 5.5 12Z" fill="currentColor"/>
    </symbol>
  </defs>
</svg>