
<svg width="16" height="16" viewBox="0 0 16 16" fill="none" xmlns="http://www.w3.org/2000/svg">
  <defs>
    <symbol id='git-branch-minus' viewBox="0 0 16 16">
      <path fill-rule="evenodd" clip-rule="evenodd" d="M8 2C8 0.895431 8.89543 0 10 0H14C15.1046 0 16 0.895431 16 2V6C16 7.10457 15.1046 8 14 8H12.4469C12.1252 9.03706 11.5549 9.99106 10.773 10.773C9.7262 11.8197 8.37102 12.4872 6.921 12.6869C6.61042 14.0127 5.42051 15 4 15C2.34315 15 1 13.6569 1 12C1 10.6021 1.95608 9.42754 3.25 9.09451V1.75V1H4.75V1.75V9.09451C5.77903 9.35937 6.59439 10.1565 6.8851 11.1749C7.94904 10.9929 8.9389 10.4857 9.71231 9.71231C10.207 9.21767 10.5927 8.63448 10.8541 8H10C8.89543 8 8 7.10457 8 6V2ZM9.625 3.375H10.25H13.75H14.375V4.625H13.75H10.25H9.625V3.375ZM5.5 12C5.5 12.8284 4.82843 13.5 4 13.5C3.17157 13.5 2.5 12.8284 2.5 12C2.5 11.1716 3.17157 10.5 4 10.5C4.82843 10.5 5.5 11.1716 5.5 12Z" fill="currentColor"/>
    </symbol>
  </defs>
</svg>