
<svg width="16" height="16" viewBox="0 0 16 16" fill="none" xmlns="http://www.w3.org/2000/svg">
  <defs>
    <symbol id='golden-gate' viewBox="0 0 16 16">
      <g clip-path="url(#clip0_1222_1401700)"><path d="M18.5 -2V7.5H15V11.5H16V13H12V16H10.5V13H5.5V16H4V13H0V11.5H1V7.5H-2.5V-2H18.5ZM4 6.62109C3.565 6.96998 3.05631 7.23084 2.5 7.37402V11.5H4V6.62109ZM5.5 11.5H7.25V7.42871C6.59621 7.30466 5.99933 7.02157 5.5 6.62109V11.5ZM10.5 6.62109C10.0007 7.02157 9.40379 7.30466 8.75 7.42871V11.5H10.5V6.62109ZM12 11.5H13.5V7.37402C12.9437 7.23084 12.435 6.96998 12 6.62109V11.5ZM-1 6H1.5C2.88071 6 4 4.88071 4 3.5V-0.5H-1V6ZM5.5 3.5C5.5 4.88071 6.61929 6 8 6C9.38071 6 10.5 4.88071 10.5 3.5V-0.5H5.5V3.5ZM12 -0.5V3.5C12 4.88071 13.1193 6 14.5 6H17V-0.5H12Z" fill="currentColor"/></g><defs><clipPath id="clip0_1222_1401700"><rect width="16" height="16" fill="white"/></clipPath></defs>
    </symbol>
  </defs>
</svg>