
<svg width="16" height="16" viewBox="0 0 16 16" fill="none" xmlns="http://www.w3.org/2000/svg">
  <defs>
    <symbol id='hash' viewBox="0 0 16 16">
      <path fill-rule="evenodd" clip-rule="evenodd" d="M7.24058 1.86844L7.35907 1.12785L5.87791 0.890869L5.75942 1.63145L5.22046 4.99994H2.5H1.75V6.49994H2.5H4.98046L4.42046 9.99994H2.5H1.75V11.4999H2.5H4.18046L3.75942 14.1314L3.64093 14.872L5.12209 15.109L5.24058 14.3684L5.69954 11.4999H9.18046L8.75942 14.1314L8.64093 14.872L10.1221 15.109L10.2406 14.3684L10.6995 11.4999H13.5H14.25V9.99994H13.5H10.9395L11.4995 6.49994H13.5H14.25V4.99994H13.5H11.7395L12.2406 1.86844L12.3591 1.12785L10.8779 0.890869L10.7594 1.63145L10.2205 4.99994H6.73954L7.24058 1.86844ZM9.98046 6.49994H6.49954L5.93954 9.99994H9.42046L9.98046 6.49994Z" fill="currentColor"/>
    </symbol>
  </defs>
</svg>