
<svg width="16" height="16" viewBox="0 0 16 16" fill="none" xmlns="http://www.w3.org/2000/svg">
  <defs>
    <symbol id='image' viewBox="0 0 16 16">
      <g clip-path="url(#clip0_53_231775)"><path d="M15.9999 8.43945L16.5604 9L15.9999 9.56055V12.5L15.9872 12.7559C15.8676 13.9323 14.9321 14.8677 13.7557 14.9873L13.4999 15H2.49988L2.24402 14.9873C1.06766 14.8677 0.132148 13.9322 0.0125732 12.7559L-0.00012207 12.5V10.8105L-0.0606689 10.75L-0.00012207 10.6895V1H15.9999V8.43945ZM7.99988 8.55957L10.0604 10.6201L8.99988 11.6807L6.31921 9H3.81042L1.49988 11.3105V12.5C1.49988 13.0522 1.94765 13.4999 2.49988 13.5H13.4999C14.0522 13.5 14.4999 13.0523 14.4999 12.5V9.06055L10.9999 5.56055L7.99988 8.55957ZM1.49988 9.18945L3.18933 7.5H6.93933L10.4696 3.96973H11.5302L14.4999 6.93945V2.5H1.49988V9.18945Z" fill="currentColor"/></g><defs><clipPath id="clip0_53_231775"><rect width="16" height="16" fill="white"/></clipPath></defs>
    </symbol>
  </defs>
</svg>