
<svg width="16" height="16" viewBox="0 0 16 16" fill="none" xmlns="http://www.w3.org/2000/svg">
  <defs>
    <symbol id='kv' viewBox="0 0 16 16">
      <g clip-path="url(#clip0_53_140708)"><path fill-rule="evenodd" clip-rule="evenodd" d="M10.6789 2.05379L9.8168 5.56256L13.3255 6.42471L14.1876 2.91594L10.6789 2.05379ZM10.383 0.436438C9.9396 0.327498 9.49189 0.598592 9.38295 1.04194L8.19946 5.85854C8.09052 6.3019 8.36162 6.74962 8.80497 6.85856L13.6215 8.04206C14.0648 8.151 14.5125 7.87991 14.6215 7.43656L15.805 2.61996C15.9139 2.1766 15.6428 1.72888 15.1995 1.61994L10.383 0.436438ZM9.50006 14.5C10.6046 14.5 11.5001 13.6046 11.5001 12.5C11.5001 11.3955 10.6046 10.5 9.50006 10.5C8.39549 10.5 7.50006 11.3955 7.50006 12.5C7.50006 13.6046 8.39549 14.5 9.50006 14.5ZM9.50006 16C11.4331 16 13.0001 14.433 13.0001 12.5C13.0001 10.5671 11.4331 9.00005 9.50006 9.00005C7.56706 9.00005 6.00006 10.5671 6.00006 12.5C6.00006 14.433 7.56706 16 9.50006 16ZM2.93147 5.14834L5.61586 7.51284L2.25723 8.6615L2.93147 5.14834ZM0.467736 10.0272C0.391628 10.4238 0.772319 10.7546 1.15439 10.624L7.68948 8.38895C8.07155 8.25828 8.16992 7.76362 7.86691 7.49672L2.64374 2.89597C2.33838 2.627 1.85636 2.79185 1.77966 3.19148L0.467736 10.0272Z" fill="currentColor"/></g><defs><clipPath id="clip0_53_140708"><rect width="16" height="16" fill="white"/></clipPath></defs>
    </symbol>
  </defs>
</svg>