
<svg width="16" height="16" viewBox="0 0 16 16" fill="none" xmlns="http://www.w3.org/2000/svg">
  <defs>
    <symbol id='lambda' viewBox="0 0 16 16">
      <g clip-path="url(#clip0_53_380727)"><path fill-rule="evenodd" clip-rule="evenodd" d="M0 2.25C0 1.00736 1.00736 0 2.25 0H13.75C14.9926 0 16 1.00736 16 2.25V13.75C16 14.9926 14.9926 16 13.75 16H2.25C1.00736 16 0 14.9926 0 13.75V2.25ZM2.25 1.5C1.83579 1.5 1.5 1.83579 1.5 2.25V13.75C1.5 14.1642 1.83579 14.5 2.25 14.5H13.75C14.1642 14.5 14.5 14.1642 14.5 13.75V2.25C14.5 1.83579 14.1642 1.5 13.75 1.5H2.25ZM5.75593 3.5H5.00593V5H5.75593C6.4534 5 7.06637 5.46236 7.25798 6.133L7.47143 6.88007L7.32917 7.16459L4.91148 12H6.58853L8.08127 9.0145L8.36677 10.0138C8.70268 11.1894 9.77726 12 11 12H11.75V10.5H11C10.447 10.5 9.96098 10.1334 9.80906 9.60168L8.70027 5.72091C8.32467 4.40633 7.12312 3.5 5.75593 3.5Z" fill="currentColor"/></g><defs><clipPath id="clip0_53_380727"><rect width="16" height="16" fill="white"/></clipPath></defs>
    </symbol>
  </defs>
</svg>