
<svg width="16" height="16" viewBox="0 0 16 16" fill="none" xmlns="http://www.w3.org/2000/svg">
  <defs>
    <symbol id='languages' viewBox="0 0 16 16">
      <path fill-rule="evenodd" clip-rule="evenodd" d="M5.75 1.50006H5V0.75V0H3.5V0.75V1.50006H2.75V1.5H1.25V1.50006H3.09348e-05V3.00006H1.31557C1.5071 4.16857 2.10801 5.56965 2.98421 6.74968C3.05528 6.84539 3.12876 6.94043 3.20461 7.03447C2.4742 7.63338 1.64149 8 0.75 8H0V9.5H0.75C2.11564 9.5 3.29557 8.92605 4.25 8.11443C5.20443 8.92605 6.38436 9.5 7.75 9.5H8.5V8H7.75C6.85851 8 6.0258 7.63338 5.29539 7.03447C5.37124 6.94043 5.44472 6.84539 5.51579 6.74968C6.39199 5.56965 6.9929 4.16857 7.18443 3.00006H8.50003V1.50006H7.25V1.5H5.75V1.50006ZM5.65766 3.00006H2.84234C3.02616 3.83833 3.48203 4.90399 4.18852 5.85546C4.20887 5.88286 4.22936 5.91009 4.25 5.93714C4.27064 5.91009 4.29113 5.88286 4.31148 5.85546C5.01797 4.90399 5.47384 3.83833 5.65766 3.00006ZM9.16247 15.9994L9.99247 14.0002H10.3589H13.5125L14.3381 15.9994H15.961L15.8431 15.7139L12.4522 7.503L11.0663 7.50171L7.65738 15.7126L7.53833 15.9994H9.16247ZM12.893 12.5002H10.6152L11.7571 9.74969L12.893 12.5002Z" fill="currentColor"/>
    </symbol>
  </defs>
</svg>