
<svg width="16" height="16" viewBox="0 0 16 16" fill="none" xmlns="http://www.w3.org/2000/svg">
  <defs>
    <symbol id='layout-shift' viewBox="0 0 16 16">
      <g clip-path="url(#clip0_4769_1958728)"><path fill-rule="evenodd" clip-rule="evenodd" d="M2.24996 14.5H3L3 16L2.24996 16C1.00732 16 -3.59675e-05 14.9926 -3.60429e-05 13.75L-3.61174e-05 12.5L1.49996 12.5L1.49996 13.75C1.49996 14.1642 1.83575 14.5 2.24996 14.5ZM4 14.5L6 14.5V16L4 16L4 14.5ZM6 0H4L4 1.5L6 1.5V0ZM1.5 2.25007L1.5 3.50012H0L0 2.25007C0 1.00743 1.00736 7.24792e-05 2.25 7.24792e-05H3L3 1.50007H2.25C1.83579 1.50007 1.5 1.83586 1.5 2.25007ZM1.5 11.5L1.5 8.5H0L0 11.5H1.5ZM1.5 4.5L1.5 7.5H0L0 4.5H1.5ZM6.5 13.75C6.5 14.9926 7.50736 16 8.75 16L13.75 16C14.9927 16 16 14.9926 16 13.75L16 2.25C16 1.00736 14.9927 0 13.75 0H8.75C7.50736 0 6.5 1.00736 6.5 2.25L6.5 13.75ZM8.75 14.5C8.33579 14.5 8 14.1642 8 13.75L8 2.25C8 1.83579 8.33579 1.5 8.75 1.5L13.75 1.5C14.1642 1.5 14.5 1.83579 14.5 2.25L14.5 13.75C14.5 14.1642 14.1642 14.5 13.75 14.5L8.75 14.5Z" fill="currentColor"/></g><defs><clipPath id="clip0_4769_1958728"><rect width="16" height="16" fill="white"/></clipPath></defs>
    </symbol>
  </defs>
</svg>