
<svg width="16" height="16" viewBox="0 0 16 16" fill="none" xmlns="http://www.w3.org/2000/svg">
  <defs>
    <symbol id='layout-shift-unread' viewBox="0 0 16 16">
      <g clip-path="url(#clip0_4769_1975729)"><circle cx="13.5" cy="2.5" r="2.5" fill="var(--ds-blue-900)"/><path fill-rule="evenodd" clip-rule="evenodd" d="M3 14.5H2.24996C1.83575 14.5 1.49996 14.1642 1.49996 13.75L1.49996 12.5L-3.61174e-05 12.5L-3.60429e-05 13.75C-3.59675e-05 14.9926 1.00732 16 2.24996 16H3V14.5ZM6 14.5L4 14.5L4 16L6 16V14.5ZM4 0H6V1.5L4 1.5L4 0ZM1.5 3.50012V2.25007C1.5 1.83586 1.83579 1.50007 2.25 1.50007H3V7.24792e-05H2.25C1.00736 7.24792e-05 0 1.00743 0 2.25007L0 3.50012H1.5ZM1.5 8.5V11.5H0L0 8.5H1.5ZM1.5 7.5V4.5H0L0 7.5H1.5ZM8.75 16C7.50736 16 6.5 14.9926 6.5 13.75V2.25C6.5 1.00736 7.50736 0 8.75 0H10.3773C10.0287 0.434826 9.76912 0.944022 9.62602 1.5H8.75C8.33579 1.5 8 1.83579 8 2.25V13.75C8 14.1642 8.33579 14.5 8.75 14.5H13.75C14.1642 14.5 14.5 14.1642 14.5 13.75V6.37398C15.056 6.23087 15.5652 5.97124 16 5.62267V13.75C16 14.9926 14.9927 16 13.75 16L8.75 16Z" fill="currentColor"/></g><defs><clipPath id="clip0_4769_1975729"><rect width="16" height="16" fill="white"/></clipPath></defs>
    </symbol>
  </defs>
</svg>