
<svg width="16" height="16" viewBox="0 0 16 16" fill="none" xmlns="http://www.w3.org/2000/svg">
  <defs>
    <symbol id='lens' viewBox="0 0 16 16">
      <g clip-path="url(#clip0_53_305804)"><path fill-rule="evenodd" clip-rule="evenodd" d="M9.75301 14.2609C9.19533 14.4167 8.60739 14.5 8 14.5C5.49509 14.5 3.32112 13.0831 2.23587 11.007H9.75301V14.2609ZM11.007 13.7641C13.0831 12.6789 14.5 10.5049 14.5 8C14.5 7.39261 14.4167 6.80467 14.2609 6.24699H11.007V13.7641ZM13.7641 4.993H11.007H10.38H6.24699V1.73913C6.80467 1.58331 7.39261 1.5 8 1.5C10.5049 1.5 12.6789 2.91692 13.7641 4.993ZM4.993 2.23587C2.91692 3.32112 1.5 5.49509 1.5 8C1.5 8.60739 1.58331 9.19533 1.73913 9.75301H4.993V5.62V4.993V2.23587ZM16 8C16 12.4183 12.4183 16 8 16C3.58172 16 0 12.4183 0 8C0 3.58172 3.58172 0 8 0C12.4183 0 16 3.58172 16 8ZM6.24699 6.24699H9.753V9.753H6.24699V6.24699Z" fill="currentColor"/></g><defs><clipPath id="clip0_53_305804"><rect width="16" height="16" fill="white"/></clipPath></defs>
    </symbol>
  </defs>
</svg>