
<svg width="16" height="16" viewBox="0 0 16 16" fill="none" xmlns="http://www.w3.org/2000/svg">
  <defs>
    <symbol id='list-ordered' viewBox="0 0 16 16">
      <path fill-rule="evenodd" clip-rule="evenodd" d="M3.6225 0.872994C3.6225 0.681304 3.53419 0.500304 3.3831 0.382336C3.232 0.264368 3.03499 0.222589 2.84902 0.26908L1.84902 0.51908L1.24511 0.670059L1.54707 1.87789L2.15098 1.72691L2.3775 1.67028V3.75049H2H1.3775V4.99549H2H3H4H4.6225V3.75049H4H3.6225V0.872994ZM7.75 1.99999H7V3.49999H7.75H14.25H15V1.99999H14.25H7.75ZM7 6.99999H7.75H14.25H15V8.49999H14.25H7.75H7V6.99999ZM7 12H7.75H14.25H15V13.5H14.25H7.75H7V12ZM3.06804 11.2486C3.04536 11.2413 3.00818 11.2354 2.94549 11.2632L2.25283 11.5711L1.68399 11.8239L1.17834 10.6862L1.74719 10.4334L2.43985 10.1255C3.87191 9.48904 5.13017 11.2973 4.03567 12.4189L2.72725 13.7597H4.00001H4.62251V15.0047H4.00001H2.43655C1.44311 15.0047 0.939352 13.8093 1.63317 13.0983L3.14462 11.5494C3.19253 11.5003 3.1999 11.4634 3.20092 11.4396C3.20227 11.408 3.19218 11.3656 3.16328 11.324C3.13438 11.2825 3.09812 11.2583 3.06804 11.2486Z" fill="currentColor"/>
    </symbol>
  </defs>
</svg>