
<svg width="16" height="16" viewBox="0 0 16 16" fill="none" xmlns="http://www.w3.org/2000/svg">
  <defs>
    <symbol id='list-unordered' viewBox="0 0 16 16">
      <path fill-rule="evenodd" clip-rule="evenodd" d="M2.5 4C3.19036 4 3.75 3.44036 3.75 2.75C3.75 2.05964 3.19036 1.5 2.5 1.5C1.80964 1.5 1.25 2.05964 1.25 2.75C1.25 3.44036 1.80964 4 2.5 4ZM2.5 9C3.19036 9 3.75 8.44036 3.75 7.75C3.75 7.05964 3.19036 6.5 2.5 6.5C1.80964 6.5 1.25 7.05964 1.25 7.75C1.25 8.44036 1.80964 9 2.5 9ZM3.75 12.75C3.75 13.4404 3.19036 14 2.5 14C1.80964 14 1.25 13.4404 1.25 12.75C1.25 12.0596 1.80964 11.5 2.5 11.5C3.19036 11.5 3.75 12.0596 3.75 12.75ZM6.75 2H6V3.5H6.75H14.25H15V2H14.25H6.75ZM6.75 7H6V8.5H6.75H14.25H15V7H14.25H6.75ZM6.75 12H6V13.5H6.75H14.25H15V12H14.25H6.75Z" fill="currentColor"/>
    </symbol>
  </defs>
</svg>