
<svg width="16" height="16" viewBox="0 0 16 16" fill="none" xmlns="http://www.w3.org/2000/svg">
  <defs>
    <symbol id='loader-dots' viewBox="0 0 16 16">
      <mask id="mask0_318_105745" maskUnits="userSpaceOnUse" x="0" y="0" width="16" height="16"><rect width="16" height="16" fill="url(#paint0_linear_318_105744)"/></mask><g mask="url(#mask0_318_105745)"><path fill-rule="evenodd" clip-rule="evenodd" d="M2 10C3.10457 10 4 9.10457 4 8C4 6.89543 3.10457 6 2 6C0.895431 6 0 6.89543 0 8C0 9.10457 0.895431 10 2 10ZM10 8C10 9.10457 9.10457 10 8 10C6.89543 10 6 9.10457 6 8C6 6.89543 6.89543 6 8 6C9.10457 6 10 6.89543 10 8ZM16 8C16 9.10457 15.1046 10 14 10C12.8954 10 12 9.10457 12 8C12 6.89543 12.8954 6 14 6C15.1046 6 16 6.89543 16 8Z" fill="currentColor"/></g><defs><linearGradient id="paint0_linear_318_105744" x1="0" y1="8" x2="16" y2="8" gradientUnits="userSpaceOnUse"><stop/><stop offset="0.254143"/><stop offset="0.373737" stop-opacity="0.33"/><stop offset="1" stop-opacity="0.33"/></linearGradient></defs>
    </symbol>
  </defs>
</svg>