
<svg width="16" height="16" viewBox="0 0 16 16" fill="none" xmlns="http://www.w3.org/2000/svg">
  <defs>
    <symbol id='logo-y-combinator' viewBox="0 0 16 16">
      <path fill-rule="evenodd" clip-rule="evenodd" d="M0 0H16V16H0V0ZM4.71448 3.90198L7.46077 9.04662V12.4267H8.51704V9.10875L11.2882 3.90198H10.1201L8.47976 7.15776C8.39691 7.33174 8.31614 7.4995 8.23744 7.66104C8.15874 7.82259 8.08625 7.97378 8.01997 8.11462C7.99512 8.04834 7.96612 7.97585 7.93298 7.89715C7.89985 7.81845 7.86257 7.73768 7.82114 7.65483C7.81286 7.63826 7.80458 7.61962 7.79629 7.59891C7.78801 7.5782 7.77558 7.55542 7.75901 7.53056C7.73416 7.46429 7.70516 7.40008 7.67202 7.33795C7.63889 7.27582 7.60989 7.21576 7.58504 7.15776L5.96957 3.90198H4.71448Z" fill="currentColor"/>
    </symbol>
  </defs>
</svg>