
<svg width="16" height="16" viewBox="0 0 16 16" fill="none" xmlns="http://www.w3.org/2000/svg">
  <defs>
    <symbol id='logo-bigcommerce' viewBox="0 0 16 16">
      <g clip-path="url(#clip0_3910_18471037)"><path fill-rule="evenodd" clip-rule="evenodd" d="M9.84554 5.98848L15.8143 0.0351669C15.8908 -0.041403 16.0247 0.0160238 15.996 0.121307V15.8947C15.996 15.9521 15.9482 16 15.8908 16H0.136756C0.0124067 16 -0.0449852 15.8469 0.0411026 15.7607L6.59334 9.23313V13.7412C6.59334 13.7986 6.65073 13.856 6.71769 13.856H10.9456C12.4856 13.856 13.2795 12.9085 13.2795 11.7217C13.2795 10.8794 12.7917 10.1615 12.103 9.89355C11.9977 9.85526 11.9977 9.72127 12.0934 9.68298C12.6864 9.41499 13.2412 8.812 13.2412 7.98887C13.2412 6.9456 12.3421 5.98848 10.8212 5.98848H9.84554ZM8.42987 9.1087H10.4482C11.0221 9.1087 11.3856 8.79285 11.3856 8.28558C11.3856 7.80701 11.0221 7.46245 10.4482 7.46245H8.42987C8.36292 7.46245 8.30553 7.51988 8.30553 7.5773V8.99385C8.31509 9.06085 8.36292 9.1087 8.42987 9.1087ZM8.42987 12.3725H10.5151C11.156 12.3725 11.5386 12.0471 11.5386 11.4728C11.5386 10.9751 11.1751 10.5731 10.5151 10.5731H8.42987C8.36292 10.5731 8.30553 10.6305 8.30553 10.688V12.2481C8.31509 12.3247 8.36292 12.3725 8.42987 12.3725Z" fill="currentColor"/></g><defs><clipPath id="clip0_3910_18471037"><rect width="16" height="16" fill="currentColor"/></clipPath></defs>
    </symbol>
  </defs>
</svg>