
<svg width="16" height="16" viewBox="0 0 16 16" fill="none" xmlns="http://www.w3.org/2000/svg">
  <defs>
    <symbol id='logo-vite' viewBox="0 0 16 16">
      <g clip-path="url(#clip0_3908_2504956)"><path d="M15.5957 2.32291L8.41532 15.1627C8.26707 15.4278 7.88619 15.4294 7.73571 15.1656L0.41293 2.32415C0.248995 2.03666 0.494822 1.68845 0.820594 1.74667L8.00869 3.03151C8.05454 3.0397 8.10149 3.03962 8.14734 3.03127L15.1851 1.74852C15.5098 1.68934 15.7568 2.03486 15.5957 2.32291Z" fill="url(#paint0_linear_3908_2504957)"/><path d="M11.4327 0.0614461L6.11901 1.10265C6.03167 1.11976 5.96701 1.19377 5.96174 1.2826L5.63487 6.80313C5.62719 6.93316 5.7466 7.03407 5.87351 7.00481L7.35292 6.66338C7.49134 6.63146 7.61641 6.75337 7.58797 6.89257L7.14843 9.04488C7.11885 9.18974 7.25485 9.31361 7.39632 9.27064L8.31007 8.99302C8.45173 8.95002 8.58785 9.07423 8.55788 9.21921L7.85938 12.6C7.81567 12.8115 8.09696 12.9268 8.21427 12.7455L8.29263 12.6244L12.6225 3.9833C12.695 3.83862 12.57 3.67365 12.4111 3.70431L10.8883 3.99821C10.7452 4.0258 10.6234 3.89253 10.6638 3.75253L11.6577 0.307007C11.6982 0.166763 11.576 0.033379 11.4327 0.0614461Z" fill="url(#paint1_linear_3908_2504958)"/></g><defs><linearGradient id="paint0_linear_3908_2504957" x1="0.234138" y1="1.2878" x2="9.17072" y2="13.4244" gradientUnits="userSpaceOnUse"><stop stop-color="#565656"/><stop offset="1"/></linearGradient><linearGradient id="paint1_linear_3908_2504958" x1="7.59608" y1="0.34413" x2="9.21267" y2="11.4337" gradientUnits="userSpaceOnUse"><stop stop-color="#DFDFDF"/><stop offset="0.0833333" stop-color="#AFAFAF"/><stop offset="1" stop-color="#8B8B8B"/></linearGradient><clipPath id="clip0_3908_2504956"><rect width="16" height="16" fill="currentColor"/></clipPath></defs>
    </symbol>
  </defs>
</svg>