
<svg width="16" height="16" viewBox="0 0 16 16" fill="none" xmlns="http://www.w3.org/2000/svg">
  <path d="M8 0C12.4183 0 16 3.58175 16 8C16 12.4183 12.4183 16 8 16C3.58175 16 0 12.4183 0 8C0 3.58175 3.58175 0 8 0Z" fill="#E04E39"/><path fill-rule="evenodd" clip-rule="evenodd" d="M8.15823 3.01601C9.18898 2.99564 9.91735 3.27514 10.5441 4.16476C11.9109 7.55339 7.02573 9.30226 6.82985 9.37101L6.82373 9.37301C6.82373 9.37301 6.67623 10.2934 8.07723 10.258C9.80135 10.258 11.614 8.92164 12.3035 8.35676C12.3836 8.29089 12.4857 8.25771 12.5892 8.26385C12.6928 8.26999 12.7902 8.31501 12.862 8.38989L13.3782 8.92614C13.4508 9.00096 13.4922 9.10053 13.4942 9.20473C13.4962 9.30893 13.4585 9.41 13.3889 9.48751C12.9401 9.98714 11.8871 11.0129 10.3019 11.6755C10.3019 11.6755 7.65685 12.9003 5.87435 11.7405C4.81148 11.0493 4.5191 10.2216 4.40023 9.36076C4.40085 9.36076 3.10973 9.29526 2.2806 8.97151C1.45123 8.64751 2.28673 7.67014 2.28673 7.67014C2.28673 7.67014 2.54173 7.26601 3.02673 7.67014C3.5121 8.07364 4.41798 7.89164 4.41798 7.89164C4.49873 7.25426 4.63298 6.41314 5.02848 5.52539C5.85748 3.66476 7.1271 3.03601 8.15823 3.01601ZM8.76485 4.88039C8.21873 4.35414 6.64185 5.40564 6.58098 7.81164C6.58098 7.81164 7.04648 7.95339 8.07723 7.24539C9.10848 6.53776 9.31098 5.40564 8.76485 4.88039Z" fill="white"/>
</svg>