
<svg width="16" height="16" viewBox="0 0 16 16" fill="none" xmlns="http://www.w3.org/2000/svg">
  <path d="M8.72749 1.19201C8.95199 1.31788 9.1399 1.49921 9.27298 1.71839L15.8014 12.8097C15.9316 13.0294 16.0002 13.2796 16 13.5345C16.0008 13.7274 15.9631 13.9186 15.889 14.097C15.8149 14.2754 15.7059 14.4375 15.5682 14.5737C15.4306 14.71 15.2671 14.8179 15.0872 14.8911C14.9072 14.9642 14.7145 15.0012 14.52 15H12.9889C13.0081 14.5973 13.0081 14.1936 12.9889 13.7888H14.5136C14.5565 13.7897 14.5988 13.7794 14.6364 13.7588C14.6739 13.7383 14.7053 13.7083 14.7274 13.6718C14.7495 13.6354 14.7616 13.5938 14.7623 13.5512C14.763 13.5087 14.7523 13.4667 14.7315 13.4296C14.6129 13.3024 8.28315 2.34146 8.11337 2.24927C8.05723 2.21667 7.99039 2.20741 7.9274 2.22348C7.8644 2.23956 7.81036 2.27967 7.77702 2.3351L6.28106 4.87825C7.97205 5.9594 9.3475 7.46204 10.27 9.236C11.1924 11.01 11.6296 12.9931 11.5377 14.9873H7.59443C7.68544 13.6709 7.42899 12.3537 6.85038 11.1657C6.27177 9.9777 5.391 8.95997 4.295 8.21295L3.55503 9.48452C4.42348 10.1051 5.11571 10.9378 5.56468 11.9018C6.01365 12.8659 6.20414 13.9287 6.11769 14.9873H1.46325C1.20952 14.9858 0.960354 14.9201 0.739293 14.7965C0.571512 14.7025 0.424227 14.5764 0.305995 14.4254C0.187763 14.2744 0.100941 14.1016 0.0505719 13.917C0.000203104 13.7325 -0.012708 13.5398 0.0125887 13.3503C0.0378854 13.1607 0.100885 12.978 0.197929 12.8129L1.1301 11.2234C1.52269 11.3586 1.88735 11.5632 2.20642 11.8274L1.26464 13.4169C1.24593 13.4524 1.23643 13.492 1.23699 13.5321C1.23756 13.5722 1.24817 13.6115 1.26788 13.6465C1.28758 13.6815 1.31576 13.7111 1.34987 13.7326C1.38397 13.7542 1.42294 13.7669 1.46325 13.7697H4.86199C4.73546 12.9306 4.39837 12.1365 3.88171 11.4605C3.36506 10.7844 2.68543 10.2482 1.90531 9.90096L3.85614 6.55354C5.24383 7.22532 6.4307 8.24506 7.2993 9.51183C8.16791 10.7786 8.68813 12.2485 8.8085 13.7761H10.2884C10.1679 11.994 9.57963 10.2742 8.58219 8.78751C7.58475 7.30079 6.21278 6.09886 4.60252 5.30104L6.71031 1.71839C6.84339 1.49921 7.0313 1.31788 7.2558 1.19201C7.48031 1.06614 7.73379 1 7.99165 1C8.2495 1 8.50298 1.06614 8.72749 1.19201Z" fill="white"/>
</svg>