
<svg width="16" height="16" viewBox="0 0 16 16" fill="none" xmlns="http://www.w3.org/2000/svg">
  <defs>
    <symbol id='logo-hugo' viewBox="0 0 16 16">
      <path fill-rule="evenodd" clip-rule="evenodd" d="M7.88199 0H7.89345L7.90368 0.00012407H7.96219L7.97241 0.000537609H7.97365L7.98387 0.000951148H7.98499L7.99534 0.00136465H7.99617L8.00651 0.00177819H8.00775L8.01768 0.00219173H8.01893L8.02886 0.00260527H8.02969L8.04003 0.00301877H8.04127L8.05162 0.00384584H8.05286L8.06279 0.00467288H8.06362L8.07355 0.00549996H8.07479L8.08514 0.00632704H8.08597L8.0959 0.00715408H8.09714L8.10748 0.00798116H8.10873L8.11907 0.00880819H8.12031L8.13066 0.00963527H8.1319L8.14183 0.0104623H8.14307L8.15301 0.0112894H8.15425L8.16459 0.0121164H8.16583L8.17618 0.013357H8.17742L8.18777 0.0145976H8.18859L8.19853 0.0158382H8.19977L8.2097 0.0170788H8.21094L8.22129 0.0183194H8.22253L8.23287 0.01956H8.2337L8.24363 0.0208006H8.24487L8.25522 0.0220411H8.25646L8.26639 0.0236953L8.26764 0.0241088L8.27798 0.0257629H8.27922L8.28915 0.027417H8.28998L8.30033 0.0290711H8.30157L8.3115 0.0307253H8.31274L8.32267 0.0323794H8.3235L8.33385 0.0340335H8.33509L8.34502 0.0356876L8.34626 0.0361011L8.35619 0.0377553L8.35744 0.0381688L8.36737 0.0402365H8.36861L8.37854 0.0418906H8.37978L8.38971 0.0439582H8.39096L8.4013 0.0460258H8.40213L8.41206 0.0480935H8.4133L8.42323 0.0501612H8.42406L8.43441 0.0522288L8.43565 0.0526424L8.44599 0.05471H8.44682L8.45675 0.0571912L8.458 0.0576047L8.46793 0.0600859H8.46917L8.47951 0.0625671L8.48034 0.0629806L8.49027 0.0650482L8.49152 0.0654618L8.50145 0.0675294L8.50227 0.067943L8.51221 0.0704241H8.51345L8.52338 0.0729053L8.52462 0.0733188L8.53455 0.0758L8.53538 0.0762135L8.54573 0.0786947L8.54655 0.0791082L8.55649 0.0815894L8.55773 0.082003L8.56766 0.0844841H8.56849L8.57842 0.0873788H8.57966L8.59001 0.08986L8.59125 0.0902736L8.60118 0.0927547H8.60242L8.61235 0.0956495L8.61359 0.096063L8.62353 0.0989577L8.62477 0.0993712L8.6347 0.102266L8.63594 0.102679L8.64587 0.105574L8.6467 0.105988L8.65663 0.108882L8.65787 0.109296L8.66781 0.112191L8.66905 0.112604L8.67898 0.115499L8.68022 0.115912L8.69015 0.119221L8.69098 0.119634L8.70091 0.122942H8.70215L8.71208 0.126251H8.71333L8.72326 0.129559L8.7245 0.129972L8.73443 0.133281L8.73567 0.133694L8.7456 0.137002L8.74643 0.137416L8.75636 0.140724L8.75761 0.141138L8.76754 0.144446L8.76836 0.14486L8.7783 0.148168L8.77913 0.148581L8.78864 0.15189L8.78988 0.152303L8.7994 0.155611L8.80064 0.156025L8.81016 0.159747L8.8114 0.16016L8.82133 0.163882L8.82258 0.164295L8.83209 0.168017L8.83292 0.168431L8.84285 0.171739L8.84368 0.172152L8.85361 0.175874L8.85485 0.176288L8.86479 0.180009L8.86603 0.180423L8.87555 0.184145L8.87679 0.184558L8.88631 0.188694L8.88713 0.189107L8.89707 0.192829L8.89831 0.193242L8.90783 0.197378L8.90907 0.197791L8.919 0.201927L8.92024 0.20234L8.93017 0.206475L8.931 0.206889L8.94093 0.211024L8.94176 0.211438L8.95128 0.215573L8.9521 0.215987L8.96162 0.220122L8.96245 0.220535L8.97238 0.224671L8.97321 0.225084L8.98273 0.22922L8.98397 0.229633L8.99349 0.233768L8.99473 0.234182L9.00425 0.238317L9.00507 0.238731L9.01459 0.24328L9.01583 0.243693L9.02535 0.248242L9.02659 0.248655L9.03611 0.253204L9.03694 0.253618L9.04646 0.258167L9.04728 0.25858L9.0568 0.263129L9.05804 0.263542L9.06756 0.268091L9.0688 0.268505L9.07832 0.273054L9.07956 0.273467L9.08908 0.278016L9.08991 0.27843L9.09943 0.283392L9.10025 0.284219L9.10977 0.288768L9.1106 0.289181L9.1197 0.294144L9.12094 0.294557L9.13046 0.299106L9.13129 0.29952L9.14081 0.304482L9.14205 0.304895L9.15115 0.309858L9.1524 0.310685L9.16191 0.315647L9.16316 0.316061L9.17267 0.321023L9.1735 0.321437L9.18261 0.326399L9.18385 0.327226L9.19337 0.332188L9.19419 0.333015L9.2033 0.338391L9.20412 0.339218L9.21323 0.344594L9.21447 0.345008L9.22357 0.350384L9.2244 0.350797L9.23351 0.356173L9.23433 0.357L9.24344 0.362376L9.24468 0.363203L9.25337 0.368579H9.2542L13.9429 3.12145L13.9507 3.12599L13.9515 3.12682L13.9594 3.13137L13.9606 3.13178L13.9681 3.13675L13.9689 3.13757L13.9764 3.14212L13.9772 3.14295L13.9846 3.1475L13.9855 3.14791L13.9929 3.15246L13.9938 3.15287L14.0012 3.15742L14.002 3.15784L14.0095 3.16239L14.0107 3.1628L14.0182 3.16776L14.019 3.16818L14.0264 3.17314L14.0277 3.17355L14.0351 3.1781L14.036 3.17851L14.0434 3.18348L14.0442 3.1843L14.0517 3.18927L14.0525 3.19009L14.0596 3.19464L14.0608 3.19505L14.0682 3.20002L14.0691 3.20043L14.0765 3.20539L14.0773 3.20581L14.0844 3.21077L14.0852 3.21118L14.0922 3.21614L14.0931 3.21656L14.1001 3.22152L14.1009 3.22235L14.108 3.22731L14.1088 3.22772L14.1158 3.2331L14.1171 3.23393L14.1241 3.23889L14.1249 3.2393L14.132 3.24426L14.1328 3.24468L14.1398 3.24964L14.1407 3.25047L14.1477 3.25543L14.1485 3.25584L14.1556 3.26081L14.1564 3.26163L14.1634 3.2666L14.1642 3.26742L14.1713 3.2728L14.1725 3.27362L14.1791 3.279L14.1804 3.27983L14.1874 3.2852L14.1887 3.28562L14.1957 3.29099L14.1965 3.29182L14.2036 3.2972L14.2044 3.29802L14.211 3.3034L14.2123 3.30423L14.2193 3.31002L14.2205 3.31126L14.2338 3.32201L14.2354 3.32325L14.2487 3.33441L14.2503 3.33565L14.264 3.34682L14.2656 3.34806L14.2793 3.35923L14.2809 3.36047L14.2942 3.37163L14.2958 3.37329L14.3091 3.38445L14.3107 3.38569L14.3236 3.39727L14.3252 3.39851L14.3381 3.41009L14.3397 3.41133L14.3525 3.42332L14.3542 3.42456L14.3666 3.43614L14.3683 3.43738L14.3811 3.44938L14.3827 3.45103L14.3952 3.46302L14.3968 3.46468L14.4092 3.47667L14.4109 3.47832L14.4229 3.49031L14.4245 3.49197L14.4365 3.50437L14.4382 3.50603L14.4502 3.51843L14.4514 3.52009L14.4634 3.53249L14.4651 3.53415L14.4767 3.54655L14.4783 3.54821L14.4899 3.56061L14.4916 3.56227L14.5032 3.57467L14.5048 3.57633L14.5164 3.58915L14.5181 3.5908L14.5292 3.60404L14.5305 3.60569L14.5421 3.61851L14.5437 3.62016L14.5549 3.6334L14.5566 3.63505L14.5677 3.64828L14.569 3.64994L14.5801 3.66317L14.5818 3.66482L14.5926 3.67806L14.5938 3.67971L14.6046 3.69294L14.6062 3.6946L14.617 3.70824L14.6182 3.7099L14.6286 3.72355L14.6298 3.7252L14.6401 3.73885L14.6414 3.7405L14.6517 3.75415L14.653 3.75621L14.6633 3.77027L14.6646 3.77193L14.6749 3.78557L14.6762 3.78764L14.6861 3.8017L14.6873 3.80336L14.6973 3.81742L14.6985 3.81907L14.7084 3.83313L14.7097 3.8352L14.7192 3.84926L14.7204 3.85133L14.7299 3.8658L14.7312 3.86787L14.7403 3.88193L14.7415 3.88358L14.7506 3.89764L14.7519 3.8993L14.7614 3.91377L14.7626 3.91542L14.7717 3.9299L14.773 3.93196L14.7817 3.94644L14.7829 3.94851L14.792 3.96298L14.7933 3.96505L14.802 3.97952L14.8032 3.98159L14.8119 3.99647L14.8131 3.99813L14.8214 4.01302L14.8226 4.01508L14.8309 4.02997L14.8322 4.03204L14.8404 4.04693L14.8417 4.04899L14.85 4.06388L14.8508 4.06595L14.8591 4.08125L14.8599 4.08332L14.8678 4.09862L14.8686 4.10068L14.8764 4.11598L14.8777 4.11764L14.8851 4.13335L14.886 4.13542L14.8938 4.15072L14.8947 4.15279L14.9021 4.16809L14.9033 4.17016L14.9104 4.18587L14.9112 4.18794L14.9182 4.20365L14.9191 4.20572L14.9261 4.22144L14.9269 4.2235L14.934 4.23922L14.9348 4.24128L14.9414 4.257L14.9422 4.25907L14.9489 4.27478L14.9497 4.27685L14.9559 4.29298L14.9567 4.29504L14.9629 4.31076L14.9638 4.31283L14.97 4.32895L14.9708 4.33102L14.977 4.34715L14.9778 4.34922L14.984 4.36534L14.9849 4.36741L14.9907 4.38354L14.9915 4.38561L14.9969 4.40173L14.9977 4.4038L15.0031 4.41993L15.0039 4.422L15.0093 4.43812L15.0101 4.44019L15.0155 4.45673L15.0159 4.4588L15.0209 4.47493L15.0217 4.477L15.0267 4.49354L15.0271 4.49561L15.032 4.51215L15.0329 4.51421L15.0378 4.53076L15.0387 4.53282L15.0432 4.54936L15.044 4.55143L15.0486 4.56797L15.049 4.57004L15.0531 4.58658L15.054 4.58906L15.0585 4.60602L15.0589 4.60809L15.0631 4.62504L15.0639 4.62711L15.0676 4.64406L15.0685 4.64613L15.0726 4.66308L15.073 4.66557L15.0767 4.68252L15.0771 4.68459L15.0809 4.70154L15.0813 4.70361L15.0846 4.72057L15.085 4.72263L15.0883 4.73959L15.0887 4.74166L15.092 4.75861L15.0925 4.76068L15.0954 4.77805L15.0958 4.78011L15.0987 4.79707L15.0991 4.79955L15.102 4.81692L15.1024 4.8194L15.1049 4.83677L15.1053 4.83925L15.1078 4.8562V4.85786L15.109 4.86695V4.86778L15.1098 4.87647V4.87771L15.1111 4.88639V4.88722L15.1123 4.8959V4.89714L15.1136 4.90583L15.114 4.90707L15.1152 4.91575V4.91699L15.116 4.92568L15.1165 4.9265L15.1173 4.93519L15.1177 4.93643L15.1185 4.94511V4.94635L15.1194 4.95504L15.1198 4.95628L15.1206 4.96496L15.121 4.9662L15.1218 4.97489V4.97613L15.1227 4.98481V4.98605L15.1235 4.99474V4.99598L15.1243 5.00466V5.0059L15.1252 5.01458V5.01583L15.1256 5.02451V5.02575L15.126 5.03485V5.03609L15.1268 5.04519V5.04601L15.1272 5.0547V5.05594L15.1276 5.06462V5.06586L15.128 5.07455V5.07579L15.1285 5.08447V5.08571L15.1289 5.09481V5.09605L15.1293 5.10473V5.10598L15.1297 5.11466V5.11549L15.1301 5.12417V10.897L15.1297 10.9066V10.9185L15.1293 10.9281V10.9293L15.1289 10.9384V10.9392L15.1285 10.9487V10.95L15.128 10.9591V10.9599L15.1276 10.969V10.9702L15.1272 10.9793L15.1268 10.9806L15.1264 10.9897V10.9909L15.126 11V11.0008L15.1256 11.0104V11.0116L15.1247 11.0211V11.0219L15.1239 11.0314V11.0327L15.1231 11.0418V11.043L15.1227 11.0521V11.0534L15.1218 11.0625V11.0637L15.121 11.0728V11.074L15.1202 11.0831V11.0844L15.1194 11.0935L15.1189 11.0943L15.1181 11.1038L15.1177 11.1051L15.1169 11.1141V11.1154L15.116 11.1245L15.1156 11.1257L15.1144 11.1348V11.1361L15.1132 11.1452V11.146L15.1119 11.1551V11.1563L15.1107 11.1654L15.1103 11.1667L15.109 11.1762L15.1086 11.1774L15.1074 11.1865L15.1069 11.1878L15.1057 11.1969V11.1981L15.1045 11.2072V11.2084L15.1032 11.2175L15.1028 11.2188L15.1016 11.2279L15.1012 11.2291L15.0995 11.2382V11.239L15.0983 11.2481V11.249L15.0966 11.2581L15.0962 11.2593L15.0949 11.2684L15.0945 11.2696L15.0933 11.2787V11.2796L15.0916 11.2887V11.2895L15.09 11.2986V11.2994L15.0883 11.3085V11.3097L15.0867 11.3184L15.0863 11.3197L15.0846 11.3284L15.0842 11.3296L15.0825 11.3387L15.0821 11.3399L15.08 11.349V11.3499L15.078 11.359V11.3598L15.0763 11.3685V11.3697L15.0743 11.3788V11.3796L15.0726 11.3887L15.0722 11.3896L15.0701 11.3982V11.3991L15.068 11.4078V11.409L15.066 11.4177L15.0656 11.4189L15.0635 11.4276L15.0631 11.4288L15.061 11.4375L15.0606 11.4384L15.0585 11.447L15.0581 11.4479L15.056 11.4566L15.0556 11.4578L15.0531 11.4665L15.0527 11.4677L15.0507 11.4764L15.0503 11.4776L15.0478 11.4863V11.4876L15.0453 11.4967L15.0449 11.4979L15.0424 11.5066V11.5078L15.0399 11.5165L15.0395 11.5178L15.037 11.5264L15.0366 11.5277L15.0341 11.5368L15.0337 11.5376L15.0312 11.5463L15.0308 11.5471L15.0283 11.5558L15.0279 11.557L15.025 11.5657L15.0246 11.567L15.0221 11.5756L15.0217 11.5765L15.0192 11.5852L15.0188 11.5864L15.0163 11.5951L15.0159 11.5959L15.013 11.6046L15.0126 11.6058L15.0097 11.6145L15.0093 11.6158L15.0064 11.6244L15.006 11.6257L15.0031 11.6344L15.0027 11.6356L14.9998 11.6443L14.9993 11.6451L14.9965 11.6538L14.996 11.655L14.9931 11.6637L14.9927 11.665L14.9898 11.6737L14.9894 11.6745L14.9865 11.6832L14.9861 11.6844L14.9832 11.6931L14.9828 11.6943L14.9795 11.7026L14.9791 11.7038L14.9762 11.7121L14.9758 11.7134L14.9729 11.7216L14.9725 11.7229L14.9696 11.7315L14.9691 11.7328L14.9658 11.7415L14.9654 11.7427L14.9621 11.751L14.9617 11.7522L14.9584 11.7605L14.958 11.7617L14.9547 11.77L14.9542 11.7712L14.9509 11.7795L14.9505 11.7808L14.9472 11.789L14.9468 11.7903L14.9435 11.7985L14.9431 11.7994L14.9393 11.8076L14.9389 11.8089L14.9352 11.8176L14.9348 11.8188L14.9315 11.8271L14.9311 11.8283L14.9273 11.8366L14.9269 11.8378L14.9232 11.8461L14.9228 11.8473L14.9191 11.8556L14.9187 11.8564L14.9149 11.8647L14.9145 11.8659L14.9108 11.8742L14.9104 11.875L14.9067 11.8833L14.9062 11.8841L14.9025 11.8924L14.9021 11.8932L14.8984 11.9015L14.898 11.9023L14.8938 11.9106L14.8934 11.9114L14.8893 11.9193L14.8889 11.9205L14.8851 11.9288L14.8847 11.9296L14.8806 11.9375L14.8802 11.9387L14.8764 11.947L14.876 11.9478L14.8719 11.9561L14.8715 11.9573L14.8673 11.9656L14.8669 11.9664L14.8628 11.9743L14.8624 11.9751L14.8582 11.9834L14.8578 11.9846L14.8537 11.9929L14.8533 11.9941L14.8491 12.0024L14.8483 12.0037L14.8442 12.0115L14.8438 12.0123L14.8396 12.0206L14.8392 12.0218L14.8351 12.0301L14.8346 12.0314L14.8301 12.0392L14.8293 12.04L14.8247 12.0479L14.8243 12.0487L14.8197 12.0566L14.8193 12.0574L14.8148 12.0653L14.8144 12.0661L14.8098 12.074L14.8094 12.0748L14.8049 12.0826L14.8044 12.0839L14.7999 12.0917L14.7995 12.0926L14.7949 12.1004L14.7945 12.1017L14.79 12.1095L14.7891 12.1103L14.7846 12.1182L14.7837 12.119L14.7792 12.1269L14.7788 12.1277L14.7742 12.1356L14.7738 12.1368L14.7688 12.1447L14.7684 12.1455L14.7639 12.1529L14.7635 12.1542L14.7589 12.1616L14.7581 12.1624L14.7531 12.1703L14.7527 12.1715L14.7477 12.179L14.7469 12.1798L14.7419 12.1873L14.7415 12.1881L14.7366 12.1959L14.7357 12.1972L14.7308 12.2046L14.7299 12.2055L14.725 12.2129L14.7246 12.2137L14.7196 12.2216L14.7192 12.2224L14.7142 12.2299L14.7134 12.2307L14.708 12.2381L14.7076 12.2389L14.7026 12.2464L14.7022 12.2472L14.6968 12.2547L14.6964 12.2555L14.6915 12.2629L14.6906 12.2638L14.6857 12.2712L14.6848 12.272L14.6795 12.2795L14.6786 12.2803L14.6737 12.2877L14.6733 12.2886L14.6679 12.296L14.667 12.2973L14.6621 12.3047L14.6613 12.3055L14.6559 12.313L14.655 12.3138L14.6497 12.3212L14.6488 12.3221L14.6435 12.3295L14.6426 12.3303L14.6373 12.3378L14.6368 12.3386L14.6315 12.3456L14.6306 12.3465L14.6252 12.3535L14.6248 12.3543L14.619 12.3614L14.6182 12.3622L14.6128 12.3692L14.6124 12.37L14.607 12.3775L14.6062 12.3783L14.6004 12.3858L14.5996 12.3866L14.5938 12.3936L14.593 12.3944L14.5872 12.4015L14.5868 12.4023L14.581 12.4093L14.5801 12.4102L14.5744 12.4172L14.5735 12.418L14.5677 12.425L14.5669 12.4259L14.5611 12.4329L14.5603 12.4337L14.5545 12.4408L14.5541 12.4416L14.5483 12.4486L14.5475 12.4494L14.5412 12.4565L14.5404 12.4573L14.5346 12.4643L14.5338 12.4652L14.528 12.4722L14.5272 12.473L14.5214 12.48L14.5206 12.4809L14.5148 12.4879L14.5139 12.4887L14.5081 12.4953L14.5073 12.4962L14.5011 12.5032L14.5003 12.504L14.4945 12.5111L14.4937 12.5119L14.4874 12.5189L14.4866 12.5197L14.4808 12.5268L14.48 12.5276L14.4738 12.5342L14.473 12.535L14.4668 12.5417L14.4659 12.5425L14.4597 12.5491L14.4589 12.5499L14.4527 12.5565L14.4519 12.5574L14.4457 12.564L14.4448 12.5648L14.4386 12.5714L14.4378 12.5723L14.4316 12.5789L14.4308 12.5797L14.4245 12.5863L14.4237 12.5871L14.4171 12.5938L14.4163 12.5946L14.4101 12.6012L14.4092 12.602L14.403 12.6082L14.4022 12.6091L14.3956 12.6157L14.3943 12.6165L14.3877 12.6231L14.3869 12.6239L14.3803 12.6301L14.3794 12.631L14.3728 12.6376L14.372 12.6384L14.3654 12.6446L14.3645 12.6454L14.3579 12.6517L14.3571 12.6525L14.3505 12.6587L14.3496 12.6595L14.343 12.6657L14.3422 12.6665L14.3356 12.6727L14.3347 12.6736L14.3281 12.6798L14.3273 12.6806L14.3203 12.6868L14.3194 12.6872L14.3128 12.6934L14.312 12.6942L14.3049 12.7004L14.3041 12.7013L14.2971 12.7075L14.2963 12.7079L14.2892 12.7141L14.2884 12.7149L14.2814 12.7207L14.2801 12.7215L14.2731 12.7273L14.2723 12.7282L14.2652 12.7344L14.2644 12.7352L14.2574 12.7414L14.2565 12.7422L14.2495 12.7484L14.2487 12.7492L14.2416 12.755L14.2408 12.7559L14.2334 12.7617L14.2325 12.7621L14.2255 12.7679L14.2247 12.7687L14.2176 12.7745L14.2164 12.7753L14.2094 12.7811L14.2085 12.7819L14.2015 12.7877L14.2007 12.7885L14.1936 12.7943L14.1928 12.7951L14.1854 12.8009L14.1845 12.8018L14.1775 12.8071L14.1767 12.808L14.1692 12.8138L14.1684 12.8146L14.1609 12.8204L14.1601 12.8212L14.1527 12.827L14.1518 12.8278L14.1444 12.8336L14.1436 12.834L14.1361 12.8394L14.1353 12.8398L14.1278 12.8452L14.127 12.8456L14.1196 12.851L14.1183 12.8514L14.1109 12.8568L14.11 12.8576L14.1026 12.863L14.1018 12.8638L14.0943 12.8692L14.0935 12.87L14.086 12.8754L14.0848 12.8762L14.0773 12.8816L14.0765 12.882L14.0687 12.8874L14.0674 12.8878L14.0596 12.8932L14.0587 12.894L14.0509 12.8994L14.05 12.9002L14.0422 12.9051L14.0413 12.906L14.0335 12.9113L14.0327 12.9122L14.0252 12.9176L14.024 12.9184L14.0161 12.9233L14.0153 12.9238L14.0074 12.9287L14.0062 12.9291L13.9983 12.9341L13.9975 12.9349L13.9896 12.9399L13.9888 12.9407L13.9809 12.9457L13.9801 12.9461L13.9722 12.951L13.971 12.9515L13.9631 12.9564L13.9623 12.9573L13.9544 12.9622L13.9532 12.9626L13.9453 12.9676L13.9441 12.9684L13.9362 12.9734L13.935 12.9742L13.9267 12.9792L13.9259 12.98L13.918 12.9845L13.9168 12.985L13.9089 12.9895L13.9081 12.9903L13.8998 12.9953L13.8986 12.9961L13.8903 13.0007L13.8895 13.0015L13.8816 13.006L13.8804 13.0065L13.8721 13.011L13.8708 13.0114L13.8626 13.016L13.8617 13.0164L13.8539 13.0209L13.8535 13.0213L9.05597 15.6927H9.05556L9.04811 15.6973L9.04687 15.6977L9.03901 15.7023L9.03777 15.7031L9.0299 15.7072L9.02866 15.7076L9.0208 15.7118L9.01997 15.7122L9.01211 15.7163L9.01087 15.7167L9.00301 15.7209L9.00176 15.7213L8.9939 15.7254L8.99266 15.7258L8.9848 15.73L8.98397 15.7304L8.97611 15.7345L8.97528 15.7349L8.96742 15.7387L8.96659 15.7391L8.95831 15.7432L8.95748 15.744L8.94962 15.7482L8.94879 15.7486L8.94093 15.7523L8.9401 15.7527L8.93224 15.7564L8.93141 15.7568L8.92355 15.761L8.92272 15.7614L8.91445 15.7651L8.91362 15.7655L8.90576 15.7693L8.90493 15.7697L8.89665 15.7734L8.89582 15.7738L8.88796 15.7775L8.88713 15.7779L8.87927 15.7817L8.87803 15.7825L8.86975 15.7862L8.86893 15.7866L8.86065 15.7899L8.85982 15.7903L8.85154 15.7941L8.85072 15.7949L8.84244 15.7986L8.8412 15.799L8.83334 15.8023L8.83251 15.8027L8.82423 15.8065L8.8234 15.8069L8.81513 15.8102L8.8143 15.8106L8.80602 15.8139L8.8052 15.8143L8.79692 15.8176L8.79568 15.818L8.7874 15.8214L8.78616 15.8218L8.77788 15.8251L8.77664 15.8255L8.76878 15.8288L8.76795 15.8292L8.75968 15.8321L8.75885 15.8325L8.75057 15.8358L8.74933 15.8362L8.74105 15.8396L8.73981 15.84L8.73153 15.8433L8.73029 15.8437L8.72202 15.8466L8.72078 15.847L8.7125 15.8503L8.71126 15.8507L8.70298 15.8536L8.70215 15.854L8.69388 15.8569L8.69264 15.8573L8.68436 15.8602L8.68312 15.8606L8.67484 15.8635L8.6736 15.864L8.66532 15.8668L8.66449 15.8673L8.65622 15.8702L8.64794 15.873L8.6467 15.8735L8.63801 15.8759L8.63677 15.8764L8.62849 15.8788L8.62766 15.8793L8.61939 15.8821L8.61856 15.8826L8.60987 15.885L8.60863 15.8855L8.60035 15.8879L8.59911 15.8883L8.59083 15.8908L8.58959 15.8912L8.5809 15.8941L8.57925 15.8946L8.56269 15.8995L8.56062 15.9003L8.54366 15.9053L8.54159 15.9057L8.52462 15.9107L8.52255 15.9111L8.50559 15.9156L8.50352 15.9165L8.48655 15.921L8.48448 15.9214L8.46751 15.926L8.46503 15.9264L8.44806 15.9305L8.44599 15.9309L8.42903 15.9351L8.42654 15.9355L8.40958 15.9396L8.40751 15.94L8.39054 15.9438L8.38847 15.9442L8.37109 15.9479L8.36861 15.9483L8.35123 15.952L8.34916 15.9524L8.33178 15.9558L8.32971 15.9562L8.31274 15.9591L8.31067 15.9595L8.29371 15.9628L8.29164 15.9632L8.27426 15.9661L8.27219 15.9665L8.25481 15.9694L8.25274 15.9698L8.23536 15.9723L8.23329 15.9727L8.21591 15.9752L8.21384 15.9756L8.19646 15.9781L8.19439 15.9785L8.17701 15.981L8.17452 15.9814L8.15714 15.9835L8.15508 15.9839L8.13769 15.9859L8.13562 15.9864L8.11824 15.9884L8.10086 15.9901H8.09879L8.08141 15.9913L8.07934 15.9917L8.06196 15.993H8.05989L8.04251 15.9942H8.04044L8.02306 15.9955L8.02058 15.9959L8.0032 15.9971H8.00113L7.98375 15.9979H7.98168L7.9643 15.9988H7.96182L7.94444 15.9992H7.94237L7.92499 15.9996H7.92292L7.90554 16H7.84429L7.82691 15.9996L7.80953 15.9992H7.80705L7.78967 15.9988H7.78929L7.77191 15.9979L7.76984 15.9975L7.75246 15.9967H7.75039L7.73301 15.9959L7.73094 15.9955L7.71356 15.9946H7.71149L7.69411 15.9934L7.69204 15.993L7.67466 15.9913L7.67218 15.9909L7.6548 15.9893L7.65232 15.9888L7.63494 15.9872L7.63287 15.9868L7.61549 15.9851H7.61342L7.59604 15.9835L7.59397 15.983L7.57659 15.981H7.5741L7.55672 15.9789L7.55424 15.9785L7.53686 15.976L7.53479 15.9756L7.51741 15.9731L7.51534 15.9727L7.49796 15.9702L7.49589 15.9698L7.47851 15.9673L7.47644 15.9669L7.45947 15.964H7.45823L7.44085 15.9607L7.43862 15.9603L7.42165 15.957L7.41958 15.9566L7.40261 15.9533L7.40055 15.9529L7.38358 15.9496L7.3811 15.9491L7.36388 15.9458L7.36181 15.9454L7.34484 15.9417L7.34236 15.9409L7.32539 15.9371L7.32333 15.9367L7.30636 15.9326L7.30404 15.9318L7.28707 15.9276L7.285 15.9268L7.26804 15.9223L7.26597 15.9218L7.249 15.9173L7.24693 15.9165L7.22997 15.9119L7.2279 15.9111L7.21093 15.9065L7.20886 15.9057L7.19189 15.9008L7.18941 15.8999L7.17244 15.895L7.17038 15.8941L7.15341 15.8892L7.15134 15.8883L7.13437 15.8834L7.1323 15.883L7.11583 15.8776L7.11418 15.8772L7.10549 15.8743H7.10437L7.09609 15.8718L7.09485 15.8714L7.08658 15.8685L7.08533 15.8681L7.07706 15.8652L7.07582 15.8648L7.06754 15.8619L7.0663 15.8615L7.05802 15.8586L7.05678 15.8582L7.0485 15.8553L7.04768 15.8549L7.0394 15.852L7.03857 15.8515L7.03029 15.8486L7.02947 15.8482L7.02119 15.8449L7.01995 15.8445L7.01167 15.8412L7.01043 15.8408L7.00215 15.8375L7.00133 15.8371L6.99305 15.8338L6.99181 15.8333L6.98353 15.83L6.98271 15.8296L6.97443 15.8263L6.97319 15.8259L6.96491 15.8226L6.96408 15.8222L6.95581 15.8189L6.95498 15.8185L6.9467 15.8152L6.94546 15.8147L6.93718 15.8114L6.93594 15.811L6.92767 15.8077L6.92642 15.8073L6.91815 15.804L6.91691 15.8036L6.90863 15.8003L6.9078 15.7999L6.89953 15.7961L6.89828 15.7957L6.89042 15.792L6.88959 15.7916L6.88132 15.7879L6.88049 15.7874L6.87221 15.7837L6.87139 15.7833L6.86311 15.78L6.86187 15.7796L6.854 15.7759L6.85276 15.7755L6.84449 15.7717L6.84325 15.7713L6.83538 15.7676L6.83455 15.7668L6.82669 15.7631L6.82586 15.7626L6.818 15.7589L6.81717 15.7585L6.8089 15.7548L6.80807 15.754L6.79979 15.7498L6.79897 15.749L6.7911 15.7453L6.78986 15.7449L6.78158 15.7411L6.78076 15.7403L6.77289 15.7362L6.77165 15.7358L6.76338 15.7316L6.76255 15.7312L6.75469 15.7271L6.75344 15.7267L6.74558 15.7225L6.74475 15.7221L6.73689 15.718L6.73565 15.7171L6.72779 15.713L6.72696 15.7126L6.7191 15.7085L6.71827 15.708L6.71041 15.7039L6.70917 15.7031L6.7013 15.699L6.70047 15.6985L6.69261 15.694L6.69137 15.6932L6.68351 15.689L6.68227 15.6886L6.6744 15.6845L6.67316 15.6841L6.6653 15.6799L6.66406 15.6795L6.6562 15.675L6.65495 15.6746L6.6475 15.67L6.64626 15.6696L6.63881 15.665L6.6384 15.6646L2.3015 13.1351L2.30109 13.1347L2.29198 13.1293L2.29116 13.1289L2.28205 13.1235L2.28081 13.1231L2.27129 13.1177L2.27005 13.1173L2.26095 13.1115L2.26012 13.1111L2.25101 13.1053L2.25019 13.1045L2.24108 13.0987L2.24025 13.0979L2.23115 13.0921L2.22991 13.0916L2.2208 13.0863L2.21956 13.0854L2.21046 13.0797L2.20963 13.0788L2.20053 13.073H2.20264L2.19353 13.0673L2.19229 13.0664L2.18319 13.0606L2.18236 13.0598L2.17326 13.054L2.1721 13.0532L2.16299 13.047L2.16175 13.0462L2.15265 13.04L2.15182 13.0391L2.14272 13.0333L2.14189 13.0325L2.13278 13.0263L2.13196 13.0255L2.12285 13.0193L2.12202 13.0185L2.11333 13.0122L2.11209 13.0114L2.1032 13.0052L2.10237 13.0044L2.09368 12.9982L2.09264 12.9974L2.08395 12.9912L2.08284 12.9903L2.07414 12.9841L2.07332 12.9837L2.06463 12.9775L2.0638 12.9767L2.05523 12.9705L2.05441 12.9697L2.04588 12.9635L2.04464 12.963L2.03595 12.9568L2.03512 12.956L2.02643 12.9494L2.0256 12.9486L2.01691 12.9424L2.01584 12.9415L2.00715 12.9349L2.00607 12.9341L1.99779 12.9275L1.99697 12.9267L1.98869 12.92L1.98786 12.9196L1.97959 12.913L1.97876 12.9122L1.97048 12.9056L1.96965 12.9047L1.96138 12.8981L1.96055 12.8973L1.95227 12.8907L1.95145 12.8898L1.94317 12.8832L1.94234 12.8824L1.93406 12.8758L1.93324 12.875L1.92496 12.8679L1.92413 12.8675L1.91586 12.8609L1.91503 12.8601L1.907 12.8535L1.90617 12.8526L1.8979 12.8456L1.89707 12.8448L1.88879 12.8382L1.88796 12.8373L1.87969 12.8303L1.87886 12.8299L1.87075 12.8233L1.86992 12.8224L1.86206 12.8158L1.86123 12.815L1.85337 12.808L1.85254 12.8071L1.84468 12.8001L1.84385 12.7993L1.83599 12.7923L1.83516 12.7914L1.8273 12.7844L1.82647 12.7836L1.81861 12.7765L1.81778 12.7757L1.80992 12.7683L1.80909 12.7679L1.80123 12.7608L1.79999 12.76L1.79233 12.7526L1.7915 12.7517L1.78364 12.7447L1.78281 12.7439L1.77511 12.7364L1.77429 12.7356L1.76684 12.7282L1.76601 12.7273L1.75856 12.7199L1.75773 12.7191L1.74987 12.7116L1.74904 12.7108L1.74118 12.7033L1.74035 12.7029L1.7329 12.6955L1.73208 12.6947L1.72463 12.6872L1.7238 12.6864L1.71635 12.6789L1.71552 12.6781L1.70807 12.6707L1.70725 12.6698L1.6998 12.6624L1.69897 12.6616L1.69152 12.6541L1.69069 12.6533L1.68366 12.6459L1.68283 12.645L1.67538 12.6376L1.67455 12.6368L1.66711 12.6289L1.66628 12.6281L1.65924 12.6202L1.65842 12.6194L1.65138 12.6115L1.65055 12.6107L1.6431 12.6029L1.64228 12.602L1.63524 12.5942L1.63441 12.5933L1.62738 12.5855L1.62655 12.5847L1.61952 12.5768L1.61869 12.576L1.61165 12.5681L1.61082 12.5673L1.60379 12.5594L1.60338 12.5586L1.59675 12.5508L1.59593 12.5499L1.58889 12.5421L1.58806 12.5412L1.58062 12.533L1.57979 12.5321L1.57275 12.5243L1.57193 12.5235L1.56489 12.5152L1.56406 12.5144L1.55744 12.5065L1.55703 12.5057L1.55041 12.4978L1.54958 12.497L1.54296 12.4887L1.54213 12.4879L1.53509 12.4796L1.53427 12.4788L1.52765 12.4709L1.52682 12.4701L1.51978 12.4623L1.51896 12.4614L1.51233 12.4536L1.51151 12.4527L1.50489 12.4445L1.50406 12.4436L1.49744 12.4354L1.49661 12.4345L1.48999 12.4263L1.48916 12.4255L1.48254 12.4172L1.48171 12.4164L1.47509 12.4081L1.47468 12.4073L1.46847 12.399L1.46764 12.3982L1.46143 12.3899L1.46102 12.3891L1.45481 12.3808L1.45398 12.38L1.44778 12.3713L1.44695 12.3705L1.44074 12.3622L1.43991 12.3614L1.43371 12.3531L1.43329 12.3523L1.42709 12.3436L1.42667 12.3427L1.42046 12.3341L1.42005 12.3332L1.41384 12.325L1.41343 12.3241L1.40722 12.3159L1.40639 12.315L1.40019 12.3064L1.39936 12.3055L1.39315 12.2968L1.39232 12.2956L1.38653 12.2869L1.3857 12.2861L1.37991 12.2774L1.37908 12.2766L1.37329 12.2679L1.37246 12.2671L1.36667 12.2584L1.36625 12.2576L1.36046 12.2489L1.35963 12.2476L1.35384 12.2389L1.35301 12.2381L1.34722 12.2294L1.34639 12.2286L1.3406 12.2199L1.33977 12.2191L1.33398 12.2104L1.33315 12.2096L1.32777 12.2009L1.32735 12.2001L1.32197 12.1914L1.32115 12.1902L1.31535 12.1815L1.31453 12.1802L1.30873 12.1715L1.30832 12.1707L1.30252 12.1616L1.30211 12.1604L1.29673 12.1517L1.2959 12.1509L1.29052 12.1422L1.2897 12.1414L1.28432 12.1323L1.28349 12.131L1.27811 12.1223L1.27769 12.1215L1.27232 12.1124L1.2719 12.1116L1.26652 12.1029L1.26569 12.1017L1.26031 12.0926L1.25949 12.0913L1.25411 12.0822L1.25328 12.081L1.24831 12.0719L1.24749 12.0711L1.24211 12.062L1.24169 12.0611L1.23673 12.052L1.23631 12.0512L1.23135 12.0421L1.23093 12.0409L1.22597 12.0318L1.22514 12.0305L1.22017 12.0214L1.21976 12.0202L1.21479 12.0107L1.21438 12.0099L1.20941 12.0008L1.209 11.9995L1.20403 11.9904L1.20362 11.9892L1.19865 11.9801L1.19824 11.9788L1.19369 11.9693L1.19327 11.9685L1.18831 11.959L1.18789 11.9577L1.18293 11.9482L1.1821 11.9474L1.17755 11.9379L1.17713 11.9371L1.17258 11.928L1.17217 11.9267L1.16762 11.9172V11.9176L1.16306 11.9081L1.16224 11.9069L1.15769 11.8974L1.15727 11.8961L1.15272 11.887L1.15231 11.8858L1.14775 11.8763L1.14734 11.8755L1.14279 11.8659L1.14237 11.8651L1.13824 11.8556L1.13782 11.8548L1.13327 11.8453L1.13286 11.8444L1.1283 11.8349L1.12789 11.8341L1.12334 11.8246L1.12292 11.8234L1.11879 11.8138L1.11837 11.813L1.11382 11.8035L1.11341 11.8023L1.10885 11.7928L1.10844 11.7919L1.1043 11.7824L1.10389 11.7816L1.09975 11.7721L1.09934 11.7708L1.0952 11.7613L1.09478 11.7605L1.09106 11.751L1.09065 11.7502L1.08651 11.7406L1.08609 11.7394L1.08237 11.7295L1.08195 11.7287L1.07782 11.7191L1.0774 11.7179L1.07368 11.7088L1.07326 11.7076L1.06913 11.6976L1.06871 11.6968L1.06499 11.6869L1.06457 11.6856L1.06085 11.6757L1.06044 11.6749L1.05671 11.665L1.0563 11.6637L1.05257 11.6538L1.05216 11.653L1.04843 11.6431L1.04802 11.6422L1.04471 11.6323L1.0443 11.6311L1.04057 11.6211L1.04016 11.6203L1.03685 11.6104L1.03643 11.6091L1.03312 11.5992L1.03271 11.598L1.02899 11.5881L1.02857 11.5868L1.02526 11.5769L1.02485 11.5761L1.02154 11.5661L1.02112 11.5653L1.01781 11.5554L1.0174 11.5541L1.01409 11.5442L1.01367 11.543L1.01036 11.5331L1.00995 11.5318L1.00664 11.5219L1.00622 11.5206L1.00291 11.5107L1.00254 11.5095L0.999645 11.4996L0.999231 11.4988L0.99592 11.4884L0.995507 11.4872L0.99261 11.4769L0.992196 11.4756L0.989299 11.4657L0.988885 11.4644L0.985989 11.4545L0.985575 11.4533L0.982678 11.4429L0.982264 11.4417L0.979367 11.4314L0.978954 11.4305L0.976057 11.4202L0.975643 11.4198L0.972746 11.4094L0.972332 11.4086L0.969849 11.3987L0.969436 11.3979L0.966953 11.3879V11.3871L0.964056 11.3768V11.3755L0.961573 11.3656L0.961159 11.3644L0.958676 11.3545L0.958262 11.3532L0.955779 11.3429H0.956193L0.95371 11.3325L0.953296 11.3317L0.950813 11.3214L0.950399 11.3205L0.947917 11.3102L0.947503 11.3094L0.94502 11.299L0.945434 11.2986L0.942951 11.2883L0.942537 11.287L0.940054 11.2767L0.93964 11.2755L0.937571 11.2651L0.937157 11.2639L0.934674 11.2535L0.93426 11.2527L0.932191 11.2424L0.931777 11.2411L0.929708 11.2308L0.929294 11.2296L0.927225 11.2192L0.925156 11.2089V11.2076L0.923087 11.1969V11.1957L0.921018 11.1853L0.920604 11.1841L0.918121 11.1742V11.1729L0.916052 11.1617L0.915638 11.1605L0.913569 11.1498L0.913155 11.1485L0.9115 11.1382L0.911086 11.1369L0.909431 11.1266V11.1254L0.907775 11.115V11.1138L0.90612 11.1034L0.905706 11.1022L0.904051 11.0919V11.0923L0.902396 11.0819V11.0811L0.90074 11.0708V11.0695L0.899085 11.0592V11.0579L0.89743 11.0476V11.0468L0.896188 11.036V11.0348L0.894947 11.0245V11.0236L0.893291 11.0129L0.892878 11.0116L0.891636 11.0013V11.0001L0.890395 10.9893L0.889981 10.9881L0.888739 10.9773V10.9761L0.887498 10.9653L0.887084 10.9641L0.885843 10.9533V10.9521L0.884601 10.9413L0.884187 10.9405L0.882946 10.9298L0.882118 10.919V10.9178L0.880877 10.907L0.880463 10.9058L0.879221 10.895V10.8938L0.878394 10.883L0.87798 10.8818L0.877152 10.871V10.8698L0.876325 10.859V10.8578L0.875497 10.847L0.874669 10.8363V10.8351L0.873842 10.8243V10.8231L0.873014 10.8123V10.799L0.8726 10.7882V10.787L0.872186 10.7762V10.775L0.871772 10.7642L0.871359 10.763L0.870945 10.7522V10.7406L0.870531 10.7299V10.7287L0.870117 10.7179V5.48262L0.870531 5.47228V5.45905L0.870945 5.4483V5.41025L0.871359 5.3995V5.39867L0.871772 5.38792V5.38668L0.872186 5.37593V5.37469L0.8726 5.36393V5.36311L0.873014 5.35236V5.35112L0.873428 5.34036V5.33912L0.874255 5.32796V5.32672L0.875083 5.31597V5.31514L0.875497 5.30439V5.30315L0.876325 5.29239V5.29115L0.876738 5.2804V5.27916L0.877152 5.26841V5.26717L0.87798 5.25642V5.25518L0.878808 5.24442V5.24318L0.880049 5.23243V5.23119L0.880877 5.22044L0.881291 5.21961L0.882118 5.20886V5.20803L0.88336 5.19728V5.19646L0.884601 5.1857L0.885015 5.18446L0.886256 5.17371V5.17247L0.887498 5.16172V5.16089L0.888739 5.15014V5.14931L0.889981 5.13856L0.890395 5.13732L0.891636 5.12657V5.12533L0.892878 5.11499V5.11375L0.894119 5.103V5.10176L0.895361 5.09101L0.895774 5.08976L0.897016 5.07943V5.07819L0.898671 5.06743V5.06619L0.899913 5.05544L0.900327 5.0542L0.901568 5.04386L0.901982 5.04262L0.903637 5.03187L0.904051 5.03104L0.905706 5.02029V5.01946L0.907362 5.00871V5.00789L0.909017 4.99755L0.909431 4.99631L0.911086 4.98597V4.98473L0.913983 4.97398L0.914397 4.97274L0.916052 4.9624V4.96116L0.918121 4.95082V4.94999L0.92019 4.93965V4.93883L0.922259 4.92807L0.922673 4.92725L0.924742 4.91691L0.925156 4.91608L0.927225 4.90574L0.927639 4.9045L0.929708 4.89417L0.930122 4.89292L0.932191 4.88259V4.88135L0.93426 4.87101V4.87018L0.936329 4.85984L0.936743 4.85901L0.938812 4.84868L0.939226 4.84785L0.941709 4.83751V4.83627L0.944192 4.82593L0.944606 4.82469L0.946675 4.81435L0.947089 4.81311L0.949572 4.80277V4.80153L0.952055 4.7912L0.952469 4.78996L0.954952 4.77962V4.77838L0.957435 4.76804L0.957848 4.76721L0.960331 4.75687V4.75605L0.962814 4.74571L0.963228 4.74447L0.966125 4.73413V4.7333L0.969022 4.72296V4.72214L0.971918 4.7118L0.972332 4.71056L0.975229 4.70022V4.69898L0.978126 4.68864L0.97854 4.6874L0.981436 4.67748L0.98185 4.67665L0.984747 4.66631L0.985161 4.66528L0.988058 4.65494L0.988472 4.6537L0.991368 4.64361L0.991782 4.64278L0.995093 4.63244L0.995507 4.63162L0.998403 4.62169L0.998817 4.62086L1.00171 4.61081L1.00213 4.60999L1.00502 4.59973L1.00544 4.59849L1.00875 4.5884L1.00916 4.58716L1.01247 4.57724V4.57641L1.01578 4.56648V4.56524L1.01909 4.55532L1.01951 4.55449L1.02282 4.54457L1.02323 4.54333L1.02654 4.5334L1.02696 4.53216L1.03027 4.52224L1.03068 4.521L1.03399 4.51107L1.03441 4.51024L1.03813 4.50032L1.03854 4.49949L1.04186 4.48957L1.04227 4.48853L1.04558 4.47861L1.04599 4.47778L1.04972 4.46786L1.05013 4.46703L1.05386 4.45711V4.45628L1.05758 4.44635L1.05799 4.44553L1.06172 4.4356L1.06213 4.43436L1.06586 4.42444L1.06627 4.42361L1.07 4.41368L1.07041 4.41244L1.07455 4.40293L1.07496 4.40211L1.0791 4.39218L1.07951 4.39135L1.08365 4.38143L1.08407 4.38019L1.0882 4.37026L1.08862 4.36902L1.09276 4.3591L1.09317 4.35786L1.09731 4.34793L1.09772 4.34669L1.10186 4.33677L1.10227 4.33553L1.10641 4.3256L1.10683 4.32457L1.11096 4.31506L1.11138 4.31382L1.11552 4.30431L1.11593 4.30307L1.12007 4.29314L1.12048 4.29231L1.12503 4.28239L1.12545 4.28156L1.13 4.27205L1.13041 4.27122L1.13455 4.26171L1.13497 4.26047L1.13952 4.25096L1.13993 4.25013L1.14448 4.24062L1.1449 4.2398L1.14945 4.23028L1.14986 4.22946L1.15442 4.21995L1.15483 4.21871L1.15938 4.20919L1.1598 4.20837L1.16435 4.19886L1.16476 4.19762L1.16931 4.1881L1.16973 4.18728L1.17428 4.17777L1.17469 4.17694L1.17925 4.16743L1.17966 4.1666L1.18421 4.15709L1.18463 4.15626L1.18959 4.14717L1.19 4.14634L1.19497 4.13683L1.1958 4.13559L1.20076 4.12608L1.20118 4.12525L1.20614 4.11574L1.20656 4.1145L1.21152 4.1054L1.21194 4.10457L1.2169 4.09547L1.21732 4.09465L1.22228 4.08555L1.2227 4.08431L1.22766 4.07521L1.22849 4.07438L1.23346 4.06529L1.23387 4.06405L1.23884 4.05495L1.23966 4.05412L1.24463 4.04502L1.24504 4.0442L1.25001 4.0351L1.25084 4.03386L1.25622 4.02476L1.25663 4.02393L1.2616 4.01484L1.26201 4.01401L1.26739 4.00491L1.2678 4.00408L1.27318 3.99499L1.2736 3.99416L1.27898 3.98506L1.27981 3.98423L1.28519 3.97514L1.2856 3.97431L1.29098 3.96521L1.29181 3.96439L1.29719 3.95529L1.2976 3.95446L1.30298 3.94536L1.30381 3.94454L1.30919 3.93544L1.3096 3.93461L1.31539 3.92551L1.31622 3.92427L1.32202 3.91517L1.32243 3.91435L1.32781 3.90566L1.32864 3.90484L1.33443 3.89615L1.33526 3.89533L1.34064 3.88623L1.34105 3.8854L1.34685 3.87672L1.34726 3.87589L1.35305 3.86721L1.35388 3.86638L1.35967 3.85728L1.3605 3.85645L1.36629 3.84777L1.36671 3.84653L1.3725 3.83785L1.37292 3.83702L1.37871 3.82833L1.37912 3.82751L1.38533 3.81882L1.38616 3.818L1.39195 3.80931L1.39278 3.80848L1.39899 3.7998L1.3994 3.79897L1.40561 3.79029L1.40602 3.78946L1.41223 3.78078L1.41264 3.77995L1.41885 3.77127L1.41968 3.77044L1.42589 3.76176L1.4263 3.76093L1.43251 3.75224L1.43333 3.75142L1.43954 3.74315L1.43996 3.74232L1.44616 3.73364L1.44699 3.73281L1.4532 3.72454L1.45403 3.72371L1.46023 3.71544L1.46106 3.71461L1.46727 3.70634L1.4681 3.70552L1.4743 3.69724L1.47472 3.69642L1.48092 3.68815L1.48175 3.68732L1.48837 3.67905L1.4892 3.67822L1.49582 3.66995L1.49665 3.66912L1.50327 3.66085L1.5041 3.66003L1.51072 3.65176L1.51155 3.65093L1.51817 3.64266L1.519 3.64142L1.52562 3.63315L1.52603 3.63232L1.53265 3.62405L1.53348 3.62322L1.5401 3.61495L1.54093 3.61413L1.54755 3.60627L1.54838 3.60544L1.555 3.59717L1.55583 3.59634L1.56245 3.58807L1.56328 3.58725L1.57031 3.57939L1.57114 3.57856L1.57776 3.57029L1.57859 3.56946L1.58521 3.56161L1.58604 3.56078L1.59266 3.55251L1.59349 3.55168L1.60052 3.54341L1.60093 3.54258L1.60797 3.53473L1.6088 3.5339L1.61583 3.52604L1.61666 3.52522L1.6237 3.51736L1.62452 3.51653L1.63156 3.50868L1.63197 3.50785L1.63901 3.49999L1.63983 3.49916L1.64687 3.49131L1.6477 3.49048L1.65473 3.48262L1.65515 3.4818L1.66218 3.47394L1.66301 3.47311L1.67046 3.46525L1.67087 3.46443L1.67832 3.45657L1.67915 3.45574L1.68701 3.4483L1.68784 3.44747L1.69529 3.43962L1.69611 3.43879L1.70356 3.43093L1.70439 3.4301L1.71184 3.42266L1.71267 3.42183L1.72012 3.41439L1.72094 3.41356L1.72839 3.40612L1.72922 3.40529L1.73708 3.39785L1.73791 3.39702L1.74536 3.38958L1.74619 3.38875L1.75364 3.38131L1.75446 3.38048L1.76191 3.37304L1.76274 3.37221L1.77019 3.36477L1.77102 3.36394L1.77847 3.3565L1.77929 3.35567L1.78674 3.34823L1.78757 3.3474L1.79502 3.33996L1.79585 3.33913L1.80371 3.3321L1.80454 3.33127L1.8124 3.32424L1.81323 3.32341L1.82109 3.31597L1.82192 3.31514L1.82978 3.3077L1.83061 3.30729L1.83847 3.30026L1.8393 3.29984L1.84716 3.29281L1.84799 3.29199L1.85585 3.28496L1.85668 3.28413L1.86454 3.2771L1.86537 3.27627L1.87323 3.26924L1.87406 3.26883L1.88234 3.2618L1.88316 3.26097L1.89144 3.25394L1.89227 3.25311L1.90054 3.24608L1.90137 3.24526L1.90965 3.23864L1.91048 3.23781L1.91875 3.2312L1.91958 3.23037L1.92744 3.22375L1.92827 3.22293L1.93655 3.21631L1.93738 3.21548L1.94565 3.20887L1.94648 3.20845L1.95476 3.20184L1.95558 3.20101L1.96386 3.19439L1.96469 3.19357L1.97296 3.18695L1.97379 3.18612L1.98248 3.17951L1.98331 3.17868L1.99159 3.17206L1.99241 3.17124L2.0011 3.16462L2.00193 3.16379L2.01062 3.15718L2.01145 3.15635L2.01973 3.14973L2.02055 3.14932L2.02924 3.1427L2.03007 3.14187L2.03835 3.13526L2.03918 3.13443L2.04787 3.12823L2.04869 3.1274L2.05739 3.12078L2.05821 3.11996L2.0669 3.11375L2.06773 3.11334L2.07642 3.10714L2.07766 3.10631L2.08635 3.10011L2.08718 3.09969L2.09587 3.09349L2.0967 3.09266L2.10539 3.08605L2.10622 3.08563L2.11532 3.07943L2.11615 3.0786L2.12484 3.0724L2.12608 3.07199L2.13477 3.06579L2.1356 3.06537L2.14429 3.05917L2.14512 3.05875L2.15422 3.05255L2.15505 3.05173L2.16374 3.04552L2.16457 3.04511L2.17367 3.03932L2.1745 3.03891L2.18319 3.0327L2.18443 3.03188L2.19353 3.02609L2.19436 3.02526L2.20347 3.01906L2.20429 3.01823L2.2134 3.01244L2.21464 3.01203L2.22374 3.00624L2.22457 3.00541L2.23368 2.99962L2.2345 2.99921L2.24361 2.99342L2.24443 2.993L2.25354 2.98721L2.25437 2.9868L2.26347 2.98101L2.26471 2.9806L2.27382 2.97522H2.27423L6.4336 0.411338L6.43401 0.410925L6.4427 0.405549L6.44353 0.405135L6.45263 0.399346L6.45388 0.398519L6.46298 0.393143L6.46422 0.392316L6.47333 0.38694L6.47457 0.386113L6.48367 0.380737L6.48491 0.380323L6.49443 0.374947L6.49526 0.37412L6.50436 0.368744L6.5056 0.368331L6.51471 0.362955L6.51554 0.362542L6.52505 0.357579L6.52588 0.356752L6.5354 0.35179L6.53623 0.350963L6.54533 0.346L6.54657 0.345587L6.55609 0.340624L6.55692 0.339797L6.56602 0.334835L6.56726 0.334008L6.57637 0.329046L6.57761 0.328219L6.58671 0.323256L6.58754 0.322429L6.59706 0.317467L6.59789 0.317053L6.60699 0.312091L6.60823 0.311677L6.61734 0.306715L6.61858 0.306301L6.6281 0.301339L6.62934 0.300926L6.63886 0.295963L6.63968 0.29555L6.6492 0.291001L6.65044 0.290587L6.65996 0.286039L6.6612 0.285625L6.67031 0.281076L6.67155 0.280663L6.68107 0.276114L6.68189 0.2757L6.69141 0.271151L6.69265 0.270738L6.70217 0.266189L6.70341 0.265362L6.71293 0.260813L6.71417 0.2604L6.72369 0.255851L6.72493 0.255437L6.73445 0.251302L6.73569 0.250888L6.74521 0.246753L6.74604 0.245926L6.75556 0.241791L6.75638 0.241377L6.7659 0.237242L6.76714 0.236415L6.77666 0.23228L6.7779 0.231866L6.78742 0.227731L6.78866 0.227317L6.79818 0.223182L6.79942 0.222768L6.80894 0.218633L6.81018 0.21822L6.8197 0.214084L6.82094 0.213671L6.83046 0.209949L6.8317 0.209536L6.84122 0.2054L6.84246 0.204987L6.85239 0.200851L6.85363 0.200438L6.86356 0.196303L6.86481 0.195476L6.87432 0.191754L6.87515 0.19134L6.88508 0.187618L6.88632 0.187205L6.89584 0.183483L6.89667 0.18307L6.9066 0.179348L6.90784 0.178934L6.91778 0.175626L6.91902 0.175213L6.92895 0.171491L6.93019 0.171077L6.94012 0.167355L6.94136 0.166942L6.9513 0.163634L6.95254 0.16322L6.96247 0.159912L6.96371 0.159498L6.97323 0.15619L6.97447 0.155777L6.9844 0.152468L6.98564 0.152055L6.99516 0.148747L6.9964 0.148333L7.00633 0.145025L7.00716 0.144611L7.01709 0.141303L7.01833 0.14089L7.02827 0.137581L7.02951 0.137168L7.03944 0.13386L7.04068 0.133446L7.05061 0.130551L7.05144 0.130138L7.06137 0.127243L7.06261 0.12683L7.07255 0.123935H7.07379L7.08372 0.12104L7.08496 0.120627L7.09489 0.117732L7.09572 0.117318L7.10565 0.114424L7.10648 0.11401L7.11641 0.111115L7.11765 0.110702L7.12759 0.107807L7.12883 0.107394L7.13876 0.104499L7.14 0.104085L7.14993 0.101604L7.15117 0.101191L7.16111 0.0987095L7.16193 0.098296L7.17186 0.0954013L7.17286 0.0949878L7.1832 0.0925066H7.18403L7.19396 0.0896119H7.1952L7.20543 0.0871307L7.20667 0.0867172L7.21701 0.084236L7.21826 0.0838225L7.22819 0.0813413H7.22943L7.23977 0.0788601H7.24102L7.25095 0.0763789L7.25219 0.0759654L7.26212 0.0738978L7.26336 0.0734842L7.27329 0.071003L7.27454 0.0705895L7.28447 0.0685219H7.28571L7.29564 0.0664542L7.29688 0.0660407L7.30681 0.063973H7.30764L7.31757 0.0619054L7.31881 0.0614919L7.32916 0.0594242H7.32999L7.34033 0.0573566L7.34116 0.0569431L7.35151 0.0548754L7.35275 0.0544619L7.36309 0.0523942L7.36434 0.0519807L7.37468 0.0503266H7.37592L7.38585 0.0486724L7.3871 0.0482589L7.39744 0.0461913L7.39868 0.0457777L7.40903 0.0441236H7.41027L7.4202 0.0424695L7.42144 0.042056L7.43179 0.0404019L7.43303 0.0399883L7.44296 0.0383342H7.44379L7.45372 0.0366801H7.45496L7.46531 0.035026L7.46655 0.0346124L7.4769 0.0329583H7.47814L7.48848 0.0313042H7.48972L7.50007 0.0296501H7.50131L7.51166 0.0284095H7.5129L7.52283 0.0271689H7.52407L7.53442 0.0259283L7.53566 0.0255148L7.54601 0.0242742L7.54683 0.0238607L7.55718 0.0230336H7.55842L7.56835 0.021793H7.56959L7.57952 0.0205525H7.58077L7.59111 0.0193118H7.59235L7.6027 0.0180713H7.60394L7.61387 0.0172442H7.61511L7.62546 0.0160036L7.6267 0.0155901L7.63705 0.014763L7.63829 0.0143495L7.64863 0.0135224H7.64988L7.66006 0.0126954H7.6613L7.67164 0.0118683H7.67288L7.68323 0.0114548L7.68447 0.0110413L7.69482 0.0102142L7.69564 0.00980067L7.70599 0.00938713H7.70723L7.71758 0.00856009H7.71841L7.72875 0.00814656H7.72999L7.74034 0.00773302H7.74158L7.75192 0.00731948H7.75317L7.76351 0.00690598L7.76475 0.00649244L7.7751 0.0060789H7.77634L7.78669 0.00566536H7.78793L7.79827 0.00525186H7.79951L7.80986 0.00483832H7.8111L7.82145 0.00442478H7.82228L7.83262 0.00401124H7.84545L7.8558 0.0035977H7.8798L7.88199 0ZM4.72314 3.68124V12.2504H6.51725V8.50358H9.49332V12.2504H11.2926V3.68124H9.49332V6.80256H6.51725V3.68124H4.72314Z" fill="currentColor"/>
    </symbol>
  </defs>
</svg>