
<svg width="16" height="16" viewBox="0 0 16 16" fill="none" xmlns="http://www.w3.org/2000/svg">
  <path d="M5.32836 8.78109V10.7064C6.74893 10.7047 8.11085 10.1382 9.11536 9.13134C10.1199 8.12443 10.6849 6.75929 10.6867 5.33535H8.76591C8.76479 6.24884 8.40222 7.12465 7.75784 7.77058C7.11341 8.41655 6.23971 8.77993 5.32836 8.78109Z" fill="#3BE081"/><path d="M5.32787 14.0845C4.42308 14.0845 3.55536 13.7242 2.91559 13.0829C2.27581 12.4416 1.91639 11.5718 1.91639 10.6649C1.91639 9.75793 2.27581 8.88818 2.91559 8.24685C3.55536 7.60555 4.42308 7.24526 5.32787 7.24526V5.33413C4.62919 5.33314 3.93718 5.47008 3.29132 5.73718C2.64545 6.00423 2.05839 6.39624 1.56365 6.89072C1.06891 7.38521 0.676186 7.97258 0.407895 8.6192C0.139605 9.26586 0.00100353 9.95913 5.42934e-06 10.6595C-0.000992668 11.3598 0.135632 12.0534 0.402078 12.7009C0.668527 13.3483 1.05958 13.9367 1.5529 14.4326C2.04623 14.9285 2.63217 15.3222 3.27727 15.5911C3.92238 15.8601 4.61399 15.999 5.31268 16H5.32787V14.0845Z" fill="#0037FF"/><path d="M5.32836 14.0846V15.9957C6.73939 15.9957 8.09263 15.4338 9.09036 14.4337C10.0881 13.4336 10.6486 12.0771 10.6486 10.6628H8.73988C8.7393 11.5697 8.37977 12.4394 7.74015 13.0809C7.10058 13.7224 6.23319 14.0834 5.32836 14.0846Z" fill="#00CCFF"/><path d="M5.32836 3.42182V5.33295C6.73939 5.33295 8.09263 4.77112 9.09036 3.77099C10.0881 2.77087 10.6486 1.41441 10.6486 3.05175e-05H8.73988C8.7393 0.906993 8.37977 1.77667 7.74015 2.41819C7.10058 3.05972 6.23319 3.42067 5.32836 3.42182Z" fill="#861DFF"/><path d="M10.6797 3.42182V5.33295C12.0907 5.33295 13.4439 4.77112 14.4416 3.77099C15.4394 2.77087 15.9999 1.41441 15.9999 3.05175e-05H14.0922C14.0916 0.907178 13.7319 1.77702 13.0921 2.41858C12.4523 3.06013 11.5847 3.42095 10.6797 3.42182Z" fill="#FF8110"/>
</svg>