
<svg width="16" height="16" viewBox="0 0 16 16" fill="none" xmlns="http://www.w3.org/2000/svg">
  <defs>
    <symbol id='logo-y-combinator' viewBox="0 0 16 16">
      <path fill-rule="evenodd" clip-rule="evenodd" d="M0.00012207 0H16.0001V16H0.00012207V0ZM4.7146 3.90198L7.46089 9.04662V12.4267H8.51716V9.10875L11.2883 3.90198H10.1202L8.47988 7.15776C8.39703 7.33174 8.31626 7.4995 8.23756 7.66104C8.15886 7.82259 8.08637 7.97378 8.02009 8.11462C7.99524 8.04834 7.96624 7.97585 7.93311 7.89715C7.89997 7.81845 7.86269 7.73768 7.82127 7.65483C7.81298 7.63826 7.8047 7.61962 7.79641 7.59891C7.78813 7.5782 7.7757 7.55542 7.75913 7.53056C7.73428 7.46429 7.70528 7.40008 7.67215 7.33795C7.63901 7.27582 7.61001 7.21576 7.58516 7.15776L5.96969 3.90198H4.7146Z" fill="currentColor"/>
    </symbol>
  </defs>
</svg>