
<svg width="16" height="16" viewBox="0 0 16 16" fill="none" xmlns="http://www.w3.org/2000/svg">
  <defs>
    <symbol id='logo-okta' viewBox="0 0 16 16">
      <g clip-path="url(#clip0_2019_1495994)"><path fill-rule="evenodd" clip-rule="evenodd" d="M8.80277 0.111111L8.47365 4.16444C8.31799 4.14667 8.16233 4.13778 8.00222 4.13778C7.80209 4.13778 7.6064 4.15111 7.41516 4.18222L7.22837 2.21778C7.22392 2.15556 7.27284 2.10222 7.3351 2.10222H7.66866L7.50856 0.115556C7.50411 0.0533333 7.55303 0 7.61085 0H8.70048C8.76274 0 8.81166 0.0533333 8.80277 0.115556V0.111111ZM6.05423 0.311111C6.03644 0.253333 5.97418 0.217778 5.91636 0.24L4.89345 0.613333C4.83563 0.635556 4.80894 0.702222 4.83563 0.755556L5.6673 2.56889L5.35153 2.68444C5.29372 2.70667 5.26703 2.77333 5.29372 2.82667L6.14318 4.60889C6.45006 4.44 6.78362 4.31111 7.13497 4.23111L6.05868 0.311111H6.05423ZM3.54586 1.44L5.89857 4.75556C5.60059 4.95111 5.3293 5.18222 5.09803 5.44889L3.68818 4.06222C3.64371 4.01778 3.64816 3.94667 3.69263 3.90667L3.95058 3.69333L2.54963 2.27556C2.50516 2.23111 2.5096 2.16 2.55853 2.12L3.3902 1.42222C3.43912 1.38222 3.50584 1.39111 3.54142 1.44H3.54586ZM1.57119 3.36C1.52227 3.32444 1.45111 3.34222 1.41998 3.39556L0.877384 4.33778C0.846252 4.39111 0.868489 4.45778 0.921859 4.48444L2.72753 5.33778L2.55853 5.62667C2.52739 5.68 2.54963 5.75111 2.60745 5.77333L4.40422 6.59556C4.5332 6.26222 4.70665 5.95111 4.92013 5.67111L1.57119 3.36ZM0.241397 5.92C0.250292 5.85778 0.312556 5.82222 0.370373 5.83556L4.30638 6.86222C4.20409 7.19556 4.14627 7.54667 4.13738 7.91111L2.16715 7.75111C2.10488 7.74667 2.06041 7.68889 2.07375 7.62667L2.13157 7.29778L0.143553 7.11111C0.0812882 7.10667 0.041261 7.04889 0.0501559 6.98667L0.236949 5.91556L0.241397 5.92ZM0.0946305 8.57778C0.032366 8.58222 -0.00766115 8.64 0.00123378 8.70222L0.192475 9.77333C0.20137 9.83556 0.263634 9.87111 0.321451 9.85778L2.25165 9.35556L2.30947 9.68444C2.31836 9.74667 2.38063 9.78222 2.43844 9.76889L4.34196 9.24444C4.23077 8.91556 4.15961 8.56444 4.14182 8.20444L0.0901831 8.57778H0.0946305ZM0.726171 11.3956C0.695038 11.3422 0.717276 11.2756 0.770645 11.2489L4.44425 9.50667C4.58212 9.83556 4.76892 10.1422 4.99129 10.4178L3.38131 11.5644C3.33239 11.6 3.26123 11.5867 3.23009 11.5333L3.06109 11.24L1.41998 12.3733C1.37105 12.4089 1.29989 12.3911 1.26876 12.3378L0.721723 11.3956H0.726171ZM5.17808 10.6311L2.31836 13.5244C2.27389 13.5689 2.27834 13.64 2.32726 13.68L3.16338 14.3778C3.2123 14.4178 3.27902 14.4089 3.3146 14.36L4.47094 12.7333L4.72889 12.9511C4.77781 12.9911 4.84897 12.9822 4.88455 12.9289L6.00531 11.3022C5.70288 11.1156 5.42269 10.8889 5.18253 10.6311H5.17808ZM4.61326 15.2756C4.55544 15.2533 4.52875 15.1867 4.55544 15.1333L6.24992 11.4356C6.56124 11.5956 6.89925 11.7156 7.2506 11.7822L6.75249 13.6933C6.73914 13.7511 6.67243 13.7867 6.61461 13.7644L6.29884 13.6489L5.7696 15.5733C5.75181 15.6311 5.68954 15.6667 5.63172 15.6444L4.60881 15.2711L4.61326 15.2756ZM7.53079 11.8311L7.20168 15.8844C7.19723 15.9467 7.24616 16 7.30397 16H8.3936C8.45586 16 8.50479 15.9467 8.49589 15.8844L8.33578 13.8978H8.66934C8.73161 13.8978 8.78053 13.8444 8.77608 13.7822L8.58929 11.8178C8.39805 11.8489 8.20236 11.8622 8.00222 11.8622C7.84212 11.8622 7.68645 11.8533 7.53079 11.8311ZM11.4535 0.857778C11.4801 0.8 11.4535 0.737778 11.3956 0.715556L10.3727 0.342222C10.3149 0.32 10.2526 0.355556 10.2349 0.413333L9.7056 2.33778L9.38983 2.22222C9.33202 2.2 9.26975 2.23556 9.25196 2.29333L8.75385 4.20444C9.10964 4.27556 9.4432 4.39556 9.75453 4.55111L11.4535 0.857778ZM13.6861 2.47111L10.8264 5.36444C10.5862 5.10667 10.3105 4.88 10.0036 4.69333L11.1243 3.06667C11.1599 3.01778 11.2311 3.00444 11.28 3.04444L11.538 3.26222L12.6943 1.63556C12.7299 1.58667 12.801 1.57778 12.8455 1.61778L13.6816 2.31556C13.7306 2.35556 13.7306 2.42667 13.6905 2.47111H13.6861ZM15.2338 4.74667C15.2916 4.72 15.3094 4.65333 15.2783 4.6L14.7312 3.65778C14.7001 3.60444 14.6289 3.59111 14.58 3.62222L12.9389 4.75556L12.7699 4.46667C12.7388 4.41333 12.6676 4.39556 12.6187 4.43556L11.0087 5.58222C11.2311 5.85778 11.4134 6.16444 11.5557 6.49333L15.2294 4.75111L15.2338 4.74667ZM15.812 6.22222L15.9988 7.29333C16.0077 7.35556 15.9676 7.40889 15.9054 7.41778L11.8537 7.79556C11.8359 7.43111 11.7648 7.08444 11.6536 6.75556L13.5571 6.23111C13.6149 6.21333 13.6772 6.25333 13.6861 6.31556L13.7439 6.64444L15.6741 6.14222C15.7319 6.12889 15.7942 6.16444 15.8031 6.22667L15.812 6.22222ZM15.6296 10.1556C15.6874 10.1689 15.7497 10.1333 15.7586 10.0711L15.9454 9C15.9543 8.93778 15.9143 8.88444 15.852 8.87556L13.864 8.68889L13.9218 8.36C13.9307 8.29778 13.8907 8.24444 13.8284 8.23556L11.8582 8.07556C11.8493 8.44 11.7915 8.79111 11.6892 9.12444L15.6252 10.1511L15.6296 10.1556ZM14.58 12.6C14.5489 12.6533 14.4777 12.6667 14.4288 12.6356L11.0799 10.3244C11.2933 10.0444 11.4668 9.73333 11.5958 9.4L13.3926 10.2222C13.4504 10.2489 13.4726 10.3156 13.4415 10.3689L13.2725 10.6578L15.0781 11.5111C15.1315 11.5378 15.1537 11.6044 15.1226 11.6578L14.58 12.6ZM10.1014 11.2356L12.4541 14.5511C12.4897 14.6 12.5609 14.6089 12.6054 14.5689L13.437 13.8711C13.4859 13.8311 13.4859 13.76 13.4459 13.7156L12.045 12.2978L12.3029 12.0844C12.3518 12.0444 12.3518 11.9733 12.3074 11.9289L10.8975 10.5422C10.6618 10.8089 10.395 11.0444 10.097 11.2356H10.1014ZM10.0792 15.7511C10.0214 15.7733 9.95911 15.7378 9.94132 15.68L8.86503 11.76C9.21638 11.68 9.54994 11.5511 9.85682 11.3822L10.7063 13.1644C10.733 13.2222 10.7063 13.2889 10.6485 13.3067L10.3327 13.4222L11.1644 15.2356C11.1911 15.2933 11.1644 15.3556 11.1066 15.3778L10.0836 15.7511H10.0792Z" fill="currentColor"/></g><defs><clipPath id="clip0_2019_1495994"><rect width="16" height="16" fill="currentColor"/></clipPath></defs>
    </symbol>
  </defs>
</svg>