
<svg width="16" height="16" viewBox="0 0 16 16" fill="none" xmlns="http://www.w3.org/2000/svg">
  <defs>
    <symbol id='logo-facebook-messenger' viewBox="0 0 16 16">
      <path fill-rule="evenodd" clip-rule="evenodd" d="M0 7.75979C0 3.30191 3.49391 0 7.99979 0C12.5057 0 15.9996 3.30391 15.9996 7.76179C15.9996 12.2197 12.5057 15.5216 7.99979 15.5216C7.18981 15.5216 6.41383 15.4136 5.68385 15.2136C5.54185 15.1756 5.38986 15.1856 5.25586 15.2456L3.6679 15.9456C3.572 15.9879 3.46717 16.006 3.36263 15.9983C3.25809 15.9906 3.15704 15.9573 3.06836 15.9014C2.97969 15.8455 2.90609 15.7687 2.85406 15.6777C2.80202 15.5867 2.77313 15.4844 2.76993 15.3796L2.72593 13.9556C2.72193 13.7796 2.64193 13.6156 2.51193 13.4996C0.955974 12.1077 0 10.0917 0 7.75979ZM5.54562 6.30185L3.19568 10.0298C2.96968 10.3877 3.40967 10.7897 3.74566 10.5337L6.2696 8.61779C6.35264 8.55472 6.45397 8.5204 6.55825 8.52004C6.66254 8.51968 6.7641 8.55329 6.84758 8.61579L8.71753 10.0178C8.85016 10.1174 9.00201 10.1884 9.16348 10.2264C9.32495 10.2643 9.49253 10.2684 9.65566 10.2383C9.81878 10.2083 9.9739 10.1447 10.1112 10.0517C10.2485 9.95862 10.3651 9.83812 10.4535 9.69776L12.8054 5.97186C13.0294 5.61387 12.5894 5.20988 12.2534 5.46588L9.7295 7.38182C9.64646 7.4449 9.54513 7.47921 9.44085 7.47957C9.33656 7.47994 9.235 7.44632 9.15152 7.38382L7.28157 5.98186C7.14894 5.88225 6.99709 5.81122 6.83562 5.77326C6.67415 5.73529 6.50657 5.73122 6.34344 5.76128C6.18032 5.79135 6.0252 5.85491 5.88788 5.94796C5.75056 6.041 5.63402 6.1615 5.54562 6.30185Z" fill="currentColor"/>
    </symbol>
  </defs>
</svg>