
<svg width="16" height="16" viewBox="0 0 16 16" fill="none" xmlns="http://www.w3.org/2000/svg">
  <defs>
    <symbol id='logo-otel' viewBox="0 0 16 16">
      <path d="M9.2627 9.7627C9.94609 9.0793 11.0539 9.0793 11.7373 9.7627C12.4207 10.4461 12.4207 11.5539 11.7373 12.2373C11.0539 12.9207 9.94609 12.9207 9.2627 12.2373C8.5793 11.5539 8.5793 10.4461 9.2627 9.7627Z" stroke="currentColor" stroke-width="1.5"/><mask id="path-2-inside-1_3910_19011005" fill="currentColor"><path fill-rule="evenodd" clip-rule="evenodd" d="M9.77423 1.4885L10.8035 0.459218C11.005 0.257735 11.3346 0.257735 11.536 0.459218L15.5563 4.47796C15.7578 4.67944 15.7578 5.01057 15.5563 5.21205L14.5271 6.24133C14.3256 6.44282 13.9945 6.44282 13.793 6.24133L9.77423 2.22259C9.57275 2.02111 9.57275 1.68999 9.77423 1.4885ZM3.59227 12.9481C3.77501 13.1308 3.77501 13.4292 3.59227 13.6119L2.51144 14.6927L2.50988 14.6943L2.80664 14.991C2.97064 15.1535 2.96908 15.4206 2.80664 15.5846C2.64421 15.7486 2.37712 15.7486 2.21312 15.5846L0.432569 13.804C0.268571 13.6416 0.268571 13.3745 0.432569 13.2105C0.595006 13.0465 0.862089 13.0465 1.02609 13.2105L1.32285 13.5072L1.32441 13.5057L2.40524 12.4249C2.58798 12.2421 2.8863 12.2421 3.06904 12.4249L3.59227 12.9481ZM6.75041 5.70092L9.03702 3.41431C9.24007 3.20971 9.57431 3.20971 9.77736 3.41431L12.6013 6.23821C12.8043 6.44126 12.8043 6.7755 12.6013 6.97855L12.1688 7.41104C10.8602 6.76604 9.27221 6.88014 8.0625 7.75334L6.75041 6.44126C6.54737 6.23821 6.54737 5.90397 6.75041 5.70092ZM7.43526 8.3147L6.73479 7.61424C6.53956 7.419 6.21937 7.419 6.02414 7.61424L3.0831 10.5568C2.88786 10.7521 2.88786 11.0723 3.0831 11.2675L4.74963 12.934C4.94487 13.1293 5.26506 13.1293 5.46029 12.934L6.50032 11.8923C6.21873 10.6561 6.53038 9.31215 7.43526 8.3147Z"/></mask><path fill-rule="evenodd" clip-rule="evenodd" d="M9.77423 1.4885L10.8035 0.459218C11.005 0.257735 11.3346 0.257735 11.536 0.459218L15.5563 4.47796C15.7578 4.67944 15.7578 5.01057 15.5563 5.21205L14.5271 6.24133C14.3256 6.44282 13.9945 6.44282 13.793 6.24133L9.77423 2.22259C9.57275 2.02111 9.57275 1.68999 9.77423 1.4885ZM3.59227 12.9481C3.77501 13.1308 3.77501 13.4292 3.59227 13.6119L2.51144 14.6927L2.50988 14.6943L2.80664 14.991C2.97064 15.1535 2.96908 15.4206 2.80664 15.5846C2.64421 15.7486 2.37712 15.7486 2.21312 15.5846L0.432569 13.804C0.268571 13.6416 0.268571 13.3745 0.432569 13.2105C0.595006 13.0465 0.862089 13.0465 1.02609 13.2105L1.32285 13.5072L1.32441 13.5057L2.40524 12.4249C2.58798 12.2421 2.8863 12.2421 3.06904 12.4249L3.59227 12.9481ZM6.75041 5.70092L9.03702 3.41431C9.24007 3.20971 9.57431 3.20971 9.77736 3.41431L12.6013 6.23821C12.8043 6.44126 12.8043 6.7755 12.6013 6.97855L12.1688 7.41104C10.8602 6.76604 9.27221 6.88014 8.0625 7.75334L6.75041 6.44126C6.54737 6.23821 6.54737 5.90397 6.75041 5.70092ZM7.43526 8.3147L6.73479 7.61424C6.53956 7.419 6.21937 7.419 6.02414 7.61424L3.0831 10.5568C2.88786 10.7521 2.88786 11.0723 3.0831 11.2675L4.74963 12.934C4.94487 13.1293 5.26506 13.1293 5.46029 12.934L6.50032 11.8923C6.21873 10.6561 6.53038 9.31215 7.43526 8.3147Z" fill="currentColor"/><path d="M10.8035 0.459218L11.5106 1.16633V1.16632L10.8035 0.459218ZM9.77423 1.4885L9.06713 0.781397V0.781397L9.77423 1.4885ZM11.536 0.459218L10.8289 1.16632L10.8291 1.16646L11.536 0.459218ZM15.5563 4.47796L16.2635 3.77085L16.2633 3.77072L15.5563 4.47796ZM15.5563 5.21205L14.8492 4.50494H14.8492L15.5563 5.21205ZM14.5271 6.24133L15.2342 6.94844H15.2342L14.5271 6.24133ZM13.793 6.24133L14.5001 5.53423V5.53423L13.793 6.24133ZM9.77423 2.22259L9.06713 2.9297V2.9297L9.77423 2.22259ZM3.59227 13.6119L4.29938 14.319H4.29938L3.59227 13.6119ZM3.59227 12.9481L2.88517 13.6552L3.59227 12.9481ZM2.51144 14.6927L3.21839 15.4L3.21855 15.3998L2.51144 14.6927ZM2.50988 14.6943L1.80294 13.987L1.09551 14.6941L1.80278 15.4014L2.50988 14.6943ZM2.80664 14.991L2.09953 15.6982L2.10293 15.7015L2.80664 14.991ZM2.21312 15.5846L2.92023 14.8775H2.92023L2.21312 15.5846ZM0.432569 13.804L1.13968 13.0969L1.13628 13.0935L0.432569 13.804ZM0.432569 13.2105L1.13968 13.9176L1.14305 13.9142L0.432569 13.2105ZM1.02609 13.2105L1.73319 12.5034H1.73319L1.02609 13.2105ZM1.32285 13.5072L0.615739 14.2144L1.3229 14.9215L2.03001 14.2143L1.32285 13.5072ZM1.32441 13.5057L0.617301 12.7986L0.617248 12.7986L1.32441 13.5057ZM3.06904 12.4249L3.77615 11.7177L3.06904 12.4249ZM9.03702 3.41431L9.74413 4.12143L9.74683 4.11871L9.03702 3.41431ZM6.75041 5.70092L6.04331 4.99381L6.75041 5.70092ZM9.77736 3.41431L9.06754 4.11871L9.07025 4.12142L9.77736 3.41431ZM12.6013 6.23821L11.8941 6.94532L12.6013 6.23821ZM12.6013 6.97855L11.8941 6.27144H11.8941L12.6013 6.97855ZM12.1688 7.41104L11.7266 8.308L12.3693 8.62475L12.8759 8.11815L12.1688 7.41104ZM8.0625 7.75334L7.35539 8.46045L7.95743 9.06248L8.64778 8.56417L8.0625 7.75334ZM7.43526 8.3147L8.1759 8.9866L8.8159 8.28113L8.14236 7.60759L7.43526 8.3147ZM6.73479 7.61424L7.4419 6.90713H7.4419L6.73479 7.61424ZM6.02414 7.61424L5.31703 6.90713L5.31684 6.90732L6.02414 7.61424ZM3.0831 10.5568L3.7902 11.2639L3.79039 11.2638L3.0831 10.5568ZM3.0831 11.2675L2.37599 11.9746L3.0831 11.2675ZM4.74963 12.934L5.45674 12.2269L4.74963 12.934ZM5.46029 12.934L6.1674 13.6411L6.16798 13.6406L5.46029 12.934ZM6.50032 11.8923L7.20801 12.5988L7.59791 12.2083L7.47534 11.6702L6.50032 11.8923ZM10.0964 -0.247889L9.06713 0.781397L10.4813 2.19561L11.5106 1.16633L10.0964 -0.247889ZM12.2432 -0.247888C11.6511 -0.839897 10.6884 -0.839897 10.0964 -0.247888L11.5106 1.16632C11.3216 1.35537 11.018 1.35537 10.8289 1.16632L12.2432 -0.247888ZM16.2633 3.77072L12.243 -0.248026L10.8291 1.16646L14.8494 5.1852L16.2633 3.77072ZM16.2635 5.91916C16.8555 5.32715 16.8555 4.36286 16.2635 3.77085L14.8492 5.18507C14.6602 4.99603 14.6602 4.69398 14.8492 4.50494L16.2635 5.91916ZM15.2342 6.94844L16.2635 5.91916L14.8492 4.50494L13.82 5.53423L15.2342 6.94844ZM13.0859 6.94844C13.6779 7.54045 14.6422 7.54045 15.2342 6.94844L13.82 5.53423C14.009 5.34519 14.311 5.34519 14.5001 5.53423L13.0859 6.94844ZM9.06713 2.9297L13.0859 6.94844L14.5001 5.53423L10.4813 1.51549L9.06713 2.9297ZM9.06713 0.781397C8.47512 1.37341 8.47512 2.33769 9.06713 2.9297L10.4813 1.51549C10.6704 1.70453 10.6704 2.00657 10.4813 2.19561L9.06713 0.781397ZM4.29938 14.319C4.87264 13.7457 4.87264 12.8142 4.29938 12.241L2.88517 13.6552C2.67738 13.4474 2.67738 13.1126 2.88517 12.9048L4.29938 14.319ZM3.21855 15.3998L4.29938 14.319L2.88517 12.9048L1.80434 13.9856L3.21855 15.3998ZM3.21683 15.4016L3.21839 15.4L1.8045 13.9855L1.80294 13.987L3.21683 15.4016ZM3.51375 14.2839L3.21699 13.9872L1.80278 15.4014L2.09953 15.6981L3.51375 14.2839ZM3.51712 16.2883C4.05943 15.7408 4.07556 14.8404 3.51036 14.2806L2.10293 15.7015C1.86572 15.4666 1.87873 15.1004 2.09616 14.8808L3.51712 16.2883ZM1.50602 16.2917C2.05866 16.8443 2.96154 16.8492 3.51712 16.2883L2.09616 14.8808C2.32687 14.6479 2.69558 14.6528 2.92023 14.8775L1.50602 16.2917ZM-0.274538 14.5111L1.50602 16.2917L2.92023 14.8775L1.13968 13.0969L-0.274538 14.5111ZM-0.274538 12.5034C-0.827181 13.056 -0.83207 13.9589 -0.271146 14.5145L1.13628 13.0935C1.36921 13.3242 1.36432 13.6929 1.13968 13.9176L-0.274538 12.5034ZM1.73319 12.5034C1.18055 11.9507 0.277669 11.9458 -0.277913 12.5068L1.14305 13.9142C0.912343 14.1471 0.543627 14.1422 0.31898 13.9176L1.73319 12.5034ZM2.02995 12.8001L1.73319 12.5034L0.31898 13.9176L0.615739 14.2144L2.02995 12.8001ZM0.617248 12.7986L0.615686 12.8002L2.03001 14.2143L2.03157 14.2127L0.617248 12.7986ZM1.69813 11.7177L0.617301 12.7986L2.03152 14.2128L3.11234 13.132L1.69813 11.7177ZM3.77615 11.7177C3.20288 11.1445 2.27139 11.1445 1.69813 11.7177L3.11234 13.132C2.90456 13.3397 2.56972 13.3397 2.36193 13.132L3.77615 11.7177ZM4.29938 12.241L3.77615 11.7177L2.36193 13.132L2.88517 13.6552L4.29938 12.241ZM8.32991 2.70721L6.04331 4.99381L7.45752 6.40803L9.74413 4.12142L8.32991 2.70721ZM10.4872 2.70992C9.89299 2.11117 8.92139 2.11117 8.32721 2.70992L9.74683 4.11871C9.55874 4.30824 9.25563 4.30824 9.06755 4.11871L10.4872 2.70992ZM13.3084 5.5311L10.4845 2.70721L9.07025 4.12142L11.8941 6.94532L13.3084 5.5311ZM13.3084 7.68565C13.9019 7.09208 13.9019 6.12467 13.3084 5.5311L11.8941 6.94532C11.7067 6.75784 11.7067 6.45892 11.8941 6.27144L13.3084 7.68565ZM12.8759 8.11815L13.3084 7.68565L11.8941 6.27144L11.4617 6.70394L12.8759 8.11815ZM8.64778 8.56417C9.55276 7.91093 10.745 7.82412 11.7266 8.308L12.6109 6.51409C10.9754 5.70795 8.99165 5.84934 7.47722 6.94251L8.64778 8.56417ZM6.04331 7.14836L7.35539 8.46045L8.7696 7.04623L7.45752 5.73415L6.04331 7.14836ZM6.04331 4.99381C5.44974 5.58738 5.44974 6.55479 6.04331 7.14836L7.45752 5.73415C7.645 5.92163 7.645 6.22055 7.45752 6.40803L6.04331 4.99381ZM8.14236 7.60759L7.4419 6.90713L6.02769 8.32134L6.72815 9.02181L8.14236 7.60759ZM7.4419 6.90713C6.85614 6.32137 5.90279 6.32137 5.31703 6.90713L6.73124 8.32134C6.53595 8.51663 6.22298 8.51663 6.02769 8.32134L7.4419 6.90713ZM5.31684 6.90732L2.3758 9.84992L3.79039 11.2638L6.73143 8.32115L5.31684 6.90732ZM2.37599 9.84973C1.79023 10.4355 1.79023 11.3888 2.37599 11.9746L3.7902 10.5604C3.98549 10.7557 3.98549 11.0687 3.7902 11.2639L2.37599 9.84973ZM2.37599 11.9746L4.04253 13.6411L5.45674 12.2269L3.7902 10.5604L2.37599 11.9746ZM4.04253 13.6411C4.62829 14.2269 5.58164 14.2269 6.1674 13.6411L4.75319 12.2269C4.94847 12.0316 5.26145 12.0316 5.45674 12.2269L4.04253 13.6411ZM6.16798 13.6406L7.20801 12.5988L5.79263 11.1858L4.7526 12.2275L6.16798 13.6406ZM7.47534 11.6702C7.26348 10.7401 7.49877 9.733 8.1759 8.9866L6.69462 7.6428C5.56198 8.89131 5.17398 10.5722 5.5253 12.1144L7.47534 11.6702Z" fill="currentColor" mask="url(#path-2-inside-1_3910_19011005)"/>
    </symbol>
  </defs>
</svg>