
<svg width="16" height="16" viewBox="0 0 16 16" fill="none" xmlns="http://www.w3.org/2000/svg">
  <defs>
    <symbol id='logo-sitecore-xmcloud' viewBox="0 0 16 16">
      <g clip-path="url(#clip0_2130_59631032)"><path fill-rule="evenodd" clip-rule="evenodd" d="M4.67521 6.12991L3.61538 7.18974L0.128205 3.70256C-0.0427351 3.53162 -0.0427351 3.26666 0.128205 3.09572L2.5641 0.659821C2.73504 0.488881 3 0.488881 3.17094 0.659821C5.83761 3.31794 10.1538 3.31794 12.812 0.659821C12.9829 0.488881 13.2479 0.488881 13.4188 0.659821L15.8718 3.09572C16.0427 3.26666 16.0427 3.53162 15.8718 3.70256L12.3846 7.18974L11.3248 6.12991C10.4359 5.24102 9.25641 4.75384 8 4.75384C6.74359 4.75384 5.5641 5.24102 4.67521 6.12991ZM2.56425 15.5402L0.36767 13.3436C0.0685242 13.0444 0.0685242 12.5487 0.36767 12.2496L5.5557 7.04444C6.22236 6.37778 7.09416 6.04445 7.9745 6.04445C8.85484 6.04445 9.72664 6.37778 10.3933 7.04444L15.5984 12.2496C15.8976 12.5487 15.8976 13.0444 15.5984 13.3436L13.4018 15.5402C13.3249 15.6256 13.2053 15.6684 13.1027 15.6684C13.0001 15.6684 12.889 15.6256 12.8036 15.5402C11.4702 14.2068 9.72664 13.5402 7.98305 13.5402C6.23946 13.5402 4.49587 14.2068 3.16254 15.5402C3.08562 15.6256 2.96596 15.6684 2.8634 15.6684C2.76083 15.6684 2.64972 15.6256 2.56425 15.5402Z" fill="currentColor"/></g><defs><clipPath id="clip0_2130_59631032"><rect width="16" height="16" fill="currentColor"/></clipPath></defs>
    </symbol>
  </defs>
</svg>