
<svg width="16" height="16" viewBox="0 0 16 16" fill="none" xmlns="http://www.w3.org/2000/svg">
  <g clip-path="url(#clip0_53_142911)"><path d="M15.5273 6.68664L15.5054 6.63069L13.3858 1.0989C13.3427 0.990478 13.2663 0.898505 13.1676 0.836175C13.0689 0.774904 12.9538 0.745394 12.8378 0.751629C12.7218 0.757865 12.6105 0.799545 12.5189 0.871043C12.4284 0.944593 12.3627 1.04426 12.3308 1.15647L10.8996 5.53519H5.10431L3.67312 1.15647C3.64208 1.04365 3.57625 0.943483 3.485 0.870232C3.39343 0.798734 3.28213 0.757054 3.16613 0.750818C3.05012 0.744583 2.935 0.774093 2.8363 0.835364C2.73788 0.897946 2.66158 0.989838 2.61817 1.09809L0.49449 6.62744L0.473407 6.68339C0.168277 7.48065 0.130614 8.3555 0.366096 9.17603C0.601578 9.99656 1.09744 10.7183 1.77892 11.2324L1.78621 11.2381L1.80567 11.2519L5.03458 13.6699L6.632 14.8789L7.60505 15.6136C7.71887 15.7 7.85785 15.7468 8.00076 15.7468C8.14366 15.7468 8.28264 15.7 8.39646 15.6136L9.36951 14.8789L10.9669 13.6699L14.2153 11.2373L14.2234 11.2308C14.9034 10.7166 15.3981 9.99558 15.6332 9.17616C15.8683 8.35673 15.8312 7.48313 15.5273 6.68664Z" fill="#E24329"/><path d="M15.5273 6.68663L15.5055 6.63068C14.4726 6.84267 13.4994 7.28015 12.6552 7.91186L8 11.4319C9.58526 12.6311 10.9654 13.6731 10.9654 13.6731L14.2137 11.2405L14.2218 11.234C14.9028 10.7198 15.3982 9.99837 15.6337 9.17825C15.8691 8.35812 15.8318 7.48371 15.5273 6.68663Z" fill="#FC6D26"/><path d="M5.03467 13.6731L6.63209 14.8821L7.60514 15.6168C7.71896 15.7032 7.85794 15.75 8.00085 15.75C8.14376 15.75 8.28274 15.7032 8.39655 15.6168L9.3696 14.8821L10.967 13.6731C10.967 13.6731 9.5853 12.6279 8.00004 11.4319C6.41478 12.6279 5.03467 13.6731 5.03467 13.6731Z" fill="#FCA326"/><path d="M3.3439 7.91184C2.50043 7.27883 1.52738 6.84021 0.49449 6.62741L0.473407 6.68336C0.168277 7.48062 0.130614 8.35546 0.366096 9.17599C0.601578 9.99652 1.09744 10.7183 1.77892 11.2324L1.78621 11.238L1.80567 11.2518L5.03458 13.6699C5.03458 13.6699 6.41306 12.6279 7.99995 11.4286L3.3439 7.91184Z" fill="#FC6D26"/></g><defs><clipPath id="clip0_53_142911"><rect width="16" height="16" fill="white"/></clipPath></defs>
</svg>