
<svg width="16" height="16" viewBox="0 0 16 16" fill="none" xmlns="http://www.w3.org/2000/svg">
  <defs>
    <symbol id='logo-jira' viewBox="0 0 16 16">
      <g clip-path="url(#clip0_1609_14371012)"><mask id="mask0_1609_14371014" maskUnits="userSpaceOnUse" x="0" y="0" width="16" height="16"><rect width="16" height="16" fill="url(#paint0_linear_1609_14371013)"/></mask><g mask="url(#mask0_1609_14371014)"><path d="M5.79213 8.09698L8.00757 5.87968L7.98964 5.86175C7.30369 5.16638 6.91743 4.22946 6.91449 3.25203C6.91153 2.26616 7.29876 1.31917 7.99163 0.617828L5.36866 3.24078L5.36664 3.23875L3.14737 5.4562L0.927039 7.68443C0.815864 7.79574 0.753418 7.94663 0.753418 8.10396C0.753418 8.26128 0.815864 8.41217 0.927039 8.52348L8.00744 15.5999C8.35538 15.2532 8.63145 14.8412 8.81983 14.3875C9.00823 13.9339 9.10522 13.4474 9.10522 12.9562C9.10522 12.4649 9.00823 11.9785 8.81983 11.5248C8.63143 11.0712 8.35532 10.6591 8.00732 10.3124L5.79213 8.09698Z" fill="currentColor"/></g><mask id="mask1_1609_14371016" maskUnits="userSpaceOnUse" x="0" y="0" width="16" height="16"><rect x="16" y="16" width="16" height="16" transform="rotate(-180 16 16)" fill="url(#paint1_linear_1609_14371015)"/></mask><g mask="url(#mask1_1609_14371016)"><path d="M10.2113 8.103L7.99585 10.3203L8.01378 10.3382C8.69973 11.0336 9.08598 11.9705 9.08892 12.948C9.09189 13.9338 8.70466 14.8808 8.01179 15.5822L10.6348 12.9592L10.6368 12.9612L12.856 10.7438L15.0764 8.51555C15.1876 8.40424 15.25 8.25335 15.25 8.09602C15.25 7.9387 15.1876 7.78781 15.0764 7.6765L7.99597 0.600105C7.64804 0.946819 7.37197 1.3588 7.18359 1.81244C6.99519 2.26612 6.8982 2.75254 6.8982 3.24378C6.8982 3.73503 6.99518 4.22145 7.18359 4.67513C7.37199 5.12882 7.6481 5.54084 7.99609 5.88758L10.2113 8.103Z" fill="currentColor"/></g></g><defs><linearGradient id="paint0_linear_1609_14371013" x1="7" y1="9.21875" x2="11.7812" y2="4.4375" gradientUnits="userSpaceOnUse"><stop/><stop offset="0.588542" stop-opacity="0"/></linearGradient><linearGradient id="paint1_linear_1609_14371015" x1="23" y1="25.2187" x2="27.7812" y2="20.4375" gradientUnits="userSpaceOnUse"><stop/><stop offset="0.588542" stop-opacity="0"/></linearGradient><clipPath id="clip0_1609_14371012"><rect width="16" height="16" fill="currentColor"/></clipPath></defs>
    </symbol>
  </defs>
</svg>