
<svg width="16" height="16" viewBox="0 0 16 16" fill="none" xmlns="http://www.w3.org/2000/svg">
  <rect width="16" height="16" rx="2" fill="#006699"/><path fill-rule="evenodd" clip-rule="evenodd" d="M5 3.50008C5 4.05554 4.61409 4.5 3.99408 4.5H3.98249C3.38582 4.5 3 4.05554 3 3.50008C3 2.93213 3.39765 2.5 4.00584 2.5C4.61409 2.5 4.98845 2.93213 5 3.50008ZM5 13V5.75H3V13H5ZM8.5 13H6.5C6.5 13 6.53178 6.43224 6.50007 5.75H8.5V6.78371C8.5 6.78371 9 5.75 10.5 5.75C12 5.75 13 6.59782 13 8.83107V13H11V9.11033C11 9.11033 11 7.46616 9.7361 7.46616C8.4722 7.46616 8.5 8.93972 8.5 8.93972V13Z" fill="white"/>
</svg>