
<svg width="16" height="16" viewBox="0 0 16 16" fill="none" xmlns="http://www.w3.org/2000/svg">
  <path fill-rule="evenodd" clip-rule="evenodd" d="M0 7.99951C0 3.58855 3.58881 0 7.99977 0C12.4106 0 15.9998 3.58855 15.9999 7.99951C15.9999 12.411 12.4106 15.9994 7.99977 15.9994C3.58881 15.9994 0 12.411 0 7.99951ZM0.366808 7.99951C0.366808 12.2085 3.79108 15.6327 7.99977 15.6327C12.2083 15.6327 15.6323 12.2085 15.6323 7.99951C15.6323 3.79082 12.2083 0.366807 7.99977 0.366807C3.79095 0.366807 0.366808 3.79082 0.366808 7.99951ZM12.6326 7.65321C12.6326 6.80508 12.3279 6.21771 12.0666 5.76054C12.0397 5.7168 12.0129 5.67357 11.9864 5.63079C11.6702 5.12064 11.3927 4.67279 11.3927 4.15124C11.3927 3.52039 11.8711 2.93316 12.5451 2.93316C12.5647 2.93316 12.5837 2.93474 12.6026 2.93631C12.6131 2.93718 12.6235 2.93804 12.634 2.93864C11.4131 1.82007 9.78639 1.13712 7.99975 1.13712C5.60225 1.13712 3.49294 2.36721 2.26585 4.23037C2.42686 4.2352 2.5786 4.2386 2.70748 4.2386C3.4253 4.2386 4.53643 4.1515 4.53643 4.1515C4.90637 4.12969 4.94999 4.67305 4.58044 4.71679C4.58044 4.71679 4.20867 4.76054 3.79498 4.78222L6.29408 12.2156L7.79591 7.71145L6.7267 4.78195C6.35715 4.76028 6.00705 4.71653 6.00705 4.71653C5.63724 4.69485 5.6806 4.12943 6.05041 4.15124C6.05041 4.15124 7.18374 4.23834 7.85807 4.23834C8.57575 4.23834 9.68701 4.15124 9.68701 4.15124C10.0572 4.12943 10.1007 4.67279 9.73102 4.71653C9.73102 4.71653 9.35847 4.76028 8.94556 4.78195L11.4256 12.1591L12.1101 9.87169L12.1642 9.69897L12.1642 9.69896C12.4338 8.83869 12.6326 8.20445 12.6326 7.65321ZM1.13714 7.99951C1.13714 10.7159 2.71575 13.0634 5.00487 14.1758L1.73129 5.20661C1.35051 6.0601 1.13714 7.0046 1.13714 7.99951ZM6.06115 14.583L8.12019 8.5998L10.2299 14.379C10.2436 14.413 10.2603 14.4442 10.2787 14.4736C9.56535 14.7244 8.79896 14.8626 7.99979 14.8626C7.32611 14.8626 6.67594 14.7637 6.06115 14.583ZM14.0214 4.70699C14.051 4.92558 14.0677 5.16024 14.0677 5.41266C14.0677 6.10906 13.9376 6.8919 13.5459 7.87075L11.4496 13.9315C13.4898 12.7418 14.8621 10.5314 14.8621 7.99964C14.8623 6.8065 14.5575 5.68453 14.0214 4.70699Z" fill="#464342"/>
</svg>