
<svg width="16" height="16" viewBox="0 0 16 16" fill="none" xmlns="http://www.w3.org/2000/svg">
  <g clip-path="url(#clip0_4898_18831128)"><rect width="16" height="16" rx="2" fill="white"/><path d="M9.47953 5.32657H6.50537V10.6719H9.47953V5.32657Z" fill="#FF5F00"/><path d="M6.70134 7.99934C6.70087 7.48453 6.81755 6.97636 7.04254 6.51332C7.26753 6.05028 7.59493 5.64451 7.99995 5.32673C7.49847 4.93258 6.89622 4.68747 6.26203 4.61941C5.62784 4.55136 4.98729 4.6631 4.41361 4.94188C3.83992 5.22065 3.35624 5.6552 3.01785 6.19587C2.67945 6.73654 2.5 7.3615 2.5 7.99934C2.5 8.63717 2.67945 9.26214 3.01785 9.8028C3.35624 10.3435 3.83992 10.778 4.41361 11.0568C4.98729 11.3356 5.62784 11.4473 6.26203 11.3793C6.89622 11.3112 7.49847 11.0661 7.99995 10.6719C7.59493 10.3542 7.26753 9.94839 7.04254 9.48535C6.81755 9.02231 6.70087 8.51414 6.70134 7.99934Z" fill="#EB001B"/><path d="M10.1003 4.59998C9.3382 4.5988 8.59799 4.85485 7.99951 5.3267C8.40418 5.6448 8.73134 6.05064 8.9563 6.5136C9.18125 6.97657 9.29814 7.48458 9.29814 7.99931C9.29814 8.51404 9.18125 9.02205 8.9563 9.48501C8.73134 9.94798 8.40418 10.3538 7.99951 10.6719C8.42554 11.0068 8.92546 11.235 9.45758 11.3374C9.9897 11.4399 10.5386 11.4136 11.0585 11.2609C11.5784 11.1081 12.0543 10.8333 12.4464 10.4593C12.8386 10.0853 13.1356 9.62295 13.3128 9.11084C13.49 8.59873 13.5422 8.05169 13.465 7.51532C13.3878 6.97894 13.1836 6.46879 12.8692 6.02739C12.5549 5.58599 12.1396 5.22614 11.6579 4.97784C11.1762 4.72954 10.6422 4.59999 10.1003 4.59998Z" fill="#F79E1B"/></g><defs><clipPath id="clip0_4898_18831128"><rect width="16" height="16" rx="2" fill="white"/></clipPath></defs>
</svg>