
<svg width="16" height="16" viewBox="0 0 16 16" fill="none" xmlns="http://www.w3.org/2000/svg">
  <path d="M14.8037 12.332L8.2866 16V13.1432L12.3435 10.9206L14.8037 12.3307V12.332ZM15.25 11.9297V4.25911L12.8656 5.63021V10.5612L15.25 11.9297ZM1.19625 12.332L7.7134 16V13.1432L3.65654 10.9206L1.19625 12.332ZM0.75 11.9297V4.25911L3.13439 5.63021V10.5612L0.75 11.9297ZM1.03005 3.76172L7.7134 0V2.76042L3.43014 5.10417L3.39612 5.1224L1.03005 3.76172ZM14.9699 3.76172L8.2866 0V2.76042L12.5699 5.10417L12.6039 5.1237L14.9699 3.76302V3.76172Z" fill="#8ED6FB"/><path d="M7.71343 12.5L3.7063 10.2995V5.95704L7.71343 8.25912V12.5ZM8.28662 12.5L12.2938 10.3021V5.95704L8.28662 8.25912V12.5ZM3.97719 5.46876L8.00003 3.25522L12.0229 5.45574L8.00003 7.76564L3.97719 5.45574V5.46876Z" fill="#1C78C0"/>
</svg>