
<svg width="16" height="16" viewBox="0 0 16 16" fill="none" xmlns="http://www.w3.org/2000/svg">
  <path d="M1.72819 9.68848C1.72819 10.2994 1.86229 10.7685 2.03756 11.0522C2.26735 11.4239 2.6101 11.5814 2.95952 11.5814C3.41021 11.5814 3.82251 11.4695 4.61705 10.3706C5.25358 9.48984 6.00361 8.25351 6.50827 7.47843L7.36291 6.16532C7.95659 5.25337 8.64376 4.2396 9.43163 3.55244C10.0748 2.99158 10.7687 2.67999 11.467 2.67999C12.6393 2.67999 13.756 3.35936 14.6107 4.63353C15.546 6.029 16 7.78669 16 9.60057C16 10.6789 15.7875 11.4712 15.4258 12.0972C15.0764 12.7025 14.3953 13.3073 13.2497 13.3073V11.5814C14.2306 11.5814 14.4754 10.68 14.4754 9.64842C14.4754 8.17839 14.1327 6.54701 13.3777 5.38134C12.8418 4.55452 12.1474 4.0493 11.3835 4.0493C10.5572 4.0493 9.89233 4.67248 9.14508 5.78362C8.74781 6.37397 8.33996 7.0934 7.88204 7.9052L7.37794 8.79823C6.36528 10.5938 6.10878 11.0027 5.60245 11.6776C4.71498 12.8594 3.95716 13.3073 2.95952 13.3073C1.77604 13.3073 1.02768 12.7949 0.564192 12.0226C0.185838 11.3933 0 10.5676 0 9.62672L1.72819 9.68848Z" fill="#0081FB"/><path d="M1.31885 4.76841C2.11117 3.5471 3.25458 2.69302 4.56603 2.69302C5.32552 2.69302 6.08057 2.91781 6.86899 3.56158C7.73142 4.26543 8.65061 5.42442 9.79736 7.33456L10.2085 8.02006C11.2012 9.67369 11.7659 10.5244 12.0964 10.9256C12.5215 11.4408 12.8192 11.5944 13.2059 11.5944C14.1868 11.5944 14.4317 10.693 14.4317 9.66145L15.9562 9.6136C15.9562 10.6919 15.7437 11.4842 15.382 12.1102C15.0326 12.7156 14.3515 13.3204 13.2059 13.3204C12.4937 13.3204 11.8627 13.1657 11.165 12.5075C10.6286 12.0023 10.0016 11.1048 9.51915 10.298L8.08418 7.90098C7.3642 6.69803 6.70374 5.8011 6.32149 5.39493C5.91031 4.95815 5.38172 4.43068 4.53821 4.43068C3.8555 4.43068 3.27573 4.90974 2.79054 5.64253L1.31885 4.76841Z" fill="url(#paint0_linear_1647_14041022)"/><path d="M4.582 4.41765C3.89929 4.41765 3.31952 4.89671 2.83433 5.6295C2.14828 6.66497 1.72819 8.20733 1.72819 9.68848C1.72819 10.2994 1.86229 10.7685 2.03756 11.0522L0.564192 12.0226C0.185838 11.3933 0 10.5676 0 9.62672C0 7.91577 0.469604 6.13249 1.36264 4.75538C2.15496 3.53407 3.29837 2.67999 4.60982 2.67999L4.582 4.41765Z" fill="url(#paint1_linear_1647_14041023)"/><defs><linearGradient id="paint0_linear_1647_14041022" x1="3.35028" y1="9.20297" x2="14.3671" y2="9.75938" gradientUnits="userSpaceOnUse"><stop stop-color="#0064E1"/><stop offset="0.4" stop-color="#0064E1"/><stop offset="0.83" stop-color="#0073EE"/><stop offset="1" stop-color="#0082FB"/></linearGradient><linearGradient id="paint1_linear_1647_14041023" x1="2.50382" y1="10.414" x2="2.50382" y2="6.35227" gradientUnits="userSpaceOnUse"><stop stop-color="#0082FB"/><stop offset="1" stop-color="#0064E0"/></linearGradient></defs>
</svg>