
<svg width="16" height="16" viewBox="0 0 16 16" fill="none" xmlns="http://www.w3.org/2000/svg">
  <defs>
    <symbol id='logo-microfrontend' viewBox="0 0 24 24">
      <g clip-path="url(#clip0_9665_43571157)"><rect width="16" height="16" rx="8" fill="#FEF0CD"/><path fill-rule="evenodd" clip-rule="evenodd" d="M4.8335 6.66666C5.06507 6.66666 5.28439 6.61418 5.48021 6.52047L8.00017 9.04043L10.5201 6.52047C10.7159 6.61418 10.9353 6.66666 11.1668 6.66666C11.9953 6.66666 12.6668 5.99509 12.6668 5.16666C12.6668 4.33823 11.9953 3.66666 11.1668 3.66666C10.3384 3.66666 9.66683 4.33823 9.66683 5.16666C9.66683 5.39823 9.71931 5.61755 9.81302 5.81337L8.00017 7.62622L6.18731 5.81337C6.28102 5.61755 6.3335 5.39823 6.3335 5.16666C6.3335 4.33823 5.66193 3.66666 4.8335 3.66666C4.00507 3.66666 3.3335 4.33823 3.3335 5.16666C3.3335 5.99509 4.00507 6.66666 4.8335 6.66666ZM5.3335 5.16666C5.3335 5.4428 5.10964 5.66666 4.8335 5.66666C4.55735 5.66666 4.3335 5.4428 4.3335 5.16666C4.3335 4.89052 4.55735 4.66666 4.8335 4.66666C5.10964 4.66666 5.3335 4.89052 5.3335 5.16666ZM11.1668 5.66666C11.443 5.66666 11.6668 5.4428 11.6668 5.16666C11.6668 4.89052 11.443 4.66666 11.1668 4.66666C10.8907 4.66666 10.6668 4.89052 10.6668 5.16666C10.6668 5.4428 10.8907 5.66666 11.1668 5.66666Z" fill="#A35200"/><path fill-rule="evenodd" clip-rule="evenodd" d="M4.8335 12.3333C5.66193 12.3333 6.3335 11.6618 6.3335 10.8333C6.3335 10.1802 5.91609 9.6246 5.3335 9.41868V7.66666H4.3335V9.41868C3.7509 9.6246 3.3335 10.1802 3.3335 10.8333C3.3335 11.6618 4.00507 12.3333 4.8335 12.3333ZM5.3335 10.8333C5.3335 11.1095 5.10964 11.3333 4.8335 11.3333C4.55735 11.3333 4.3335 11.1095 4.3335 10.8333C4.3335 10.5572 4.55735 10.3333 4.8335 10.3333C5.10964 10.3333 5.3335 10.5572 5.3335 10.8333Z" fill="#A35200"/><path fill-rule="evenodd" clip-rule="evenodd" d="M11.1668 12.3333C11.9953 12.3333 12.6668 11.6618 12.6668 10.8333C12.6668 10.1802 12.2494 9.6246 11.6668 9.41868V7.66666H10.6668V9.41868C10.0842 9.6246 9.66683 10.1802 9.66683 10.8333C9.66683 11.6618 10.3384 12.3333 11.1668 12.3333ZM11.6668 10.8333C11.6668 11.1095 11.443 11.3333 11.1668 11.3333C10.8907 11.3333 10.6668 11.1095 10.6668 10.8333C10.6668 10.5572 10.8907 10.3333 11.1668 10.3333C11.443 10.3333 11.6668 10.5572 11.6668 10.8333Z" fill="#A35200"/></g><rect x="0.5" y="0.5" width="15" height="15" rx="7.5" stroke="#FFDD8F"/><defs><clipPath id="clip0_9665_43571157"><rect width="16" height="16" rx="8" fill="currentColor"/></clipPath></defs>
    </symbol>
  </defs>
</svg>