
<svg width="16" height="16" viewBox="0 0 16 16" fill="none" xmlns="http://www.w3.org/2000/svg">
  <defs>
    <symbol id='logo-tiktok' viewBox="0 0 16 16">
      <g clip-path="url(#clip0_8611_42901138)"><mask id="mask0_8611_42901139" maskUnits="userSpaceOnUse" x="0" y="0" width="16" height="16"><path d="M16 0H0V16H16V0Z" fill="currentColor"/></mask><g mask="url(#mask0_8611_42901139)"><path d="M8.35333 0.0133333C9.22668 0 10.0933 0.00666668 10.96 0C11.0133 1.02 11.38 2.06 12.1267 2.78C12.8733 3.52 13.9267 3.86 14.9533 3.97333V6.66C13.9933 6.62667 13.0267 6.42668 12.1533 6.01333C11.7733 5.84 11.42 5.62 11.0733 5.39332C11.0667 7.34 11.08 9.28667 11.06 11.2267C11.0067 12.16 10.7 13.0867 10.16 13.8533C9.28668 15.1333 7.77332 15.9667 6.22 15.9933C5.26667 16.0467 4.31332 15.7867 3.5 15.3067C2.15333 14.5133 1.20667 13.06 1.06667 11.5C1.05333 11.1667 1.04667 10.8333 1.06 10.5067C1.18 9.24 1.80667 8.02668 2.78 7.2C3.88667 6.24 5.43333 5.78 6.88 6.05333C6.89333 7.04 6.85332 8.02667 6.85332 9.01332C6.19333 8.8 5.42 8.86 4.84 9.26C4.42 9.53333 4.1 9.95333 3.93332 10.4267C3.79332 10.7667 3.83332 11.14 3.84 11.5C4 12.5933 5.05333 13.5133 6.17333 13.4133C6.92 13.4067 7.63333 12.9733 8.02 12.34C8.14668 12.12 8.28668 11.8933 8.29333 11.6333C8.36 10.44 8.33333 9.25333 8.34 8.06C8.34668 5.37333 8.33333 2.69333 8.35333 0.0133333Z" fill="currentColor"/></g></g><defs><clipPath id="clip0_8611_42901138"><rect width="16" height="16" fill="currentColor"/></clipPath></defs>
    </symbol>
  </defs>
</svg>