
<svg width="16" height="16" viewBox="0 0 16 16" fill="none" xmlns="http://www.w3.org/2000/svg">
  <mask id="mask0_3908_2522976" maskUnits="userSpaceOnUse" x="1" y="0" width="14" height="16"><path d="M7.62322 0.101215L1.37744 3.72072C1.1435 3.85617 1 4.10623 1 4.37653V11.6206C1 11.8911 1.1435 12.141 1.37744 12.2764L7.62367 15.8987C7.85716 16.0338 8.14506 16.0338 8.37826 15.8987L14.6234 12.2764C14.8562 12.141 15 11.8909 15 11.6206V4.37653C15 4.10623 14.8562 3.85617 14.622 3.72072L8.37767 0.101215C8.26055 0.0337871 8.13009 0 7.99963 0C7.86917 0 7.73871 0.0337871 7.62159 0.101215" fill="white"/></mask><g mask="url(#mask0_3908_2522976)"><path d="M21.3115 3.10614L3.71197 -5.55524L-5.31201 12.9276L12.2871 21.5895L21.3115 3.10614Z" fill="url(#paint0_linear_3908_2522977)"/></g><mask id="mask1_3908_2522978" maskUnits="userSpaceOnUse" x="1" y="0" width="14" height="16"><path d="M1.15466 12.0805C1.21441 12.1584 1.28913 12.2258 1.37704 12.2764L6.7348 15.3836L7.62726 15.8986C7.76069 15.976 7.91279 16.0087 8.06223 15.9976C8.11204 15.9936 8.16185 15.9842 8.21048 15.9703L14.7978 3.86017C14.7474 3.8051 14.6884 3.75896 14.6223 3.72026L10.5327 1.34913L8.37089 0.100312C8.30951 0.0645887 8.24295 0.0392849 8.1752 0.0214233L1.15466 12.0805Z" fill="white"/></mask><g mask="url(#mask1_3908_2522978)"><path d="M-6.45447 5.66791L5.9726 22.555L22.4076 10.3636L9.9798 -6.52307L-6.45447 5.66791Z" fill="url(#paint1_linear_3908_2522979)"/></g><mask id="mask2_3908_2522980" maskUnits="userSpaceOnUse" x="1" y="0" width="14" height="16"><path d="M7.92506 0.00417044C7.82025 0.0145897 7.71781 0.0473349 7.62337 0.101217L1.39539 3.7103L8.11112 15.9916C8.20451 15.9782 8.29643 15.947 8.37945 15.8988L14.6252 12.2764C14.818 12.1642 14.9499 11.9743 14.9899 11.759L8.14373 0.0165236C8.09333 0.00655088 8.04292 0.00134277 7.99103 0.00134277C7.97028 0.00134277 7.94952 0.00238306 7.92877 0.00431807" fill="white"/></mask><g mask="url(#mask2_3908_2522980)"><path d="M1.39526 0.00134277V15.9919H14.9873V0.00134277H1.39526Z" fill="url(#paint2_linear_3908_2522981)"/></g><defs><linearGradient id="paint0_linear_3908_2522977" x1="12.5064" y1="-1.23817" x2="3.42452" y2="17.2147" gradientUnits="userSpaceOnUse"><stop offset="0.3" stop-color="#3E863D"/><stop offset="0.5" stop-color="#55934F"/><stop offset="0.8" stop-color="#5AAD45"/></linearGradient><linearGradient id="paint1_linear_3908_2522979" x1="-0.166463" y1="14.2082" x2="16.3157" y2="2.07865" gradientUnits="userSpaceOnUse"><stop offset="0.57" stop-color="#3E863D"/><stop offset="0.72" stop-color="#619857"/><stop offset="1" stop-color="#76AC64"/></linearGradient><linearGradient id="paint2_linear_3908_2522981" x1="1.39985" y1="7.99708" x2="14.9898" y2="7.99708" gradientUnits="userSpaceOnUse"><stop offset="0.16" stop-color="#6BBF47"/><stop offset="0.38" stop-color="#79B461"/><stop offset="0.47" stop-color="#75AC64"/><stop offset="0.7" stop-color="#659E5A"/><stop offset="0.9" stop-color="#3E863D"/></linearGradient></defs>
</svg>