
<svg width="16" height="16" viewBox="0 0 16 16" fill="none" xmlns="http://www.w3.org/2000/svg">
  <defs>
    <symbol id='logo-youtube' viewBox="0 0 16 16">
      <path fill-rule="evenodd" clip-rule="evenodd" d="M14.2509 2.73453C14.9397 2.91893 15.4811 3.46025 15.6654 4.14909C15.9987 5.39637 16 8.00025 16 8.00025C16 8.00025 16 10.6042 15.6654 11.8514C15.4811 12.5403 14.9397 13.0816 14.2509 13.266C13.0036 13.6005 7.99997 13.6005 7.99997 13.6005C7.99997 13.6005 2.99637 13.6005 1.74909 13.266C1.06026 13.0816 0.518933 12.5403 0.334541 11.8514C0 10.6042 0 8.00025 0 8.00025C0 8.00025 0 5.39637 0.334541 4.14909C0.518933 3.46025 1.06026 2.91893 1.74909 2.73453C2.99637 2.39999 7.99997 2.39999 7.99997 2.39999C7.99997 2.39999 13.0036 2.39999 14.2509 2.73453ZM10.5557 8.00049L6.5 10.4002V5.60074L10.5557 8.00049Z" fill="currentColor"/>
    </symbol>
  </defs>
</svg>