
<svg width="16" height="16" viewBox="0 0 16 16" fill="none" xmlns="http://www.w3.org/2000/svg">
  <defs>
    <symbol id='logo-turborepo' viewBox="0 0 16 16">
      <g clip-path="url(#clip0_3908_2257874)"><path fill-rule="evenodd" clip-rule="evenodd" d="M8 0V2C11.3137 2 14 4.68629 14 8C14 11.1453 11.5798 13.7254 8.5 13.9795V15.9846C12.6854 15.7265 16 12.2504 16 8C16 3.58172 12.4183 0 8 0ZM7.5 15.9846V13.9795C6.2188 13.8738 5.05174 13.3655 4.12558 12.5815L2.70769 13.9994C4.00133 15.1415 5.66717 15.8716 7.5 15.9846ZM2.00058 13.2923C0.755509 11.882 0 10.0292 0 8H2C2 9.47685 2.53358 10.8291 3.41847 11.8744L2.00058 13.2923Z" fill="url(#paint0_linear_3908_2257875)"/><rect x="4.5" y="4.5" width="7" height="7" rx="3.5" stroke="currentColor" stroke-width="2"/></g><defs><linearGradient id="paint0_linear_3908_2257875" x1="8.78665" y1="1.12392" x2="0.919421" y2="8.94531" gradientUnits="userSpaceOnUse"><stop stop-color="#B7B7B7"/><stop offset="1" stop-color="#EAEAEA"/></linearGradient><clipPath id="clip0_3908_2257874"><rect width="16" height="16" fill="currentColor"/></clipPath></defs>
    </symbol>
  </defs>
</svg>