
<svg width="16" height="16" viewBox="0 0 16 16" fill="none" xmlns="http://www.w3.org/2000/svg">
  <defs>
    <symbol id='logo-ruby' viewBox="0 0 16 16">
      <g clip-path="url(#clip0_3910_21631095)"><path fill-rule="evenodd" clip-rule="evenodd" d="M12.396 10.5606L3.26099 16L15.0891 15.1951L16.0001 3.23514L12.396 10.5606Z" fill="url(#paint0_linear_3910_21631096)"/><path fill-rule="evenodd" clip-rule="evenodd" d="M15.1083 15.187L14.0917 8.15063L11.3225 11.8174L15.1083 15.187Z" fill="url(#paint1_linear_3910_21631097)"/><path fill-rule="evenodd" clip-rule="evenodd" d="M15.1222 15.187L7.67423 14.6007L3.30054 15.9847L15.1222 15.187Z" fill="url(#paint2_linear_3910_21631098)"/><path fill-rule="evenodd" clip-rule="evenodd" d="M3.31108 15.9862L5.17167 9.87387L1.07739 10.7518L3.31108 15.9862Z" fill="url(#paint3_linear_3910_21631099)"/><path fill-rule="evenodd" clip-rule="evenodd" d="M11.3219 11.8376L9.60986 5.11307L4.71045 9.71839L11.3219 11.8376Z" fill="url(#paint4_linear_3910_21631100)"/><path fill-rule="evenodd" clip-rule="evenodd" d="M15.6116 5.2078L10.9803 1.4147L9.69067 5.59569L15.6116 5.2078Z" fill="url(#paint5_linear_3910_21631101)"/><path fill-rule="evenodd" clip-rule="evenodd" d="M13.4458 0.0622372L10.7219 1.5717L9.00342 0.0419922L13.4458 0.0622372Z" fill="url(#paint6_linear_3910_21631102)"/><path fill-rule="evenodd" clip-rule="evenodd" d="M0 12.8021L1.14107 10.7153L0.218039 8.22919L0 12.8021Z" fill="url(#paint7_linear_3910_21631103)"/><path fill-rule="evenodd" clip-rule="evenodd" d="M0.156738 8.15062L1.08542 10.7922L5.12075 9.88432L9.72783 5.59077L11.028 1.44954L8.98076 0L5.50022 1.30621C4.40365 2.32898 2.27575 4.35267 2.19903 4.39073C2.12312 4.4296 0.793896 6.94888 0.156738 8.15062Z" fill="currentColor"/><path fill-rule="evenodd" clip-rule="evenodd" d="M3.41754 3.40521C5.79416 1.04222 8.85801 -0.353874 10.0338 0.83572C11.2089 2.02531 9.96274 4.91629 7.58612 7.27848C5.20949 9.64066 2.1836 11.1137 1.00862 9.92409C-0.167177 8.7353 1.04092 5.76739 3.41754 3.40521Z" fill="url(#paint8_linear_3910_21631104)"/><path fill-rule="evenodd" clip-rule="evenodd" d="M3.31104 15.9838L5.1571 9.85202L11.288 11.8271C9.07129 13.9115 6.60584 15.6737 3.31104 15.9838Z" fill="url(#paint9_linear_3910_21631105)"/><path fill-rule="evenodd" clip-rule="evenodd" d="M9.73584 5.5787L11.3098 11.8303C13.1615 9.87792 14.8234 7.77892 15.6373 5.18271L9.73584 5.5787Z" fill="url(#paint10_linear_3910_21631106)"/><path fill-rule="evenodd" clip-rule="evenodd" d="M15.6212 5.2141C16.2511 3.30783 16.3965 0.573143 13.4262 0.0653992L10.989 1.41533L15.6212 5.2141Z" fill="url(#paint11_linear_3910_21631107)"/><path fill-rule="evenodd" clip-rule="evenodd" d="M0 12.7746C0.0872155 15.9207 2.35078 15.9676 3.315 15.9952L1.08777 10.7792L0 12.7746Z" fill="#545454"/><path fill-rule="evenodd" clip-rule="evenodd" d="M9.74463 5.58843C11.1675 6.46544 14.0352 8.22675 14.0934 8.25914C14.1837 8.31016 15.3297 6.3213 15.5898 5.1973L9.74463 5.58843Z" fill="url(#paint12_radial_3910_21631108)"/><path fill-rule="evenodd" clip-rule="evenodd" d="M5.15454 9.85202L7.62242 14.6266C9.08166 13.833 10.2243 12.8661 11.2709 11.8304L5.15454 9.85202Z" fill="url(#paint13_radial_3910_21631109)"/><path fill-rule="evenodd" clip-rule="evenodd" d="M1.07819 10.7857L0.728516 14.961C1.38828 15.8648 2.29597 15.9433 3.24807 15.8729C2.55923 14.1537 1.18317 10.7161 1.07819 10.7857Z" fill="url(#paint14_linear_3910_21631110)"/><path fill-rule="evenodd" clip-rule="evenodd" d="M10.9746 1.4259L15.8772 2.11584C15.6156 1.00399 14.8121 0.286509 13.4425 0.0621948L10.9746 1.4259Z" fill="url(#paint15_linear_3910_21631111)"/></g><defs><linearGradient id="paint0_linear_3910_21631096" x1="14.0574" y1="17.4551" x2="10.6678" y2="11.4872" gradientUnits="userSpaceOnUse"><stop stop-color="#A8A8A8"/><stop offset="0.41" stop-color="#818181"/><stop offset="0.9899" stop-color="#4D4D4D"/><stop offset="0.99" stop-color="#4D4D4D"/></linearGradient><linearGradient id="paint1_linear_3910_21631097" x1="15.7387" y1="12.4351" x2="11.3811" y2="9.51901" gradientUnits="userSpaceOnUse"><stop stop-color="#444444"/><stop offset="0.99" stop-color="#4D4D4D"/><stop offset="1" stop-color="#911209"/><stop offset="1.0001" stop-color="#4D4D4D"/></linearGradient><linearGradient id="paint2_linear_3910_21631098" x1="12.2583" y1="17.6362" x2="7.9009" y2="14.7202" gradientUnits="userSpaceOnUse"><stop stop-color="#3F3F3F"/><stop offset="0.99" stop-color="#4D4D4D"/><stop offset="1" stop-color="#484848"/></linearGradient><linearGradient id="paint3_linear_3910_21631099" x1="3.12504" y1="10.3161" x2="3.80307" y2="14.7103" gradientUnits="userSpaceOnUse"><stop stop-color="white"/><stop offset="0.23" stop-color="#9C9C9C"/><stop offset="0.46" stop-color="#7F7F7F"/><stop offset="0.99" stop-color="#535353"/><stop offset="1" stop-color="#535353"/></linearGradient><linearGradient id="paint4_linear_3910_21631100" x1="7.76322" y1="6.21239" x2="8.01306" y2="10.6975" gradientUnits="userSpaceOnUse"><stop stop-color="white"/><stop offset="0.23" stop-color="#999999"/><stop offset="0.56" stop-color="#666666"/><stop offset="0.99" stop-color="#545454"/><stop offset="1" stop-color="#545454"/></linearGradient><linearGradient id="paint5_linear_3910_21631101" x1="11.8794" y1="2.06667" x2="12.6272" y2="5.28027" gradientUnits="userSpaceOnUse"><stop stop-color="white"/><stop offset="0.18" stop-color="#939393"/><stop offset="0.4" stop-color="#6C6C6C"/><stop offset="0.99" stop-color="#545454"/><stop offset="1" stop-color="#545454"/></linearGradient><linearGradient id="paint6_linear_3910_21631102" x1="9.60796" y1="0.934512" x2="12.8169" y2="-0.665503" gradientUnits="userSpaceOnUse"><stop stop-color="white"/><stop offset="0.54" stop-color="#6D6D6D"/><stop offset="0.99" stop-color="#626262"/><stop offset="1" stop-color="#626262"/></linearGradient><linearGradient id="paint7_linear_3910_21631103" x1="0.315211" y1="9.19566" x2="0.580486" y2="11.8442" gradientUnits="userSpaceOnUse"><stop stop-color="white"/><stop offset="0.31" stop-color="#818181"/><stop offset="0.99" stop-color="#656565"/><stop offset="1" stop-color="#656565"/></linearGradient><linearGradient id="paint8_linear_3910_21631104" x1="-1.49848" y1="12.5603" x2="10.9386" y2="-0.192929" gradientUnits="userSpaceOnUse"><stop stop-color="#5F5F5F"/><stop offset="0.07" stop-color="white"/><stop offset="0.17" stop-color="white"/><stop offset="0.27" stop-color="#727272"/><stop offset="0.33" stop-color="#424242"/><stop offset="0.46" stop-color="#525252"/><stop offset="0.72" stop-color="#5A5A5A"/><stop offset="0.99" stop-color="#797979"/><stop offset="1" stop-color="#797979"/></linearGradient><linearGradient id="paint9_linear_3910_21631105" x1="8.00086" y1="13.8503" x2="4.26418" y2="12.9306" gradientUnits="userSpaceOnUse"><stop stop-color="#474747"/><stop offset="0.54" stop-color="#4D4D4D"/><stop offset="0.99" stop-color="#5B5B5B"/><stop offset="1" stop-color="#5B5B5B"/></linearGradient><linearGradient id="paint10_linear_3910_21631106" x1="14.4169" y1="9.35435" x2="11.0902" y2="6.38101" gradientUnits="userSpaceOnUse"><stop stop-color="#3D3D3D"/><stop offset="0.99" stop-color="#414141"/><stop offset="1" stop-color="#4C4C4C"/></linearGradient><linearGradient id="paint11_linear_3910_21631107" x1="15.636" y1="3.88174" x2="13.9781" y2="2.11424" gradientUnits="userSpaceOnUse"><stop stop-color="#3E3E3E"/><stop offset="0.99" stop-color="#4E4E4E"/><stop offset="1" stop-color="#4E4E4E"/></linearGradient><radialGradient id="paint12_radial_3910_21631108" cx="0" cy="0" r="1" gradientUnits="userSpaceOnUse" gradientTransform="translate(11.6151 6.42885) scale(4.06663 4.07795)"><stop stop-color="#545454"/><stop offset="0.99" stop-color="#434343"/><stop offset="1" stop-color="#7E0E08"/><stop offset="1.0001" stop-color="#434343"/></radialGradient><radialGradient id="paint13_radial_3910_21631109" cx="0" cy="0" r="1" gradientUnits="userSpaceOnUse" gradientTransform="translate(5.98327 11.8029) scale(5.40604 5.42109)"><stop stop-color="#525252"/><stop offset="0.99" stop-color="#444444"/><stop offset="1" stop-color="#444444"/></radialGradient><linearGradient id="paint14_linear_3910_21631110" x1="2.15383" y1="15.9802" x2="0.799837" y2="11.3993" gradientUnits="userSpaceOnUse"><stop stop-color="#505050"/><stop offset="0.43" stop-color="#545454"/><stop offset="0.9899" stop-color="#606060"/><stop offset="0.99" stop-color="#606060"/></linearGradient><linearGradient id="paint15_linear_3910_21631111" x1="12.488" y1="0.793273" x2="15.5109" y2="2.12388" gradientUnits="userSpaceOnUse"><stop stop-color="#5A5A5A"/><stop offset="0.44" stop-color="#4D4D4D"/><stop offset="0.99" stop-color="#464646"/><stop offset="1" stop-color="#464646"/></linearGradient><clipPath id="clip0_3910_21631095"><rect width="16" height="16" fill="currentColor"/></clipPath></defs>
    </symbol>
  </defs>
</svg>