
<svg width="16" height="16" viewBox="0 0 16 16" fill="none" xmlns="http://www.w3.org/2000/svg">
  <path d="M12.8593 3.88863C11.9395 3.46751 10.9685 3.16876 9.97103 3C9.83453 3.244 9.71103 3.49505 9.60104 3.75208C8.53856 3.59198 7.45809 3.59198 6.39561 3.75208C6.28556 3.49507 6.16206 3.24403 6.02562 3C5.02753 3.17018 4.05585 3.46965 3.13511 3.89083C1.30721 6.59525 0.811693 9.2325 1.05945 11.8323C2.12992 12.6232 3.32807 13.2247 4.60184 13.6107C4.88865 13.2249 5.14245 12.8157 5.36053 12.3873C4.94631 12.2326 4.54652 12.0417 4.16578 11.8169C4.26599 11.7442 4.36399 11.6693 4.45869 11.5967C5.56655 12.1177 6.77572 12.3878 7.99998 12.3878C9.22423 12.3878 10.4334 12.1177 11.5413 11.5967C11.6371 11.6748 11.7351 11.7497 11.8342 11.8169C11.4527 12.0421 11.0522 12.2333 10.6372 12.3884C10.855 12.8166 11.1088 13.2255 11.3959 13.6107C12.6708 13.2263 13.8698 12.6251 14.9405 11.8334C15.2312 8.81847 14.4439 6.20544 12.8593 3.88863ZM5.67436 10.2334C4.98394 10.2334 4.41354 9.60689 4.41354 8.83608C4.41354 8.06528 4.96412 7.43322 5.67215 7.43322C6.38019 7.43322 6.94618 8.06528 6.93407 8.83608C6.92195 9.60689 6.37799 10.2334 5.67436 10.2334ZM10.3256 10.2334C9.63408 10.2334 9.06588 9.60689 9.06588 8.83608C9.06588 8.06528 9.61646 7.43322 10.3256 7.43322C11.0347 7.43322 11.5963 8.06528 11.5842 8.83608C11.5721 9.60689 11.0292 10.2334 10.3256 10.2334Z" fill="black"/>
</svg>