
<svg width="16" height="16" viewBox="0 0 16 16" fill="none" xmlns="http://www.w3.org/2000/svg">
  <defs>
    <symbol id='logo-amex' viewBox="0 0 16 16">
      <g clip-path="url(#clip0_4915_18381121)"><path fill-rule="evenodd" clip-rule="evenodd" d="M2 0C0.895431 0 0 0.895431 0 2V14C0 15.1046 0.895431 16 2 16H14C15.1046 16 16 15.1046 16 14V13.5H6.5V8.5H4.3999L7.0999 2.5H15.9999L15.9999 3.5H14.3933L13.5285 5.95927L12.6694 3.50589L11 3.5V7.4907H12.0499V4.74932L13.0462 7.4907H13.9901L14.9661 4.75862V7.5L15.9999 7.4907L16 8.5H14.6475L13.5287 9.76772L12.413 8.5H11H7.5V12.5H11H12.3746L13.4985 11.2196L14.6339 12.5H16V12.4435V2C16 0.895431 15.1046 0 14 0H2ZM16 12.4435L16 8.53141L14.2131 10.4977L16 12.4435ZM11 12.5L12.8255 10.4977L11 8.5V9.42145H8.63346V10.047H10.9436V10.9533H8.63346V11.5677H11V12.5ZM7.7934 3.5L6 7.5H7.23L7.56817 6.69894H9.40141L9.73957 7.5H11L9.21413 3.5H7.7934ZM7.94742 5.80125L8.4851 4.52789L9.02246 5.80125H7.94742Z" fill="currentColor"/></g><defs><clipPath id="clip0_4915_18381121"><rect width="16" height="16" rx="2" fill="currentColor"/></clipPath></defs>
    </symbol>
  </defs>
</svg>