
<svg width="16" height="16" viewBox="0 0 16 16" fill="none" xmlns="http://www.w3.org/2000/svg">
  <path d="M13.2615 3.08091C13.2505 3.00011 13.1805 2.95528 13.1224 2.9504C13.0648 2.94552 11.9355 2.92821 11.9355 2.92821C11.9355 2.92821 11.2244 2.00313 11.1311 1.90903C11.0379 1.81492 10.8556 1.84333 10.7848 1.86464C10.7848 1.86464 10.374 1.92013 10.0769 2.0129C10.0271 1.85043 9.95407 1.65068 9.84976 1.45004C9.51353 0.802843 9.02105 0.4606 8.426 0.459715H8.42381C8.38243 0.459715 8.3415 0.463709 8.30015 0.467259C8.28254 0.445952 8.26493 0.425091 8.24645 0.404669C7.98721 0.125017 7.65494 -0.0112582 7.25663 0.000726965C6.4882 0.0229217 5.72286 0.582672 5.10229 1.57699C4.6657 2.27657 4.33341 3.15549 4.23923 3.83597C3.3568 4.11163 2.73976 4.30427 2.72612 4.30872C2.28073 4.44987 2.26664 4.46363 2.20855 4.88712C2.16542 5.20715 1 14.2963 1 14.2963L11 16L14.9995 14.9386C14.9995 14.9386 13.2725 3.16171 13.2615 3.08091ZM9.58791 2.1656C9.36301 2.23573 9.10729 2.31563 8.83002 2.40219C8.82431 2.00979 8.77809 1.4638 8.59677 0.991941C9.17992 1.10336 9.46687 1.76876 9.58791 2.1656ZM8.31905 2.56199C7.80721 2.72179 7.2487 2.89624 6.68845 3.07115C6.846 2.46256 7.14485 1.85665 7.51191 1.45936C7.64834 1.31155 7.83933 1.14686 8.06555 1.05275C8.27812 1.5002 8.32434 2.13364 8.31905 2.56199ZM7.27202 0.516531C7.45247 0.512536 7.60431 0.552488 7.73416 0.638603C7.52642 0.747357 7.32572 0.903608 7.13737 1.10735C6.64927 1.63559 6.27518 2.45546 6.12598 3.24648C5.66078 3.39163 5.2057 3.53413 4.78671 3.66464C5.05124 2.41951 6.08592 0.551155 7.27202 0.516531Z" fill="#95BF47"/><path d="M13.1228 2.95098C13.0652 2.9461 11.9359 2.92879 11.9359 2.92879C11.9359 2.92879 11.224 2.0037 11.1307 1.9096C11.0959 1.87453 11.0488 1.85633 10.9995 1.84879L10.9999 15.9997L14.9999 14.9388C14.9999 14.9388 13.2729 3.16228 13.2619 3.08148C13.2509 3.00068 13.1805 2.95586 13.1228 2.95098Z" fill="#5E8E3E"/><path d="M8.42083 5.1457L7.92924 7.00071C7.92924 7.00071 7.38086 6.74903 6.73082 6.79031C5.77752 6.85114 5.76739 7.45749 5.7771 7.60975C5.82902 8.43938 7.99304 8.6205 8.11453 10.5639C8.21003 12.0926 7.31043 13.1384 6.01431 13.221C4.45851 13.32 3.60205 12.3945 3.60205 12.3945L3.9317 10.9802C3.9317 10.9802 4.79386 11.6363 5.48396 11.5924C5.93465 11.5635 6.09572 11.1938 6.07943 10.9323C6.01167 9.85007 4.24945 9.91399 4.13811 8.13575C4.04436 6.63941 5.01879 5.12306 7.16871 4.98634C7.997 4.93263 8.42083 5.1457 8.42083 5.1457Z" fill="white"/>
</svg>