
<svg width="16" height="16" viewBox="0 0 16 16" fill="none" xmlns="http://www.w3.org/2000/svg">
  <defs>
    <symbol id='logo-svelte' viewBox="0 0 16 16">
      <g clip-path="url(#clip0_53_141917)"><path fill-rule="evenodd" clip-rule="evenodd" d="M7.26183 0.705096C9.37709 -0.637277 12.3195 -0.0135479 13.7974 2.11527C14.5161 3.1051 14.8008 4.35255 14.5703 5.57289C14.4754 6.14238 14.2584 6.68476 13.933 7.17289C14.4076 8.05425 14.5567 9.0712 14.3805 10.061C14.1771 11.2407 13.472 12.2848 12.4551 12.922L8.72624 15.2949C6.61098 16.6373 3.68217 16.0136 2.19065 13.8848C1.48556 12.8949 1.20082 11.6475 1.41776 10.4407C1.51268 9.8712 1.72963 9.32882 2.05505 8.84069C1.58048 7.95933 1.43132 6.94238 1.60759 5.95255C1.81098 4.77289 2.51607 3.72882 3.53302 3.09154L7.26183 0.705096ZM3.72285 12.9085C4.42793 13.9254 5.68895 14.4 6.89573 14.0881C7.16692 14.0068 7.42454 13.8983 7.65505 13.7492L11.3839 11.3763C11.994 10.9966 12.4279 10.3593 12.55 9.65425C12.672 8.92204 12.5093 8.17628 12.0754 7.57967C11.3703 6.56272 10.1093 6.08814 8.90251 6.40001C8.63132 6.48136 8.37369 6.58984 8.14319 6.73899L6.71946 7.64747C6.65166 7.68814 6.57031 7.71526 6.48895 7.74238C6.12285 7.8373 5.74319 7.7017 5.52624 7.38984C5.4042 7.21357 5.34997 6.98306 5.39064 6.76611C5.43132 6.54916 5.55336 6.37289 5.74319 6.25086L9.45844 3.87797C9.52624 3.8373 9.60759 3.81018 9.68895 3.78306C10.0551 3.68814 10.4347 3.82374 10.6517 4.1356C10.7601 4.29831 10.8144 4.5017 10.8008 4.69153L10.7873 4.82713L10.9228 4.8678C11.4517 5.03052 11.9398 5.27458 12.3873 5.60001L12.5771 5.7356L12.6449 5.51865C12.6856 5.39662 12.7127 5.28814 12.7398 5.16611C12.8618 4.43391 12.6991 3.68814 12.2652 3.09153C11.5601 2.07458 10.2991 1.60001 9.09234 1.91187C8.82115 1.99323 8.56353 2.1017 8.33302 2.25086L4.6042 4.62374C3.99403 5.0034 3.56014 5.64069 3.4381 6.34577C3.30251 7.07797 3.47878 7.82374 3.89912 8.42035C4.6042 9.4373 5.86522 9.91187 7.072 9.60001C7.34319 9.53221 7.60081 9.42374 7.83132 9.27458L9.25505 8.36611C9.32285 8.32543 9.4042 8.29831 9.48556 8.27119C9.85166 8.17628 10.2313 8.31187 10.4483 8.62374C10.5703 8.80001 10.6245 9.03052 10.5839 9.24747C10.5432 9.46441 10.4212 9.64069 10.2313 9.76272L6.51607 12.1356C6.44827 12.1763 6.36692 12.2034 6.28557 12.2305L6.28556 12.2305C5.91946 12.3254 5.5398 12.1763 5.32285 11.8644C5.21437 11.7017 5.16014 11.4983 5.1737 11.3085L5.18725 11.1729L5.05166 11.1322C4.52285 10.9695 4.03471 10.7254 3.58725 10.4L3.39742 10.2644L3.32963 10.4814C3.31607 10.5424 3.30251 10.6 3.28895 10.6576C3.27539 10.7153 3.26183 10.7729 3.24827 10.8339C3.12624 11.5661 3.28895 12.3119 3.72285 12.9085Z" fill="currentColor"/></g><defs><clipPath id="clip0_53_141917"><rect width="16" height="16" fill="currentColor"/></clipPath></defs>
    </symbol>
  </defs>
</svg>