
<svg width="16" height="16" viewBox="0 0 16 16" fill="none" xmlns="http://www.w3.org/2000/svg">
  <defs>
    <symbol id='logo-google-cloud-platform' viewBox="0 0 16 16">
      <path fill-rule="evenodd" clip-rule="evenodd" d="M10.202 5.07982H10.1626C9.47448 4.51756 8.5995 4.24213 7.7168 4.30991C6.8341 4.37769 6.01044 4.78355 5.41444 5.4444C5.40257 5.442 5.38889 5.44622 5.37431 5.45497C5.76344 5.53181 6.14211 5.66032 6.50022 5.83816C7.12498 6.14842 7.67019 6.60039 8.09321 7.15872L6.0778 9.19351C5.96208 8.93493 5.78596 8.70855 5.56454 8.5338C5.34312 8.35905 5.08302 8.24115 4.80654 8.1902C4.53007 8.13926 4.24548 8.15679 3.97719 8.24131C3.7089 8.32582 3.46493 8.47478 3.2662 8.67542C3.06747 8.87606 2.91992 9.12238 2.83622 9.39325C2.75251 9.66412 2.73514 9.95144 2.7856 10.2306C2.83606 10.5097 2.95284 10.7723 3.12593 10.9959C3.29901 11.2194 3.52323 11.3972 3.77935 11.5141L3.77803 11.5154C4.00227 11.6182 4.24572 11.6715 4.49204 11.6715H7.96655V11.6966L7.97147 11.6916H11.446C11.6741 11.6916 11.9 11.6462 12.1108 11.5581C12.3216 11.4699 12.5131 11.3407 12.6744 11.1778C12.8357 11.015 12.9637 10.8216 13.051 10.6088C13.1383 10.396 13.1832 10.1679 13.1832 9.93761C13.1832 9.70727 13.1383 9.4792 13.051 9.2664C12.9637 9.0536 12.8357 8.86024 12.6744 8.69737C12.5131 8.5345 12.3216 8.4053 12.1108 8.31716C11.9 8.22901 11.6741 8.18365 11.446 8.18365V7.83384C11.4559 7.30354 11.3464 6.77789 11.1258 6.29653C10.9105 5.82692 10.595 5.41144 10.202 5.07982ZM1.76905 13.5437L1.76416 13.5634C2.54955 14.1622 3.50789 14.4841 4.49204 14.4798H7.95161L7.97147 14.4999H11.446C12.4162 14.5075 13.3631 14.1996 14.1466 13.6218C14.9301 13.044 15.5086 12.2269 15.7965 11.2914C16.0844 10.3559 16.0664 9.35168 15.7451 8.42732C15.4239 7.50296 14.8165 6.70753 14.0128 6.15871C13.6931 4.97017 13.0368 3.90169 12.1243 3.08435L12.0961 3.11278L12.0999 3.07951C11.3032 2.36953 10.3404 1.87633 9.30236 1.6465C8.26434 1.41668 7.18543 1.45781 6.16754 1.76601C5.14965 2.07422 4.22638 2.63932 3.48496 3.40794C2.74353 4.17656 2.20842 5.12333 1.93018 6.1588C1.96205 6.14561 1.99463 6.13469 2.02768 6.12606C1.97488 6.16129 1.92274 6.19768 1.8713 6.23523C1.10836 6.79211 0.536746 7.57567 0.236297 8.47646C-0.0641533 9.37726 -0.0784364 10.3503 0.195442 11.2597C0.469321 12.1691 1.01768 12.9694 1.76394 13.5489L1.76905 13.5437Z" fill="currentColor"/>
    </symbol>
  </defs>
</svg>