
<svg width="16" height="16" viewBox="0 0 16 16" fill="none" xmlns="http://www.w3.org/2000/svg">
  <g clip-path="url(#clip0_3908_2372916)"><path d="M13.7974 2.11527C12.3195 -0.0135479 9.37709 -0.637277 7.26183 0.705096L3.53302 3.09154C2.51607 3.72882 1.81098 4.77289 1.60759 5.95255C1.43132 6.94238 1.58048 7.95933 2.05505 8.84069C1.72963 9.32882 1.51268 9.8712 1.41776 10.4407C1.20082 11.6475 1.48556 12.8949 2.19065 13.8848C3.68217 16.0136 6.61098 16.6373 8.72624 15.2949L12.4551 12.922C13.472 12.2848 14.1771 11.2407 14.3805 10.061C14.5567 9.0712 14.4076 8.05425 13.933 7.17289C14.2584 6.68476 14.4754 6.14238 14.5703 5.57289C14.8008 4.35255 14.5161 3.1051 13.7974 2.11527Z" fill="#FF3E00"/><path d="M6.8958 14.0881C5.68902 14.4 4.428 13.9254 3.72292 12.9085C3.28902 12.3119 3.12631 11.5661 3.24834 10.8339C3.27546 10.7119 3.30258 10.6034 3.3297 10.4813L3.3975 10.2644L3.58733 10.4C4.03478 10.7254 4.52292 10.9695 5.05173 11.1322L5.18733 11.1729L5.17377 11.3085C5.16021 11.4983 5.21445 11.7017 5.32292 11.8644C5.53987 12.1763 5.91953 12.3254 6.28563 12.2305C6.36699 12.2034 6.44834 12.1763 6.51614 12.1356L10.2314 9.7627C10.4212 9.64067 10.5433 9.4644 10.5839 9.24745C10.6246 9.0305 10.5704 8.79999 10.4483 8.62372C10.2314 8.31186 9.85173 8.17626 9.48563 8.27118C9.40428 8.2983 9.32292 8.32542 9.25512 8.36609L7.83139 9.27457C7.60089 9.42372 7.34326 9.5322 7.07207 9.59999C5.86529 9.91186 4.60428 9.43728 3.89919 8.42033C3.47885 7.82372 3.30258 7.07796 3.43817 6.34576C3.56021 5.64067 3.99411 5.00338 4.60428 4.62372L8.33309 2.25084C8.5636 2.10169 8.82123 1.99321 9.09241 1.91186C10.2992 1.59999 11.5602 2.07457 12.2653 3.09152C12.6992 3.68813 12.8619 4.43389 12.7399 5.16609C12.7128 5.28813 12.6856 5.3966 12.645 5.51864L12.5772 5.73559L12.3873 5.59999C11.9399 5.27457 11.4517 5.0305 10.9229 4.86779L10.7873 4.82711L10.8009 4.69152C10.8144 4.50169 10.7602 4.2983 10.6517 4.13559C10.4348 3.82372 10.0551 3.68813 9.68902 3.78304C9.60767 3.81016 9.52631 3.83728 9.45851 3.87796L5.74326 6.25084C5.55343 6.37287 5.43139 6.54915 5.39072 6.76609C5.35004 6.98304 5.40428 7.21355 5.52631 7.38982C5.74326 7.70169 6.12292 7.83728 6.48902 7.74237C6.57038 7.71525 6.65173 7.68813 6.71953 7.64745L8.14326 6.73898C8.37377 6.58982 8.63139 6.48135 8.90258 6.39999C10.1094 6.08813 11.3704 6.56271 12.0755 7.57965C12.5094 8.17626 12.6721 8.92203 12.55 9.65423C12.428 10.3593 11.9941 10.9966 11.3839 11.3763L7.65512 13.7491C7.42461 13.8983 7.16699 14.0068 6.8958 14.0881Z" fill="white"/></g><defs><clipPath id="clip0_3908_2372916"><rect width="16" height="16" fill="white"/></clipPath></defs>
</svg>