
<svg width="16" height="16" viewBox="0 0 16 16" fill="none" xmlns="http://www.w3.org/2000/svg">
  <g clip-path="url(#clip0_2130_59501030)"><path d="M0.367425 13.3436L2.56401 15.5402C2.64948 15.6256 2.76059 15.6684 2.86315 15.6684C2.96572 15.6684 3.08537 15.6256 3.1623 15.5402C4.49563 14.2068 6.23921 13.5402 7.9828 13.5402C9.72639 13.5402 11.47 14.2068 12.8033 15.5402C12.8888 15.6256 12.9999 15.6684 13.1025 15.6684C13.205 15.6684 13.3247 15.6256 13.4016 15.5402L15.5982 13.3436C15.8973 13.0444 15.8973 12.5487 15.5982 12.2496L10.3931 7.04443C9.72639 6.37777 8.8546 6.04443 7.97425 6.04443C7.09391 6.04443 6.22212 6.37777 5.55546 7.04443L0.367425 12.2496C0.06828 12.5487 0.06828 13.0444 0.367425 13.3436Z" fill="#5548D9"/><path d="M3.61538 7.18974L4.67521 6.12991C5.5641 5.24102 6.74359 4.75384 8 4.75384C9.25641 4.75384 10.4359 5.24102 11.3248 6.12991L12.3846 7.18974L15.8718 3.70256C16.0427 3.53162 16.0427 3.26666 15.8718 3.09572L13.4188 0.659821C13.2479 0.488881 12.9829 0.488881 12.812 0.659821C10.1538 3.31794 5.83761 3.31794 3.17094 0.659821C3 0.488881 2.73504 0.488881 2.5641 0.659821L0.128205 3.09572C-0.0427351 3.26666 -0.0427351 3.53162 0.128205 3.70256L3.61538 7.18974Z" fill="#AAA4EC"/></g><defs><clipPath id="clip0_2130_59501030"><rect width="16" height="16" fill="white"/></clipPath></defs>
</svg>