
<svg width="16" height="16" viewBox="0 0 16 16" fill="none" xmlns="http://www.w3.org/2000/svg">
  <defs>
    <symbol id='logo-meta' viewBox="0 0 16 16">
      <path fill-rule="evenodd" clip-rule="evenodd" d="M1.72819 9.68848C1.72819 10.2994 1.86229 10.7685 2.03756 11.0522C2.26735 11.4239 2.6101 11.5814 2.95952 11.5814C3.41021 11.5814 3.82251 11.4695 4.61705 10.3706C5.06573 9.74978 5.57081 8.95226 6.00659 8.26416L6.0066 8.26415C6.18904 7.97607 6.35934 7.70716 6.50827 7.47843L7.1631 6.47232C6.82315 5.98642 6.53067 5.6172 6.32149 5.39493C5.91031 4.95816 5.38172 4.43068 4.53821 4.43068C4.40317 4.43068 4.27216 4.44943 4.14511 4.48517C3.64809 4.64136 3.21248 5.05837 2.83433 5.6295C2.14828 6.66497 1.72819 8.20733 1.72819 9.68848ZM0 9.62672C0 10.5676 0.185838 11.3933 0.564192 12.0226C1.02768 12.7949 1.77604 13.3073 2.95952 13.3073C3.95716 13.3073 4.71498 12.8594 5.60245 11.6776C6.10878 11.0027 6.36528 10.5938 7.37794 8.79823L7.88204 7.9052L7.98096 7.72993C8.01521 7.78623 8.04963 7.84326 8.08418 7.90099L9.51915 10.298C10.0016 11.1048 10.6286 12.0023 11.165 12.5075C11.8627 13.1657 12.4937 13.3204 13.2059 13.3204C13.5111 13.3204 13.7834 13.2774 14.0252 13.203C14.7157 13.0043 15.1639 12.5509 15.4258 12.0972C15.7875 11.4712 16 10.6789 16 9.60057C16 7.78669 15.546 6.029 14.6107 4.63353C13.756 3.35936 12.6393 2.67999 11.467 2.67999C10.7687 2.67999 10.0748 2.99158 9.43163 3.55244C8.98677 3.94043 8.57401 4.43256 8.19207 4.95169C7.72429 4.35698 7.28988 3.90508 6.86899 3.56158C6.09565 2.93013 5.35442 2.70178 4.6096 2.69328L4.60982 2.67999C4.30242 2.67999 4.00426 2.72692 3.71768 2.81449C2.76319 3.09124 1.93489 3.81883 1.31885 4.76842L1.34443 4.78361C0.463221 6.1568 0 7.92744 0 9.62672ZM9.79736 7.33457C9.51081 6.85728 9.23848 6.42688 8.97769 6.03876C9.03376 5.95126 9.08953 5.86618 9.14508 5.78362C9.89233 4.67248 10.5572 4.0493 11.3835 4.0493C12.1474 4.0493 12.8418 4.55452 13.3777 5.38134C14.1327 6.54701 14.4754 8.17839 14.4754 9.64842L14.4754 9.66008L14.4317 9.66146C14.4317 10.5409 14.2537 11.3258 13.5933 11.5381C13.4903 11.5664 13.3761 11.5814 13.2497 11.5814V11.5938C13.2353 11.5942 13.2207 11.5944 13.2059 11.5944C12.8192 11.5944 12.5215 11.4408 12.0964 10.9256C11.7659 10.5244 11.2012 9.6737 10.2085 8.02007L9.79736 7.33457Z" fill="currentColor"/>
    </symbol>
  </defs>
</svg>