
<svg width="16" height="16" viewBox="0 0 16 16" fill="none" xmlns="http://www.w3.org/2000/svg">
  <defs>
    <symbol id='logo-v0' viewBox="0 0 16 16">
      <g clip-path="url(#clip0_1529_2689896)"><path fill-rule="evenodd" clip-rule="evenodd" d="M9.49997 5.5H13.25C13.3091 5.5 13.3672 5.5041 13.4241 5.51203L9.50919 9.42692C9.501 9.36912 9.49677 9.31006 9.49677 9.25L9.49677 5.5L7.99677 5.5L7.99677 9.25C7.99677 10.7688 9.22798 12 10.7468 12H14.4968V10.5L10.7468 10.5C10.6867 10.5 10.6276 10.4958 10.5698 10.4876L14.4872 6.57028C14.4956 6.62897 14.5 6.68897 14.5 6.75V10.5H16V6.75C16 5.23122 14.7688 4 13.25 4H9.49997V5.5ZM-0.00323486 5.5V5.50217L5.14521 11.606C5.77638 12.3543 6.99782 11.908 6.99782 10.929V5.5H5.49782V9.69758L1.95727 5.5H-0.00323486Z" fill="currentColor"/></g><defs><clipPath id="clip0_1529_2689896"><rect width="16" height="16" fill="currentColor"/></clipPath></defs>
    </symbol>
  </defs>
</svg>