
<svg width="16" height="16" viewBox="0 0 16 16" fill="none" xmlns="http://www.w3.org/2000/svg">
  <defs>
    <symbol id='logo-launchdarkly' viewBox="0 0 16 16">
      <g clip-path="url(#clip0_3908_2657997)"><path d="M8.02849 15.7895C7.90712 15.7895 7.78574 15.7204 7.71638 15.5995C7.66434 15.4785 7.66434 15.3575 7.75105 15.2538L11.4445 10.1904L4.97662 12.8172C4.9246 12.8344 4.88994 12.8517 4.83789 12.8517C4.68185 12.8517 4.54313 12.748 4.50844 12.6098C4.45642 12.4715 4.52578 12.316 4.64716 12.2296L10.3347 8.8943L0.329468 8.32403C0.121385 8.30674 0 8.15123 0 7.9784C0 7.82286 0.104045 7.65006 0.329468 7.63277L10.3347 7.0625L4.64716 3.7272C4.52578 3.6408 4.45642 3.48526 4.50844 3.34702C4.56045 3.20877 4.68185 3.10508 4.83789 3.10508C4.88994 3.10508 4.9246 3.12237 4.97662 3.13966L11.4445 5.76641L7.75105 0.685713C7.68168 0.582025 7.66434 0.443776 7.71638 0.340088C7.76839 0.219119 7.88977 0.149994 8.02849 0.149994C8.1152 0.149994 8.20188 0.184556 8.27124 0.253681L15.6235 7.56366C15.7275 7.66736 15.7795 7.82286 15.7795 7.96111C15.7795 8.09938 15.7275 8.23763 15.6235 8.35858L8.27124 15.6859C8.20188 15.755 8.1152 15.7895 8.02849 15.7895Z" fill="currentColor"/></g><defs><clipPath id="clip0_3908_2657997"><rect width="16" height="16" fill="currentColor"/></clipPath></defs>
    </symbol>
  </defs>
</svg>