
<svg width="16" height="16" viewBox="0 0 16 16" fill="none" xmlns="http://www.w3.org/2000/svg">
  <g clip-path="url(#clip0_3908_2516967)"><path d="M8 0C3.6 0 0 3.6 0 8C0 12.4 3.6 16 8 16C12.4 16 16 12.4 16 8C16 3.6 12.4 0 8 0Z" fill="#663399"/><path d="M3.5428 12.4572C2.3428 11.2572 1.71423 9.65715 1.71423 8.1143L7.9428 14.2857C6.3428 14.2286 4.7428 13.6572 3.5428 12.4572ZM9.37138 14.1143L1.88566 6.62858C2.51423 3.82858 5.02852 1.71429 7.99995 1.71429C10.1142 1.71429 11.9428 2.74287 13.0857 4.28572L12.2285 5.02858C11.2571 3.71429 9.71423 2.85715 7.99995 2.85715C5.77138 2.85715 3.88566 4.28572 3.1428 6.28572L9.71423 12.8572C11.3714 12.2857 12.6285 10.8572 13.0285 9.14287H10.2857V8.00001H14.2857C14.2857 10.9714 12.1714 13.4857 9.37138 14.1143Z" fill="white"/></g><defs><clipPath id="clip0_3908_2516967"><rect width="16" height="16" fill="white"/></clipPath></defs>
</svg>