
<svg width="16" height="16" viewBox="0 0 16 16" fill="none" xmlns="http://www.w3.org/2000/svg">
  <path d="M7.99979 0C3.49391 0 0 3.30191 0 7.75979C0 10.0917 0.955974 12.1077 2.51193 13.4996C2.64193 13.6156 2.72193 13.7796 2.72593 13.9556L2.76993 15.3796C2.77313 15.4844 2.80202 15.5867 2.85406 15.6777C2.90609 15.7687 2.97969 15.8455 3.06836 15.9014C3.15704 15.9573 3.25809 15.9906 3.36263 15.9983C3.46717 16.006 3.572 15.9879 3.6679 15.9456L5.25586 15.2456C5.38986 15.1856 5.54185 15.1756 5.68385 15.2136C6.41383 15.4136 7.18981 15.5216 7.99979 15.5216C12.5057 15.5216 15.9996 12.2197 15.9996 7.76179C15.9996 3.30391 12.5057 0 7.99979 0Z" fill="url(#paint0_radial_4759_18511117)"/><path d="M3.19568 10.0298L5.54562 6.30185C5.63402 6.1615 5.75056 6.041 5.88788 5.94796C6.0252 5.85491 6.18032 5.79135 6.34344 5.76128C6.50657 5.73121 6.67415 5.73529 6.83562 5.77326C6.99709 5.81122 7.14894 5.88225 7.28157 5.98186L9.15152 7.38382C9.235 7.44632 9.33656 7.47994 9.44085 7.47957C9.54513 7.47921 9.64646 7.4449 9.7295 7.38182L12.2534 5.46588C12.5894 5.20988 13.0294 5.61387 12.8054 5.97186L10.4535 9.69776C10.3651 9.83812 10.2485 9.95862 10.1112 10.0517C9.9739 10.1447 9.81878 10.2083 9.65566 10.2383C9.49253 10.2684 9.32495 10.2643 9.16348 10.2264C9.00201 10.1884 8.85016 10.1174 8.71753 10.0178L6.84758 8.61579C6.7641 8.55329 6.66254 8.51968 6.55825 8.52004C6.45397 8.5204 6.35264 8.55472 6.2696 8.61779L3.74566 10.5337C3.40967 10.7897 2.96968 10.3877 3.19568 10.0298Z" fill="white"/><defs><radialGradient id="paint0_radial_4759_18511117" cx="0" cy="0" r="1" gradientUnits="userSpaceOnUse" gradientTransform="translate(2.67993 15.9996) scale(17.5995)"><stop stop-color="#0099FF"/><stop offset="0.6" stop-color="#A033FF"/><stop offset="0.9" stop-color="#FF5280"/><stop offset="1" stop-color="#FF7061"/></radialGradient></defs>
</svg>