
<svg width="16" height="16" viewBox="0 0 16 16" fill="none" xmlns="http://www.w3.org/2000/svg">
  <defs>
    <symbol id='logo-solidstart' viewBox="0 0 16 16">
      <g clip-path="url(#clip0_3908_2486945)"><path d="M16 3.72488C16 3.72488 10.6968 -0.297573 6.5811 0.642347C6.46035 0.672667 6.32953 0.702987 6.21884 0.743414C5.58488 0.945547 5.11192 1.29928 4.8201 1.72376C4.75972 1.80461 4.71947 1.89557 4.66915 1.97643L3.14966 4.57384L5.77607 5.08928C6.81255 5.83717 8.27167 6.15048 9.51947 5.82707L14.1987 6.74677L16 3.72488Z" fill="#BBBDBF"/><path opacity="0.29" d="M16 3.72488C16 3.72488 10.6968 -0.297573 6.5811 0.642347C6.46035 0.672667 6.32953 0.702987 6.21884 0.743414C5.58488 0.945547 5.11192 1.29928 4.8201 1.72376C4.75972 1.80461 4.71947 1.89557 4.66915 1.97643L3.14966 4.57384L5.77607 5.08928C6.81255 5.83717 8.27167 6.15048 9.51947 5.82707L14.1987 6.74677L16 3.72488Z" fill="url(#paint0_linear_3908_2486946)"/><path d="M4.7799 3.67435C4.65914 3.70467 4.52832 3.73499 4.41763 3.77542C2.73713 4.32118 2.16354 5.89782 3.12958 7.28243C4.09562 8.66704 6.23901 9.35429 7.91952 8.80854L14.1988 6.76699C14.1988 6.75688 8.89562 2.73443 4.7799 3.67435Z" fill="#929497"/><path opacity="0.34" d="M4.7799 3.67435C4.65914 3.70467 4.52832 3.73499 4.41763 3.77542C2.73713 4.32118 2.16354 5.89782 3.12958 7.28243C4.09562 8.66704 6.23901 9.35429 7.91952 8.80854L14.1988 6.76699C14.1988 6.75688 8.89562 2.73443 4.7799 3.67435Z" fill="url(#paint1_linear_3908_2486947)"/><path d="M13.0415 8.22234C12.0755 6.83773 9.93207 6.15047 8.25157 6.69623L1.97233 8.73778L0 12.2751L11.2302 14.2055L13.2428 10.6075C13.6453 9.90005 13.605 9.03087 13.0415 8.22234Z" fill="url(#paint2_linear_3908_2486948)"/><path d="M11.0692 11.7496C10.1031 10.3649 7.95975 9.6777 6.27924 10.2235L0 12.2751C0 12.2751 5.30314 16.2976 9.41887 15.3576C9.53962 15.3273 9.67044 15.297 9.78113 15.2566C11.4616 14.7108 12.0352 13.1342 11.0692 11.7496Z" fill="url(#paint3_linear_3908_2486949)"/></g><defs><linearGradient id="paint0_linear_3908_2486946" x1="2.36757" y1="0.465582" x2="14.918" y2="6.53125" gradientUnits="userSpaceOnUse"><stop offset="0.118" stop-color="#BBBDBF"/><stop offset="0.299" stop-color="#F1F1F2"/><stop offset="1" stop-color="#D0D2D3"/></linearGradient><linearGradient id="paint1_linear_3908_2486947" x1="9.23846" y1="3.45079" x2="7.02742" y2="10.789" gradientUnits="userSpaceOnUse"><stop stop-color="#BBBDBF"/><stop offset="0.475" stop-color="#929497"/><stop offset="1" stop-color="#58595B"/></linearGradient><linearGradient id="paint2_linear_3908_2486948" x1="1.45228" y1="6.64853" x2="14.1496" y2="15.2426" gradientUnits="userSpaceOnUse"><stop stop-color="#58595B"/><stop offset="0.539" stop-color="#929497"/><stop offset="1" stop-color="#58595B"/></linearGradient><linearGradient id="paint3_linear_3908_2486949" x1="7.17112" y1="7.68759" x2="2.01143" y2="26.5024" gradientUnits="userSpaceOnUse"><stop stop-color="#808184"/><stop offset="0.475" stop-color="#404041"/><stop offset="1" stop-color="#231F20"/></linearGradient><clipPath id="clip0_3908_2486945"><rect width="16" height="16" fill="currentColor"/></clipPath></defs>
    </symbol>
  </defs>
</svg>