
<svg width="16" height="16" viewBox="0 0 16 16" fill="none" xmlns="http://www.w3.org/2000/svg">
  <defs>
    <symbol id='logo-redwoodjs' viewBox="0 0 16 16">
      <g clip-path="url(#clip0_5312_18721134)"><path fill-rule="evenodd" clip-rule="evenodd" d="M7.0977 0.227006C6.49592 0.52968 5.2276 1.1186 4.54064 1.58861C3.85369 2.05861 3.93886 2.49663 3.63817 2.79929C3.33748 3.10198 2.43459 3.85824 1.83324 4.31181C1.23145 4.76581 1.38179 5.97652 1.23145 6.43052C1.08111 6.8841 0.780432 7.94304 0.630092 8.39704C0.479319 8.85107 0.930769 9.45641 1.23145 10.0618C1.53256 10.6667 2.28425 12.331 2.58536 12.9359C2.88605 13.5412 3.78893 13.2385 4.54064 13.8439C5.29233 14.4492 6.34556 15.2059 7.0977 15.6595C7.84939 16.1135 8.15051 16.1135 8.90262 15.6595C9.65433 15.2055 10.7076 14.4488 11.4597 13.8434C12.2114 13.2385 13.1143 13.5412 13.415 12.9359C13.7157 12.3305 14.4678 10.6667 14.7689 10.0613C15.0695 9.45598 15.5206 8.85061 15.3702 8.39704C15.2199 7.94304 14.9192 6.88367 14.7689 6.4301C14.6185 5.97609 14.7689 4.76581 14.1671 4.31181C13.5653 3.85781 12.8671 3.28013 12.3622 2.79886C11.8573 2.31763 12.0615 2.04218 11.4597 1.58818C10.8579 1.13461 9.50443 0.52968 8.90262 0.227006C8.30084 -0.0756686 7.69906 -0.0756686 7.0977 0.227006Z" fill="currentColor"/><path fill-rule="evenodd" clip-rule="evenodd" d="M4.97329 2.85217L7.78845 4.77416C7.85174 4.81649 7.92598 4.83976 8.00222 4.84117C8.07859 4.84049 8.15301 4.81714 8.21599 4.77416L11.0333 2.84568C11.0874 2.80691 11.1305 2.75491 11.1584 2.69472C11.1864 2.63452 11.1982 2.56816 11.1928 2.50208C11.1875 2.43598 11.165 2.37239 11.1277 2.31745C11.0904 2.2625 11.0395 2.21807 10.9799 2.18844L8.16473 0.794422C8.1121 0.768828 8.05429 0.755524 7.9957 0.755524C7.93711 0.755524 7.87931 0.768828 7.82668 0.794422L5.01978 2.18844C4.95904 2.21812 4.90717 2.26318 4.86937 2.31904C4.83161 2.37492 4.80921 2.43969 4.80447 2.50688C4.7997 2.57407 4.81276 2.64131 4.84231 2.70191C4.87186 2.76251 4.91688 2.81431 4.97286 2.85217H4.97329ZM8.95857 5.37733C8.95852 5.43998 8.97366 5.50167 9.00272 5.55722C9.03177 5.61277 9.07384 5.66053 9.12541 5.69645L11.3822 7.23922C11.4523 7.28759 11.5367 7.31093 11.6217 7.30543C11.7068 7.29993 11.7875 7.26593 11.8506 7.20896L13.7438 5.51527C13.7856 5.47784 13.8187 5.43177 13.8408 5.38031C13.863 5.32884 13.8736 5.27319 13.8719 5.21723C13.8703 5.1613 13.8564 5.10637 13.8313 5.05627C13.8061 5.00619 13.7704 4.96215 13.7264 4.92722L11.9188 3.48131C11.8551 3.43055 11.7767 3.40148 11.6951 3.39837C11.6135 3.39524 11.5331 3.41826 11.4657 3.464L9.12541 5.06516C9.07476 5.10042 9.03321 5.14714 9.0042 5.20148C8.97521 5.25582 8.95956 5.31582 8.95857 5.37733ZM3.34521 7.47618C3.43644 7.55832 3.48336 7.67939 3.47121 7.80176C3.46553 7.86226 3.44527 7.92052 3.41214 7.97155C3.37902 8.02259 3.33397 8.06492 3.28088 8.09493L1.93349 8.90306C1.79662 8.98435 1.62412 8.97267 1.49986 8.87322C1.37559 8.77377 1.32475 8.60731 1.37298 8.45468L1.87136 6.88596C1.8903 6.82508 1.9243 6.7699 1.97022 6.72548C2.01615 6.68106 2.07254 6.64882 2.13423 6.63171C2.1957 6.61379 2.26079 6.6121 2.32311 6.62679C2.38543 6.6415 2.44283 6.67212 2.48966 6.71558L3.34521 7.47618ZM10.6549 7.64047L8.21817 5.9723C8.15509 5.92977 8.08062 5.90703 8.0044 5.90703C7.92818 5.90703 7.85371 5.92977 7.79061 5.9723L5.35393 7.64004C5.30591 7.67346 5.26604 7.71713 5.23715 7.76784C5.20829 7.81857 5.19116 7.87506 5.18706 7.93321C5.18386 7.99182 5.19368 8.05043 5.21582 8.10485C5.23799 8.15927 5.27192 8.20813 5.31525 8.24799L7.74977 10.4264C7.81963 10.4891 7.91033 10.5238 8.0044 10.5238C8.09845 10.5238 8.18918 10.4891 8.25901 10.4264L10.6931 8.24756C10.7365 8.20796 10.7703 8.15912 10.7922 8.1047C10.814 8.05028 10.8232 7.99167 10.8191 7.93321C10.816 7.87513 10.7995 7.81852 10.7711 7.76774C10.7426 7.71693 10.7029 7.67326 10.6549 7.64004V7.64047ZM4.15599 7.20896L2.26458 5.51527C2.22242 5.47691 2.1891 5.42991 2.1669 5.37751C2.1447 5.32511 2.13415 5.26857 2.13597 5.21173C2.13687 5.15572 2.15019 5.10059 2.17497 5.05029C2.19976 4.99999 2.2354 4.95574 2.27936 4.92073L4.0869 3.46617C4.15112 3.41538 4.22997 3.38633 4.31195 3.38323C4.39393 3.3801 4.47476 3.40312 4.54269 3.44888L6.88076 5.05001C6.98939 5.12137 7.05457 5.24288 7.05457 5.37344C7.05457 5.50404 6.98939 5.62509 6.88076 5.69645L4.62611 7.23922C4.48057 7.33867 4.28763 7.3257 4.15599 7.20896ZM13.8659 9.64202L11.9406 8.48926C11.871 8.44729 11.7897 8.42881 11.7087 8.43661C11.6277 8.44441 11.5515 8.47805 11.4913 8.5325L9.13802 10.6331C9.08924 10.6769 9.05236 10.7323 9.03088 10.7942C9.00937 10.856 9.00389 10.9222 9.015 10.9867C9.02608 11.0512 9.05338 11.1119 9.09434 11.163C9.1353 11.2142 9.18859 11.2543 9.24926 11.2795L12.5137 12.6026C12.6058 12.6391 12.7086 12.6385 12.8003 12.6011C12.892 12.5637 12.9656 12.4923 13.0056 12.402L14.0179 10.1354C14.0577 10.0489 14.0642 9.95087 14.0362 9.85992C14.0081 9.76898 13.9475 9.69144 13.8659 9.64202ZM14.1331 6.88596L14.6315 8.45468H14.6271C14.6453 8.51253 14.6496 8.57379 14.6399 8.63364C14.63 8.69346 14.6063 8.75017 14.5706 8.79929C14.5149 8.87615 14.4322 8.92946 14.3389 8.94866C14.2456 8.96787 14.1485 8.95159 14.0666 8.90306L12.717 8.0945C12.665 8.06393 12.6211 8.0214 12.5891 7.97047C12.557 7.91953 12.5377 7.86168 12.5328 7.80176C12.5265 7.74144 12.5346 7.6805 12.5565 7.62389C12.5784 7.5673 12.6135 7.51669 12.6588 7.47618L13.5148 6.71344C13.6117 6.62696 13.7451 6.59539 13.8698 6.62954C13.9315 6.64733 13.9879 6.68005 14.0338 6.7248C14.0798 6.76955 14.1139 6.8249 14.1331 6.88596ZM6.992 10.9863C7.00339 10.922 6.99822 10.8559 6.97694 10.7941C6.95566 10.7323 6.91898 10.6769 6.87033 10.6331L4.5175 8.53207C4.45731 8.4776 4.38104 8.44398 4.30008 8.43618C4.21909 8.42838 4.13778 8.44686 4.0682 8.48883L2.14336 9.64202C2.06253 9.6917 2.00242 9.76873 1.97408 9.85896C1.94575 9.9492 1.95108 10.0466 1.98911 10.1332L3.00282 12.4002C3.04246 12.4909 3.11609 12.5625 3.20806 12.5999C3.30001 12.6373 3.40301 12.6375 3.49511 12.6004L6.75736 11.2773C6.81808 11.2527 6.87152 11.2131 6.91264 11.1623C6.95375 11.1115 6.98122 11.0511 6.99243 10.9868L6.992 10.9863ZM8.14735 11.6327L10.7657 12.693C10.8288 12.7203 10.8835 12.7638 10.924 12.8191C10.9646 12.8745 10.9896 12.9396 10.9964 13.0077C11.0046 13.0768 10.9939 13.1467 10.9652 13.2101C10.9366 13.2734 10.8912 13.3278 10.8339 13.3675L8.21383 15.1883C8.15116 15.2325 8.07644 15.2567 7.99961 15.2575C7.92301 15.2561 7.84857 15.2321 7.78584 15.1883L5.1675 13.3679C5.10992 13.3285 5.06414 13.2742 5.03505 13.2109C5.00596 13.1476 4.99467 13.0776 5.00233 13.0085C5.00999 12.9393 5.03634 12.8734 5.07857 12.818C5.12083 12.7625 5.17739 12.7194 5.24225 12.6934L7.86056 11.6332C7.95261 11.5964 8.05533 11.596 8.14735 11.6327Z" fill="currentColor"/></g><defs><clipPath id="clip0_5312_18721134"><rect width="16" height="16" rx="2" fill="currentColor"/></clipPath></defs>
    </symbol>
  </defs>
</svg>