
<svg width="16" height="16" viewBox="0 0 16 16" fill="none" xmlns="http://www.w3.org/2000/svg">
  <path d="M15.6654 4.14909C15.4811 3.46025 14.9397 2.91893 14.2509 2.73453C13.0036 2.39999 7.99997 2.39999 7.99997 2.39999C7.99997 2.39999 2.99637 2.39999 1.74909 2.73453C1.06026 2.91893 0.518933 3.46025 0.334541 4.14909C1.0014e-07 5.39637 0 8.00025 0 8.00025C0 8.00025 1.0014e-07 10.6042 0.334541 11.8514C0.518933 12.5403 1.06026 13.0816 1.74909 13.266C2.99637 13.6005 7.99997 13.6005 7.99997 13.6005C7.99997 13.6005 13.0036 13.6005 14.2509 13.266C14.9397 13.0816 15.4811 12.5403 15.6654 11.8514C16 10.6042 16 8.00025 16 8.00025C16 8.00025 15.9987 5.39637 15.6654 4.14909Z" fill="#FF0000"/><path d="M6.5 10.4002L10.5557 8.00049L6.5 5.60074V10.4002Z" fill="white"/>
</svg>