
<svg width="16" height="16" viewBox="0 0 16 16" fill="none" xmlns="http://www.w3.org/2000/svg">
  <defs>
    <symbol id='logo-sanity' viewBox="0 0 16 16">
      <path d="M3.20615 2.05359C3.20615 4.19745 4.5376 5.48377 7.2005 6.16078L10.0214 6.81523C12.5489 7.40197 14.0834 8.84625 14.0834 11.1932C14.106 12.2087 13.7675 13.2017 13.1582 14.0141C13.1582 11.6671 11.9396 10.4034 9.02843 9.6361L6.25269 9.00422C4.01856 8.50775 2.30347 7.3117 2.30347 4.76163C2.30347 3.79125 2.6194 2.82087 3.20615 2.05359Z" fill="currentColor"/><path opacity="0.66" d="M11.4206 10.6065C12.6167 11.3738 13.1583 12.457 13.1583 14.0141C12.1428 15.3004 10.4051 16 8.35151 16C4.89876 16 2.43896 14.2849 1.91992 11.3286H5.23727C5.66604 12.6827 6.79439 13.3145 8.32895 13.3145C10.1569 13.3371 11.3981 12.3441 11.4206 10.6065ZM4.9439 5.23554C3.81555 4.55853 3.16111 3.33992 3.20624 2.03103C4.17662 0.767278 5.84658 0 7.87761 0C11.4206 0 13.4517 1.87306 13.9707 4.49083H10.7662C10.4051 3.45275 9.525 2.64034 7.92274 2.64034C6.18508 2.66291 5.0116 3.65585 4.9439 5.23554Z" fill="currentColor"/>
    </symbol>
  </defs>
</svg>