
<svg width="16" height="16" viewBox="0 0 16 16" fill="none" xmlns="http://www.w3.org/2000/svg">
  <path d="M4.80401 11.1567C3.97215 10.3151 3.5024 9.17007 3.51218 7.9859C3.51218 6.80173 3.98194 5.65671 4.83337 4.82485C5.55757 4.17894 5.62608 3.06328 4.98016 2.33907C4.33425 1.61487 3.21859 1.54636 2.49438 2.19227C2.44545 2.24121 2.39652 2.28035 2.35737 2.32929C-0.774324 5.4414 -0.784111 10.501 2.31822 13.6327C2.96414 14.3569 4.0798 14.4156 4.80401 13.7697C5.52821 13.1238 5.58693 12.0082 4.94102 11.284C4.89208 11.2448 4.85294 11.1959 4.80401 11.1567Z" fill="#FFDA00"/><path d="M4.83321 4.8249C6.585 3.0829 9.4231 3.09269 11.1651 4.84448C11.811 5.57847 12.9267 5.64697 13.6509 5.00106C14.3751 4.35515 14.4534 3.23949 13.8075 2.51528C13.7585 2.46635 13.7096 2.40763 13.6607 2.36848C10.5583 -0.763205 5.51827 -0.792565 2.38657 2.29998C2.37679 2.30977 2.367 2.31955 2.35721 2.32934C1.62322 2.97525 1.55472 4.08113 2.20063 4.81512C2.84654 5.54911 3.95242 5.61761 4.68641 4.9717C4.73534 4.92277 4.78428 4.87384 4.83321 4.8249Z" fill="#67B3FF"/><path d="M11.1456 11.1764C10.3039 12.018 9.15888 12.478 7.97471 12.478C6.79054 12.478 5.64551 12.0082 4.81366 11.1568C4.16774 10.4326 3.05208 10.3641 2.32787 11.01C1.60367 11.6559 1.53516 12.7716 2.18108 13.4958C2.23001 13.5447 2.26915 13.5936 2.31809 13.6328C5.42042 16.7645 10.4703 16.7938 13.602 13.6915C13.6118 13.6817 13.6118 13.6817 13.6215 13.6719C14.3164 12.9869 14.3164 11.8712 13.6313 11.1764C12.9561 10.5011 11.8404 10.4913 11.1456 11.1764Z" fill="#EB5A68"/>
</svg>