
<svg width="16" height="16" viewBox="0 0 16 16" fill="none" xmlns="http://www.w3.org/2000/svg">
  <defs>
    <symbol id='logo-aws' viewBox="0 0 16 16">
      <path fill-rule="evenodd" clip-rule="evenodd" d="M4.27079 7.04369C4.23032 6.91638 4.2072 6.74278 4.2072 6.52868H4.19563V4.65381C4.19563 4.01727 4.03376 3.54277 3.71579 3.23029C3.39204 2.91781 2.88907 2.76157 2.2011 2.76157C1.88313 2.76157 1.5825 2.79629 1.29922 2.87152C1.01594 2.94096 0.773126 3.02776 0.570782 3.13192C0.489845 3.17242 0.437813 3.21293 0.408907 3.25344C0.380001 3.29394 0.368438 3.36338 0.368438 3.45597V3.73952C0.368438 3.86104 0.408907 3.9189 0.489845 3.9189C0.51297 3.9189 0.541876 3.91312 0.582345 3.90154C0.622814 3.88997 0.692189 3.86682 0.784689 3.82632C0.987033 3.7453 1.19516 3.68165 1.40907 3.62957C1.62297 3.57749 1.8311 3.55434 2.03344 3.55434C2.4786 3.55434 2.79079 3.64114 2.97579 3.82053C3.15501 3.99991 3.24751 4.30661 3.24751 4.74639V5.16882C3.01626 5.11674 2.79657 5.07044 2.58266 5.04151C2.36875 5.01258 2.16641 4.99522 1.96985 4.99522C1.37438 4.99522 0.906095 5.14567 0.553438 5.44658C0.200782 5.74748 0.0273438 6.14676 0.0273438 6.63862C0.0273438 7.10156 0.171875 7.4719 0.455157 7.74966C0.738439 8.02742 1.12578 8.1663 1.61141 8.1663C2.2936 8.1663 2.86016 7.90011 3.3111 7.36774C3.37469 7.50083 3.43251 7.61078 3.49032 7.70915C3.54813 7.80174 3.61751 7.89433 3.69844 7.98113C3.75626 8.03321 3.81407 8.06214 3.87188 8.06214C3.91813 8.06214 3.97016 8.04478 4.02219 8.01006L4.38641 7.76702C4.46157 7.70915 4.49626 7.65129 4.49626 7.59342C4.49626 7.55291 4.4847 7.50662 4.45579 7.46033C4.37485 7.30988 4.31704 7.171 4.27079 7.04369ZM2.45547 7.30409C2.24735 7.37353 2.05079 7.40825 1.86 7.40825C1.59407 7.40825 1.39172 7.33881 1.25297 7.19414C1.10844 7.05526 1.03906 6.85273 1.03906 6.58076C1.03906 6.29143 1.13156 6.07153 1.32235 5.91529C1.51313 5.75905 1.79641 5.68383 2.18375 5.68383C2.36297 5.68383 2.54219 5.6954 2.72719 5.71855C2.91219 5.74169 3.09141 5.77641 3.25907 5.81692V6.05996C3.25907 6.25671 3.23594 6.42452 3.20126 6.5634C3.16657 6.70228 3.09719 6.8238 3.00469 6.93374C2.8486 7.10734 2.6636 7.23465 2.45547 7.30409ZM6.28267 7.97534C6.32892 8.01585 6.39829 8.03321 6.50236 8.03321H6.99954C7.10361 8.03321 7.18454 8.01585 7.23079 7.97534C7.27704 7.93483 7.31173 7.85961 7.34064 7.74387L8.23095 4.01727L9.12705 7.74966C9.15017 7.86539 9.19064 7.94062 9.23689 7.98113C9.28314 8.02163 9.3583 8.03899 9.46814 8.03899H9.96533C10.0636 8.03899 10.1388 8.01585 10.185 7.98113C10.2313 7.94641 10.2717 7.87118 10.3064 7.75545L11.6997 3.28237C11.7228 3.21872 11.7344 3.17242 11.7402 3.13771C11.741 3.13264 11.7419 3.1277 11.7427 3.12286C11.7475 3.09454 11.7517 3.06983 11.7517 3.04512C11.7517 2.94675 11.6997 2.90045 11.6072 2.90045H11.0696C10.9655 2.90045 10.8903 2.9236 10.8441 2.95832C10.8036 2.99304 10.7631 3.06827 10.7285 3.184L9.7283 7.06105L8.81486 3.184C8.79174 3.07405 8.75127 2.99304 8.70502 2.95832C8.65877 2.91781 8.58361 2.90045 8.47377 2.90045H8.01126C7.9072 2.90045 7.82626 2.9236 7.78001 2.95832C7.73376 2.99304 7.69908 3.06827 7.67017 3.184L6.76829 7.01476L5.79704 3.184C5.76235 3.07405 5.72767 2.99304 5.68142 2.95832C5.64095 2.91781 5.56579 2.90045 5.45595 2.90045H4.88938C4.79688 2.90045 4.75063 2.95253 4.75063 3.04512C4.75063 3.08563 4.76798 3.16085 4.80267 3.27658L6.16126 7.74966C6.19595 7.85961 6.23642 7.94062 6.28267 7.97534ZM13.041 8.08529C13.33 8.15473 13.6307 8.18944 13.9313 8.18944C14.2261 8.18944 14.4978 8.14894 14.758 8.06792C15.0066 7.9927 15.2205 7.88854 15.3997 7.74387C15.5789 7.60499 15.7177 7.43139 15.8217 7.23465C15.92 7.0379 15.9721 6.81222 15.9721 6.5634C15.9721 6.26249 15.8853 5.99052 15.7061 5.75327C15.5269 5.51602 15.2263 5.33084 14.81 5.19775L13.9891 4.93735C13.6827 4.83898 13.4688 4.72903 13.3532 4.61909C13.2375 4.50914 13.1797 4.37026 13.1797 4.20823C13.1797 3.97098 13.2722 3.80317 13.4514 3.69322C13.6307 3.58328 13.8908 3.5312 14.2203 3.5312C14.6308 3.5312 15.0008 3.60642 15.3303 3.75688C15.4286 3.80317 15.5038 3.82632 15.55 3.82632C15.6367 3.82632 15.683 3.76266 15.683 3.64114V3.36917C15.683 3.28816 15.6657 3.2245 15.631 3.17821C15.5963 3.12613 15.5385 3.07984 15.4575 3.03355C15.3997 2.99883 15.3188 2.96411 15.2147 2.92939C15.1107 2.89467 15.0008 2.86573 14.8852 2.8368C14.7638 2.81365 14.6424 2.79051 14.5094 2.77315C14.3822 2.75579 14.2492 2.75 14.1221 2.75C13.8677 2.75 13.6249 2.77893 13.3936 2.84837C13.1624 2.91781 12.9658 3.01619 12.7924 3.14928C12.6189 3.27658 12.4802 3.43861 12.3761 3.62378C12.2721 3.80896 12.22 4.02306 12.22 4.2661C12.22 4.56701 12.3183 4.85055 12.5091 5.10516C12.6999 5.36556 13.0121 5.56231 13.4341 5.6954L14.2724 5.9558C14.5557 6.04839 14.7522 6.14676 14.8563 6.25671C14.9603 6.36665 15.0124 6.49974 15.0124 6.66177C15.0124 6.89902 14.9083 7.0842 14.7117 7.2115C14.5152 7.33881 14.2319 7.40246 13.8677 7.40246C13.6364 7.40246 13.411 7.37931 13.1797 7.33302C12.9542 7.28673 12.7403 7.21729 12.5438 7.13049C12.5233 7.12229 12.5035 7.11409 12.485 7.1064C12.4513 7.0924 12.4216 7.0801 12.3992 7.07262C12.3646 7.06105 12.3299 7.05526 12.2952 7.05526C12.2085 7.05526 12.1622 7.11313 12.1622 7.23465V7.52977C12.1622 7.58185 12.1738 7.63971 12.1969 7.69179C12.22 7.74387 12.2836 7.80174 12.3761 7.85382C12.5264 7.94062 12.7519 8.01585 13.041 8.08529ZM15.1944 10.1946C14.9709 9.88215 13.715 10.0442 13.1456 10.1194C12.9753 10.1425 12.9487 9.98052 13.103 9.859C14.1035 9.09517 15.7478 9.31506 15.9394 9.56967C16.131 9.83007 15.8862 11.6181 14.9496 12.4746C14.8059 12.6077 14.6676 12.5382 14.7314 12.3646C14.9443 11.7917 15.4179 10.5013 15.1944 10.1946ZM14.4655 11.0974C12.7147 12.5035 10.171 13.25 7.98391 13.25C4.91874 13.25 2.1569 12.0175 0.0708829 9.969C-0.0940826 9.80697 0.0549185 9.58708 0.251813 9.71439C2.50812 11.1379 5.29124 12.0001 8.17016 12.0001C10.1125 12.0001 12.2464 11.5603 14.21 10.6576C14.5027 10.5129 14.7528 10.8659 14.4655 11.0974Z" fill="currentColor"/>
    </symbol>
  </defs>
</svg>