
<svg width="16" height="16" viewBox="0 0 16 16" fill="none" xmlns="http://www.w3.org/2000/svg">
  <defs>
    <symbol id='logo-contentful' viewBox="0 0 16 16">
      <path fill-rule="evenodd" clip-rule="evenodd" d="M4.82857 4.82954L4.76685 4.89127C3.9575 5.71709 3.51218 6.83294 3.51218 7.9859C3.50297 9.10045 3.91857 10.1803 4.66107 11.0052C4.71433 11.052 4.76531 11.1026 4.81366 11.1568C5.64551 12.0082 6.79054 12.478 7.97471 12.478C9.15888 12.478 10.3039 12.018 11.1456 11.1764C11.8404 10.4913 12.9561 10.5011 13.6313 11.1764C14.3164 11.8712 14.3164 12.9869 13.6215 13.6719L13.602 13.6915C10.5257 16.7389 5.59857 16.7645 2.48462 13.7961C2.427 13.7466 2.37197 13.6928 2.31997 13.6347C2.31934 13.634 2.31871 13.6334 2.31809 13.6328C2.28585 13.607 2.25785 13.5769 2.22851 13.5455C2.21332 13.5292 2.19777 13.5125 2.18108 13.4958C2.16448 13.4772 2.14835 13.4583 2.13269 13.4392C-0.718808 10.3645 -0.712306 5.59185 2.16081 2.5315C2.21987 2.46023 2.28535 2.39258 2.35721 2.32934L2.35779 2.32877C2.38349 2.29674 2.41338 2.26889 2.4447 2.23971C2.461 2.22452 2.47769 2.20896 2.49438 2.19227C2.50758 2.1805 2.52091 2.16896 2.53437 2.15767C5.67489 -0.790896 10.6067 -0.714399 13.6607 2.36848C13.6933 2.39458 13.7259 2.42938 13.7585 2.46418C13.7749 2.48158 13.7912 2.49897 13.8075 2.51528C14.4534 3.23949 14.3751 4.35515 13.6509 5.00106C12.9267 5.64697 11.811 5.57847 11.1651 4.84448C9.45626 3.12604 6.69267 3.0839 4.93443 4.72732C4.9023 4.76087 4.86861 4.79342 4.83337 4.82485L4.82857 4.82954Z" fill="currentColor"/>
    </symbol>
  </defs>
</svg>