
<svg width="16" height="16" viewBox="0 0 16 16" fill="none" xmlns="http://www.w3.org/2000/svg">
  <defs>
    <symbol id='logo-ember' viewBox="0 0 16 16">
      <path fill-rule="evenodd" clip-rule="evenodd" d="M16 8C16 3.58175 12.4183 0 8 0C3.58175 0 0 3.58175 0 8C0 12.4183 3.58175 16 8 16C12.4183 16 16 12.4183 16 8ZM10.5441 4.16475C9.91735 3.27512 9.18898 2.99562 8.15823 3.016C7.1271 3.036 5.85748 3.66475 5.02848 5.52537C4.63298 6.41312 4.49873 7.25425 4.41798 7.89162C4.41798 7.89162 3.5121 8.07362 3.02673 7.67012C2.54173 7.266 2.28673 7.67012 2.28673 7.67012C2.28673 7.67012 1.45123 8.6475 2.2806 8.9715C3.1008 9.29176 4.37309 9.35931 4.3998 9.36073L4.40023 9.36075C4.5191 10.2216 4.81148 11.0492 5.87435 11.7405C7.65685 12.9002 10.3019 11.6755 10.3019 11.6755C11.8871 11.0129 12.9401 9.98712 13.3889 9.4875C13.4585 9.40999 13.4962 9.30892 13.4942 9.20472C13.4922 9.10051 13.4508 9.00094 13.3782 8.92612L12.862 8.38987C12.7902 8.31499 12.6928 8.26998 12.5892 8.26384C12.4857 8.2577 12.3836 8.29088 12.3035 8.35675C11.614 8.92162 9.80135 10.258 8.07723 10.258C6.67623 10.2934 6.82373 9.373 6.82373 9.373L6.82985 9.371C7.02573 9.30225 11.9109 7.55337 10.5441 4.16475ZM6.58098 7.81162C6.64185 5.40562 8.21873 4.35412 8.76485 4.88037C9.31098 5.40562 9.10848 6.53775 8.07723 7.24537C7.04648 7.95337 6.58098 7.81162 6.58098 7.81162Z" fill="currentColor"/>
    </symbol>
  </defs>
</svg>