
<svg width="16" height="16" viewBox="0 0 16 16" fill="none" xmlns="http://www.w3.org/2000/svg">
  <defs>
    <symbol id='logo-rust' viewBox="0 0 16 16">
      <path d="M6.717 5.81132H8.67926C9.88681 5.81132 9.88681 7.01886 8.67926 7.01886H6.717V5.81132ZM2.03775 11.3962H8.07549V9.73585H6.717V8.5283H8.22643C9.88681 8.5283 8.98115 11.3962 10.3396 11.3962H14.1132V8.5283H13.2076V8.83019C13.2076 10.0377 11.8491 9.88679 11.6981 9.13207C11.5472 8.37736 10.9434 7.77358 10.7925 7.77358C13.0566 6.56603 11.6981 4.15094 9.88681 4.15094H2.79247V5.81132H4.3019V9.73585H2.03775V11.3962Z" fill="currentColor" stroke="currentColor" stroke-width="0.150943" stroke-linejoin="round"/><path d="M8 14.4906C11.5846 14.4906 14.4906 11.5846 14.4906 8C14.4906 4.41536 11.5846 1.50943 8 1.50943C4.41536 1.50943 1.50943 4.41536 1.50943 8C1.50943 11.5846 4.41536 14.4906 8 14.4906Z" stroke="currentColor" stroke-width="1.35849"/><path d="M14.9434 8.45281L15.6981 7.99998L14.9434 7.54715V8.45281Z" fill="currentColor" stroke="currentColor" stroke-width="0.45283" stroke-linejoin="round"/><path d="M14.7216 9.79872L15.5502 9.50183L14.8983 8.91046L14.7216 9.79872Z" fill="currentColor" stroke="currentColor" stroke-width="0.45283" stroke-linejoin="round"/><path d="M14.2416 11.0755L15.1121 10.9459L14.5881 10.2388L14.2416 11.0755Z" fill="currentColor" stroke="currentColor" stroke-width="0.45283" stroke-linejoin="round"/><path d="M13.5216 12.234L14.4007 12.2768L14.0248 11.481L13.5216 12.234Z" fill="currentColor" stroke="currentColor" stroke-width="0.45283" stroke-linejoin="round"/><path d="M12.5895 13.2299L13.4434 13.4434L13.2299 12.5895L12.5895 13.2299Z" fill="currentColor" stroke="currentColor" stroke-width="0.45283" stroke-linejoin="round"/><path d="M11.481 14.0248L12.2768 14.4007L12.234 13.5216L11.481 14.0248Z" fill="currentColor" stroke="currentColor" stroke-width="0.45283" stroke-linejoin="round"/><path d="M10.2387 14.5882L10.9459 15.1121L11.0755 14.2416L10.2387 14.5882Z" fill="currentColor" stroke="currentColor" stroke-width="0.45283" stroke-linejoin="round"/><path d="M8.91045 14.8983L9.50181 15.5502L9.79871 14.7216L8.91045 14.8983Z" fill="currentColor" stroke="currentColor" stroke-width="0.45283" stroke-linejoin="round"/><path d="M7.54716 14.9434L7.99999 15.6981L8.45282 14.9434H7.54716Z" fill="currentColor" stroke="currentColor" stroke-width="0.45283" stroke-linejoin="round"/><path d="M6.20128 14.7216L6.49817 15.5502L7.08954 14.8983L6.20128 14.7216Z" fill="currentColor" stroke="currentColor" stroke-width="0.45283" stroke-linejoin="round"/><path d="M4.92451 14.2416L5.05405 15.1121L5.76123 14.5881L4.92451 14.2416Z" fill="currentColor" stroke="currentColor" stroke-width="0.45283" stroke-linejoin="round"/><path d="M3.76592 13.5216L3.72314 14.4007L4.51895 14.0248L3.76592 13.5216Z" fill="currentColor" stroke="currentColor" stroke-width="0.45283" stroke-linejoin="round"/><path d="M2.77006 12.5895L2.5566 13.4434L3.41046 13.2299L2.77006 12.5895Z" fill="currentColor" stroke="currentColor" stroke-width="0.45283" stroke-linejoin="round"/><path d="M1.97521 11.481L1.59926 12.2768L2.47836 12.234L1.97521 11.481Z" fill="currentColor" stroke="currentColor" stroke-width="0.45283" stroke-linejoin="round"/><path d="M1.41184 10.2387L0.887865 10.9459L1.75842 11.0755L1.41184 10.2387Z" fill="currentColor" stroke="currentColor" stroke-width="0.45283" stroke-linejoin="round"/><path d="M1.10167 8.91045L0.449793 9.50181L1.27835 9.79871L1.10167 8.91045Z" fill="currentColor" stroke="currentColor" stroke-width="0.45283" stroke-linejoin="round"/><path d="M1.05661 7.54716L0.301893 7.99999L1.05661 8.45282V7.54716Z" fill="currentColor" stroke="currentColor" stroke-width="0.45283" stroke-linejoin="round"/><path d="M1.27837 6.20128L0.449812 6.49817L1.10168 7.08954L1.27837 6.20128Z" fill="currentColor" stroke="currentColor" stroke-width="0.45283" stroke-linejoin="round"/><path d="M1.75842 4.92451L0.887858 5.05405L1.41183 5.76123L1.75842 4.92451Z" fill="currentColor" stroke="currentColor" stroke-width="0.45283" stroke-linejoin="round"/><path d="M2.47835 3.76592L1.59924 3.72314L1.97519 4.51895L2.47835 3.76592Z" fill="currentColor" stroke="currentColor" stroke-width="0.45283" stroke-linejoin="round"/><path d="M3.41048 2.77006L2.55661 2.5566L2.77008 3.41046L3.41048 2.77006Z" fill="currentColor" stroke="currentColor" stroke-width="0.45283" stroke-linejoin="round"/><path d="M4.51896 1.97521L3.72315 1.59926L3.76593 2.47836L4.51896 1.97521Z" fill="currentColor" stroke="currentColor" stroke-width="0.45283" stroke-linejoin="round"/><path d="M5.76122 1.41184L5.05404 0.887865L4.9245 1.75842L5.76122 1.41184Z" fill="currentColor" stroke="currentColor" stroke-width="0.45283" stroke-linejoin="round"/><path d="M7.08952 1.10167L6.49815 0.449793L6.20126 1.27835L7.08952 1.10167Z" fill="currentColor" stroke="currentColor" stroke-width="0.45283" stroke-linejoin="round"/><path d="M8.45281 1.05661L7.99998 0.301893L7.54715 1.05661L8.45281 1.05661Z" fill="currentColor" stroke="currentColor" stroke-width="0.45283" stroke-linejoin="round"/><path d="M9.79872 1.27837L9.50183 0.449812L8.91046 1.10168L9.79872 1.27837Z" fill="currentColor" stroke="currentColor" stroke-width="0.45283" stroke-linejoin="round"/><path d="M11.0755 1.75842L10.9459 0.887858L10.2388 1.41183L11.0755 1.75842Z" fill="currentColor" stroke="currentColor" stroke-width="0.45283" stroke-linejoin="round"/><path d="M12.234 2.47835L12.2768 1.59924L11.481 1.97519L12.234 2.47835Z" fill="currentColor" stroke="currentColor" stroke-width="0.45283" stroke-linejoin="round"/><path d="M13.2299 3.41048L13.4434 2.55661L12.5895 2.77008L13.2299 3.41048Z" fill="currentColor" stroke="currentColor" stroke-width="0.45283" stroke-linejoin="round"/><path d="M14.0248 4.51896L14.4007 3.72315L13.5216 3.76593L14.0248 4.51896Z" fill="currentColor" stroke="currentColor" stroke-width="0.45283" stroke-linejoin="round"/><path d="M14.5882 5.76122L15.1121 5.05404L14.2416 4.9245L14.5882 5.76122Z" fill="currentColor" stroke="currentColor" stroke-width="0.45283" stroke-linejoin="round"/><path d="M14.8983 7.08952L15.5502 6.49815L14.7216 6.20126L14.8983 7.08952Z" fill="currentColor" stroke="currentColor" stroke-width="0.45283" stroke-linejoin="round"/><path d="M6.94342 1.66037L8.00002 2.71697L9.05663 1.66037H6.94342Z" fill="currentColor" stroke="currentColor" stroke-width="0.90566" stroke-linejoin="round"/><path d="M13.7029 5.03604L13.0245 6.36744L14.3559 7.04582L13.7029 5.03604Z" fill="currentColor" stroke="currentColor" stroke-width="0.90566" stroke-linejoin="round"/><path d="M12.5811 12.5078L11.1053 12.2741L10.8715 13.7499L12.5811 12.5078Z" fill="currentColor" stroke="currentColor" stroke-width="0.90566" stroke-linejoin="round"/><path d="M5.12848 13.7499L4.89472 12.274L3.41886 12.5078L5.12848 13.7499Z" fill="currentColor" stroke="currentColor" stroke-width="0.90566" stroke-linejoin="round"/><path d="M1.64417 7.04584L2.97556 6.36746L2.29718 5.03606L1.64417 7.04584Z" fill="currentColor" stroke="currentColor" stroke-width="0.90566" stroke-linejoin="round"/>
    </symbol>
  </defs>
</svg>