
<svg width="16" height="16" viewBox="0 0 16 16" fill="none" xmlns="http://www.w3.org/2000/svg">
  <path d="M9.48819 1.78331C8.76911 0.986577 8.1499 0.177398 8.0234 0.00933671C8.01008 -0.00311224 7.9901 -0.00311224 7.97678 0.00933671C7.85028 0.177398 7.23107 0.986577 6.51198 1.78331C0.339879 9.13438 7.48408 14.0953 7.48408 14.0953L7.544 14.1327C7.59726 14.8982 7.73043 16 7.73043 16H7.99676H8.26308C8.26308 16 8.39625 14.9045 8.44951 14.1327L8.50943 14.0891C8.51609 14.0953 15.6603 9.13438 9.48819 1.78331ZM7.99676 13.9895C7.99676 13.9895 7.67717 13.7343 7.59061 13.6035V13.5912L7.97678 5.58646C7.97678 5.56156 8.01674 5.56156 8.01674 5.58646L8.4029 13.5912V13.6035C8.31635 13.7343 7.99676 13.9895 7.99676 13.9895Z" fill="#00ED64"/>
</svg>