
<svg width="16" height="16" viewBox="0 0 16 16" fill="none" xmlns="http://www.w3.org/2000/svg">
  <defs>
    <symbol id='logo-google' viewBox="0 0 16 16">
      <path fill-rule="evenodd" clip-rule="evenodd" d="M11.2216 4.37818C10.3853 3.59271 9.33802 3.18545 8.15982 3.18545C6.07983 3.18545 4.31254 4.58908 3.67985 6.48001L3.67984 6.48C3.51988 6.95995 3.42532 7.46896 3.42532 7.99987C3.42532 8.53085 3.5199 9.03991 3.6799 9.51991L3.67286 9.52539L3.6764 9.52267L3.67967 9.52729C4.31245 11.4182 6.07967 12.8218 8.15966 12.8218C9.23598 12.8218 10.1451 12.5309 10.8578 12.0509L13.4542 14.0655C12.1305 15.2873 10.3196 16 8.15966 16C5.03241 16 2.33443 14.1963 1.01807 11.5854L1.01823 11.5853C1.0181 11.5854 1.01803 11.5854 1.01803 11.5854C0.472607 10.509 0.159912 9.29448 0.159912 7.99996C0.159912 6.70543 0.472607 5.49087 1.01803 4.41455L1.33195 4.65811L1.01807 4.41455C2.33443 1.79636 5.03257 0 8.15982 0C10.3199 0 12.1234 0.792777 13.5125 2.0873L11.2216 4.37818ZM8.15979 9.64363V6.54544L15.6943 6.54553C15.7889 7.06912 15.8397 7.61462 15.8397 8.18188C15.8397 10.6182 14.967 12.6692 13.4543 14.0655L10.8579 12.0509C11.7088 11.4837 12.2762 10.64 12.4652 9.64363H8.15979Z" fill="currentColor"/>
    </symbol>
  </defs>
</svg>