
<svg width="16" height="16" viewBox="0 0 16 16" fill="none" xmlns="http://www.w3.org/2000/svg">
  <defs>
    <symbol id='logo-v0-wide' viewBox="0 0 20 16">
      <g clip-path="url(#clip0_3908_2318899)"><path fill-rule="evenodd" clip-rule="evenodd" d="M12.265 5H16.63C16.7422 5 16.8517 5.01137 16.9575 5.03301L12.2723 9.76708C12.2675 9.7161 12.265 9.66443 12.265 9.61219V5ZM12.2615 5L12.2615 3.25H16.63C18.494 3.25 20.005 4.76104 20.005 6.625V11.2422H18.26V12.9872H13.89C12.0261 12.9872 10.515 11.4762 10.515 9.61219V5L12.2615 5ZM18.255 11.2372V6.625C18.255 6.497 18.2402 6.37246 18.2122 6.253L13.3652 11.1506C13.5298 11.2067 13.7064 11.2372 13.89 11.2372L18.255 11.2372ZM0.164185 5.00359L6.88774 12.696C7.62019 13.534 9.00002 13.016 9.00002 11.903V5.00359H7.25002V10.4513L2.48843 5.00359H0.164185Z" fill="currentColor"/></g><defs><clipPath id="clip0_3908_2318899"><rect width="20" height="16" fill="currentColor"/></clipPath></defs>
    </symbol>
  </defs>
</svg>