
<svg width="16" height="16" viewBox="0 0 16 16" fill="none" xmlns="http://www.w3.org/2000/svg">
  <defs>
    <symbol id='logo-optimizely' viewBox="0 0 16 16">
      <path fill-rule="evenodd" clip-rule="evenodd" d="M5.32831 3.4218V5.33293C6.73934 5.33293 8.09258 4.77109 9.09032 3.77096C10.0881 2.77084 10.6486 1.41438 10.6486 0H8.73984C8.73926 0.906964 8.37972 1.77665 7.74011 2.41817C7.10053 3.05969 6.23314 3.42064 5.32831 3.4218ZM5.32788 14.0845C4.42309 14.0845 3.55537 13.7242 2.91559 13.0829C2.27581 12.4416 1.91639 11.5718 1.91639 10.6649C1.91639 9.75791 2.27581 8.88815 2.91559 8.24681C3.55537 7.60552 4.42309 7.24523 5.32788 7.24523V5.3341C4.6292 5.33311 3.93719 5.47005 3.29132 5.73714C2.64546 6.0042 2.05839 6.39621 1.56365 6.89069C1.06891 7.38517 0.676187 7.97255 0.407896 8.61917C0.139605 9.26583 0.00100353 9.95911 5.42935e-06 10.6594C-0.00099267 11.3597 0.135632 12.0534 0.402079 12.7008C0.668528 13.3482 1.05958 13.9367 1.55291 14.4326C2.04623 14.9285 2.63218 15.3222 3.27728 15.5911C3.92238 15.8601 4.614 15.999 5.31269 16H5.32788V14.0845ZM5.32831 8.78109V10.7064C6.74889 10.7047 8.11081 10.1382 9.11531 9.13134C10.1198 8.12443 10.6849 6.75929 10.6866 5.33534H8.76587C8.76474 6.24884 8.40218 7.12465 7.75779 7.77058C7.11336 8.41655 6.23966 8.77993 5.32831 8.78109ZM5.32831 15.9957V14.0845C6.23314 14.0834 7.10053 13.7224 7.74011 13.0809C8.37972 12.4394 8.73926 11.5697 8.73984 10.6628H10.6486C10.6486 12.0771 10.0881 13.4336 9.09032 14.4337C8.09258 15.4338 6.73934 15.9957 5.32831 15.9957ZM10.6798 5.33293V3.4218C11.5848 3.42093 12.4524 3.06011 13.0923 2.41855C13.7321 1.777 14.0918 0.907149 14.0924 0H16.0001C16.0001 1.41438 15.4396 2.77084 14.4418 3.77096C13.444 4.77109 12.0908 5.33293 10.6798 5.33293Z" fill="currentColor"/>
    </symbol>
  </defs>
</svg>