
<svg width="16" height="16" viewBox="0 0 16 16" fill="none" xmlns="http://www.w3.org/2000/svg">
  <defs>
    <symbol id='logo-reddit' viewBox="0 0 16 16">
      <path fill-rule="evenodd" clip-rule="evenodd" d="M15.8941 7.99105C15.8941 12.3558 12.3558 15.8942 7.99102 15.8942C3.62624 15.8942 0.0878906 12.3558 0.0878906 7.99105C0.0878906 3.62627 3.62624 0.0879211 7.99102 0.0879211C12.3558 0.0879211 15.8941 3.62627 15.8941 7.99105ZM12.0654 6.87916C12.7038 6.85755 13.2382 7.35457 13.2618 7.99104C13.2697 8.43502 13.0201 8.8437 12.6232 9.04215C12.6311 9.15807 12.6311 9.27398 12.6232 9.38989C12.6232 11.1618 10.5605 12.5998 8.01655 12.5998C5.47262 12.5998 3.40991 11.1598 3.40991 9.38989C3.402 9.27398 3.402 9.15807 3.40991 9.04215C3.29399 8.99105 3.19002 8.91834 3.09958 8.83386C2.63399 8.39779 2.61239 7.66701 3.04847 7.20336C3.48455 6.73778 4.21532 6.71618 4.67897 7.15225C5.59047 6.53546 6.66108 6.19756 7.76119 6.17982L8.34462 3.43743V3.43357C8.37412 3.29992 8.50584 3.21737 8.63738 3.24688L10.5744 3.63396C10.698 3.41776 10.9219 3.27235 11.1715 3.24688C11.6056 3.19964 11.9945 3.51401 12.0417 3.94815C12.0889 4.3823 11.7746 4.77131 11.3404 4.81837C10.9063 4.86562 10.5173 4.55125 10.4702 4.1171L8.77876 3.76146L8.26611 6.22689C9.35253 6.25042 10.4094 6.58639 11.3092 7.19932C11.5134 7.0049 11.7825 6.88899 12.0654 6.87916ZM6.15036 7.99104C5.71428 7.99104 5.35864 8.34668 5.35864 8.78275C5.35864 9.21883 5.71235 9.57043 6.15036 9.57447C6.58644 9.57447 6.94208 9.21883 6.94208 8.78275C6.94208 8.34668 6.58644 7.99104 6.15036 7.99104ZM9.94965 10.9554V10.9868C10.0361 10.9024 10.038 10.761 9.95352 10.6746C9.86887 10.5882 9.72749 10.5862 9.64108 10.6707C9.15987 11.0144 8.57837 11.1834 7.98898 11.1519C7.39975 11.1795 6.82019 11.0027 6.34478 10.6549C6.26416 10.5901 6.15211 10.5901 6.07361 10.6549C5.98316 10.7296 5.96946 10.865 6.04411 10.9554C6.60611 11.3778 7.2935 11.594 7.99688 11.5645C8.70026 11.5938 9.38783 11.3778 9.94965 10.9554ZM9.80231 9.63138H9.84164C10.2777 9.61364 10.6176 9.24641 10.6 8.81015C10.6 8.37408 10.2444 8.01844 9.80828 8.01844C9.3722 8.01844 9.01656 8.37408 9.01656 8.81015C9.01656 9.24623 9.3722 9.60187 9.80828 9.60187L9.80231 9.63138Z" fill="currentColor"/>
    </symbol>
  </defs>
</svg>