
<svg width="16" height="16" viewBox="0 0 16 16" fill="none" xmlns="http://www.w3.org/2000/svg">
  <path d="M10.8035 0.459218L9.77423 1.4885C9.57275 1.68999 9.57275 2.02111 9.77423 2.22259L13.793 6.24133C13.9945 6.44282 14.3256 6.44282 14.5271 6.24133L15.5563 5.21205C15.7578 5.01057 15.7578 4.67944 15.5563 4.47796L11.536 0.459218C11.3346 0.257735 11.005 0.257735 10.8035 0.459218ZM3.59227 13.6119C3.77501 13.4292 3.77501 13.1308 3.59227 12.9481L3.06904 12.4249C2.8863 12.2421 2.58798 12.2421 2.40524 12.4249L1.32441 13.5057L1.32285 13.5072L1.02609 13.2105C0.862089 13.0465 0.595006 13.0465 0.432569 13.2105C0.268571 13.3745 0.268571 13.6416 0.432569 13.804L2.21312 15.5846C2.37712 15.7486 2.64421 15.7486 2.80664 15.5846C2.96908 15.4206 2.97064 15.1535 2.80664 14.991L2.50988 14.6943L2.51144 14.6927L3.59227 13.6119Z" fill="#E69607"/><path d="M9.2627 9.7627C9.94609 9.0793 11.0539 9.0793 11.7373 9.7627C12.4207 10.4461 12.4207 11.5539 11.7373 12.2373C11.0539 12.9207 9.94609 12.9207 9.2627 12.2373C8.5793 11.5539 8.5793 10.4461 9.2627 9.7627Z" stroke="#E69607" stroke-width="1.5"/><path fill-rule="evenodd" clip-rule="evenodd" d="M6.75051 5.70093L9.03712 3.41432C9.24017 3.20971 9.57441 3.20971 9.77745 3.41432L12.6014 6.23822C12.8044 6.44126 12.8044 6.77551 12.6014 6.97855L12.1689 7.41105C10.8603 6.76604 9.27231 6.88014 8.0626 7.75335L6.75051 6.44126C6.54747 6.23822 6.54747 5.90397 6.75051 5.70093ZM7.43536 8.3147L6.73489 7.61424C6.53966 7.41901 6.21947 7.41901 6.02423 7.61424L3.08319 10.5568C2.88796 10.7521 2.88796 11.0723 3.08319 11.2675L4.74973 12.934C4.94497 13.1293 5.26516 13.1293 5.46039 12.934L6.50042 11.8923C6.21883 10.6561 6.53048 9.31216 7.43536 8.3147Z" fill="#455DC1"/>
</svg>