
<svg width="16" height="16" viewBox="0 0 16 16" fill="none" xmlns="http://www.w3.org/2000/svg">
  <defs>
    <symbol id='logo-linkedin' viewBox="0 0 16 16">
      <path fill-rule="evenodd" clip-rule="evenodd" d="M2 0C0.895431 0 0 0.895431 0 2V14C0 15.1046 0.895431 16 2 16H14C15.1046 16 16 15.1046 16 14V2C16 0.895431 15.1046 0 14 0H2ZM3.99408 4.5C4.61409 4.5 5 4.05554 5 3.50008C4.98845 2.93213 4.61409 2.5 4.00584 2.5C3.39765 2.5 3 2.93213 3 3.50008C3 4.05554 3.38582 4.5 3.98249 4.5H3.99408ZM5 5.75V13H3V5.75H5ZM6.5 13H8.5V8.93972C8.5 8.93972 8.4722 7.46616 9.7361 7.46616C11 7.46616 11 9.11033 11 9.11033V13H13V8.83107C13 6.59782 12 5.75 10.5 5.75C9 5.75 8.5 6.78371 8.5 6.78371V5.75H6.50007C6.53178 6.43224 6.5 13 6.5 13Z" fill="currentColor"/>
    </symbol>
  </defs>
</svg>