
<svg width="16" height="16" viewBox="0 0 16 16" fill="none" xmlns="http://www.w3.org/2000/svg">
  <defs>
    <symbol id='logo-go' viewBox="0 0 16 16">
      <path d="M15.3159 4.45889C14.01 4.79173 13.1186 5.04136 11.8334 5.3742C11.5225 5.45741 11.5017 5.47821 11.2322 5.16617C10.9213 4.81253 10.6933 4.5837 10.258 4.37568C8.95201 3.7308 7.68751 3.91802 6.50594 4.68771C5.09634 5.60303 4.37081 6.95519 4.39154 8.6402C4.41227 10.3044 5.55238 11.6774 7.19001 11.9062C8.59961 12.0934 9.78118 11.5942 10.714 10.5332C10.9006 10.3044 11.0664 10.0548 11.2737 9.76354C10.5274 9.76354 9.59462 9.76354 7.27293 9.76354C6.83761 9.76354 6.73396 9.4931 6.87907 9.13946C7.14855 8.49458 7.64605 7.41285 7.93627 6.87198C7.99845 6.74717 8.14356 6.53914 8.4545 6.53914C9.5117 6.53914 13.4088 6.53914 16 6.53914C15.9585 7.10081 15.9585 7.66248 15.8756 8.22415C15.6476 9.72193 15.0879 11.0949 14.1758 12.3014C12.6833 14.2777 10.7347 15.505 8.26794 15.8379C6.23645 16.1083 4.35008 15.7131 2.69173 14.4649C1.15775 13.3 0.287117 11.7606 0.0590939 9.84674C-0.210388 7.57927 0.452952 5.54062 1.82109 3.7516C3.29288 1.81696 5.24144 0.589612 7.62532 0.152759C9.57389 -0.200885 11.4395 0.0279436 13.1186 1.17208C14.2173 1.90017 15.005 2.89869 15.5232 4.10524C15.6476 4.29247 15.5647 4.39648 15.3159 4.45889Z" fill="currentColor"/>
    </symbol>
  </defs>
</svg>