
<svg width="16" height="16" viewBox="0 0 16 16" fill="none" xmlns="http://www.w3.org/2000/svg">
  <defs>
    <symbol id='logo-shopify' viewBox="0 0 16 16">
      <path fill-rule="evenodd" clip-rule="evenodd" d="M10 1.78778C9.95922 1.68008 9.90963 1.56521 9.84976 1.45004C9.51353 0.802843 9.02105 0.4606 8.426 0.459715H8.42381C8.38685 0.459715 8.35024 0.462902 8.31338 0.466112L8.30015 0.467259C8.28254 0.445952 8.26493 0.425091 8.24645 0.404669C7.98721 0.125017 7.65494 -0.0112582 7.25663 0.000726965C6.4882 0.0229217 5.72286 0.582672 5.10229 1.57699C4.6657 2.27657 4.33341 3.15549 4.23923 3.83597L3.51586 4.06192C3.0367 4.21158 2.7356 4.30562 2.72612 4.30872C2.28073 4.44987 2.26664 4.46363 2.20855 4.88712C2.16542 5.20715 1 14.2963 1 14.2963L10 15.8296V1.78778ZM8.83002 2.40219L9.58791 2.1656C9.46687 1.76876 9.17992 1.10336 8.59677 0.991941C8.77809 1.4638 8.82431 2.00979 8.83002 2.40219ZM6.68845 3.07115L8.31905 2.56199C8.32434 2.13364 8.27812 1.5002 8.06555 1.05275C7.83933 1.14686 7.64834 1.31155 7.51191 1.45936C7.14485 1.85665 6.846 2.46256 6.68845 3.07115ZM7.73416 0.638603C7.60431 0.552488 7.45247 0.512536 7.27202 0.516531C6.08592 0.551155 5.05124 2.41951 4.78671 3.66464C5.0295 3.58902 5.28441 3.50936 5.54639 3.4275L6.12598 3.24648C6.27518 2.45546 6.64927 1.63559 7.13737 1.10735C7.32572 0.903608 7.52642 0.747357 7.73416 0.638603ZM8.4208 5.14569L7.92921 7.0007C7.92921 7.0007 7.38083 6.74902 6.73079 6.7903C5.77749 6.85113 5.76736 7.45747 5.77706 7.60974C5.79759 7.93758 6.14793 8.16416 6.57172 8.43823C7.22035 8.85771 8.04102 9.38845 8.1145 10.5638C8.21 12.0926 7.31039 13.1384 6.01428 13.221C4.45848 13.32 3.60202 12.3945 3.60202 12.3945L3.93167 10.9802C3.93167 10.9802 4.79383 11.6363 5.48393 11.5924C5.93462 11.5635 6.09569 11.1937 6.0794 10.9323C6.0497 10.458 5.69458 10.2039 5.29559 9.91831C4.78415 9.55229 4.20063 9.13468 4.13808 8.13574C4.04433 6.63939 5.01875 5.12305 7.16868 4.98633C7.99697 4.93262 8.4208 5.14569 8.4208 5.14569ZM11.9359 2.92879C11.9359 2.92879 13.0653 2.9461 13.1229 2.95098C13.1806 2.95586 13.251 3.00068 13.262 3.08148C13.273 3.16228 15 14.9388 15 14.9388L11 15.9997L10.9995 1.84879C11.0489 1.85633 11.0959 1.87453 11.1307 1.9096C11.224 2.0037 11.9359 2.92879 11.9359 2.92879Z" fill="currentColor"/>
    </symbol>
  </defs>
</svg>