
<svg width="16" height="16" viewBox="0 0 16 16" fill="none" xmlns="http://www.w3.org/2000/svg">
  <defs>
    <symbol id='logo-datocms' viewBox="0 0 16 16">
      <g clip-path="url(#clip0_3910_22121115)"><path fill-rule="evenodd" clip-rule="evenodd" d="M7.80302 0H0V16H7.80302C11.7057 16 15.606 12.4179 15.606 8.00133C15.606 3.58412 11.7057 0 7.80335 0H7.80302ZM7.803 11.6353C7.0956 11.6344 6.40485 11.4206 5.8206 11.0218C5.2316 10.619 4.77468 10.0513 4.5072 9.3898C4.23715 8.72546 4.16673 7.99468 4.30458 7.28948C4.44129 6.5869 4.78119 5.93989 5.28216 5.42867C5.77821 4.92205 6.41466 4.57566 7.10943 4.43415C7.80191 4.29413 8.52054 4.3665 9.17121 4.64175C9.82602 4.91951 10.3834 5.38585 10.7723 5.9814C11.1649 6.58173 11.3738 7.28365 11.3732 8.001C11.3732 8.47866 11.2808 8.95134 11.1011 9.39246C10.9225 9.83224 10.6596 10.2328 10.3272 10.5717C9.99707 10.9082 9.60349 11.1759 9.16922 11.3592C8.73607 11.5419 8.27169 11.6359 7.803 11.6353Z" fill="currentColor"/></g><defs><clipPath id="clip0_3910_22121115"><rect width="16" height="16" fill="currentColor"/></clipPath></defs>
    </symbol>
  </defs>
</svg>