
<svg width="16" height="16" viewBox="0 0 16 16" fill="none" xmlns="http://www.w3.org/2000/svg">
  <defs>
    <symbol id='logo-stripe' viewBox="0 0 16 16">
      <path fill-rule="evenodd" clip-rule="evenodd" d="M6.86827 4.76483C6.86827 4.07912 7.43091 3.81539 8.36278 3.81539C9.69904 3.81539 11.387 4.21978 12.7232 4.94066V0.808791C11.2639 0.228571 9.82212 0 8.36278 0C4.79355 0 2.41992 1.86374 2.41992 4.97582C2.41992 9.82857 9.10124 9.05494 9.10124 11.1473C9.10124 11.956 8.39794 12.2198 7.41333 12.2198C5.95399 12.2198 4.09025 11.622 2.61333 10.8132V14.9978C4.24849 15.7011 5.90124 16 7.41333 16C11.0705 16 13.5848 14.189 13.5848 11.0418C13.5672 5.8022 6.86827 6.73407 6.86827 4.76483Z" fill="currentColor"/>
    </symbol>
  </defs>
</svg>