
<svg width="16" height="16" viewBox="0 0 16 16" fill="none" xmlns="http://www.w3.org/2000/svg">
  <defs>
    <symbol id='logo-slack' viewBox="0 0 16 16">
      <g clip-path="url(#clip0_3908_2416929)"><path fill-rule="evenodd" clip-rule="evenodd" d="M12.1575 5.83307C12.1575 4.91339 12.9008 4.17008 13.8205 4.17008C14.7402 4.17008 15.4835 4.91339 15.4835 5.83307C15.4835 6.75276 14.7402 7.49606 13.8205 7.49606H12.1575V5.83307ZM11.326 5.83307C11.326 6.75276 10.5827 7.49606 9.66299 7.49606C8.74331 7.49606 8 6.75276 8 5.83307V1.66299C8 0.743307 8.74331 0 9.66299 0C10.5827 0 11.326 0.743307 11.326 1.66299V5.83307ZM4.25821 1.73858C4.25821 2.65827 5.00152 3.40158 5.92121 3.40158H7.5842V1.73858C7.5842 0.818899 6.84089 0.075592 5.92121 0.075592C5.00152 0.075592 4.25821 0.818899 4.25821 1.73858ZM7.5842 5.90866C7.5842 4.98898 6.84089 4.24567 5.92121 4.24567H1.75113C0.831442 4.24567 0.0881348 4.98898 0.0881348 5.90866C0.0881348 6.82835 0.831442 7.57165 1.75113 7.57165H5.92121C6.84089 7.57165 7.5842 6.82835 7.5842 5.90866ZM1.76382 11.7417C2.68351 11.7417 3.42681 10.9984 3.42681 10.0787V8.41575H1.76382C0.844137 8.41575 0.10083 9.15906 0.10083 10.0787C0.10083 10.9984 0.844137 11.7417 1.76382 11.7417ZM5.9213 8.41575C5.00162 8.41575 4.25831 9.15906 4.25831 10.0787V14.2362C4.25831 15.1559 5.00162 15.8992 5.9213 15.8992C6.84099 15.8992 7.58429 15.1559 7.58429 14.2362V10.0787C7.58429 9.15906 6.84099 8.41575 5.9213 8.41575ZM11.7543 14.2362C11.7543 13.3165 11.011 12.5732 10.0913 12.5732H8.42834V14.2362C8.42834 15.1559 9.17165 15.8992 10.0913 15.8992C11.011 15.8992 11.7543 15.1559 11.7543 14.2362ZM8.42834 10.0787C8.42834 10.9984 9.17165 11.7417 10.0913 11.7417H14.2614C15.1811 11.7417 15.9244 10.9984 15.9244 10.0787C15.9244 9.15906 15.1811 8.41575 14.2614 8.41575H10.0913C9.17165 8.41575 8.42834 9.15906 8.42834 10.0787Z" fill="currentColor"/></g><defs><clipPath id="clip0_3908_2416929"><rect width="16" height="16" fill="currentColor"/></clipPath></defs>
    </symbol>
  </defs>
</svg>