
<svg width="16" height="16" viewBox="0 0 16 16" fill="none" xmlns="http://www.w3.org/2000/svg">
  <defs>
    <symbol id='logo-salesforce' viewBox="0 0 16 16">
      <path fill-rule="evenodd" clip-rule="evenodd" d="M6.65775 3.54142C7.17395 2.99454 7.89241 2.65588 8.68612 2.65588C9.7444 2.65588 10.6616 3.25422 11.1554 4.14574C11.5938 3.9463 12.0686 3.84333 12.5488 3.84358C14.4537 3.84358 16 5.42917 16 7.38573C16 9.3423 14.4537 10.9279 12.5488 10.9279C12.316 10.9279 12.0891 10.9041 11.8668 10.8591C11.4347 11.6429 10.6087 12.1754 9.66797 12.1754C9.28498 12.1762 8.90689 12.0878 8.56265 11.9169C8.12464 12.964 7.10458 13.7 5.91695 13.7C4.67642 13.7 3.62402 12.9042 3.21834 11.7853C3.03779 11.8241 2.85375 11.8436 2.66921 11.8435C1.1935 11.8435 0 10.6109 0 9.0971C0 8.07993 0.53737 7.19439 1.33461 6.71572C1.16547 6.3192 1.07841 5.89147 1.07886 5.45921C1.07886 3.71206 2.47226 2.29999 4.18902 2.29999C5.19439 2.29999 6.09392 2.78763 6.65834 3.54453" fill="currentColor"/>
    </symbol>
  </defs>
</svg>