
<svg width="16" height="16" viewBox="0 0 16 16" fill="none" xmlns="http://www.w3.org/2000/svg">
  <defs>
    <symbol id='logs' viewBox="0 0 16 16">
      <path fill-rule="evenodd" clip-rule="evenodd" d="M9 2H9.75H14.25H15V3.5H14.25H9.75H9V2ZM9 12H9.75H14.25H15V13.5H14.25H9.75H9V12ZM9.75 7H9V8.5H9.75H14.25H15V7H14.25H9.75ZM1 12H1.75H2.25H3V13.5H2.25H1.75H1V12ZM1.75 2H1V3.5H1.75H2.25H3V2H2.25H1.75ZM1 7H1.75H2.25H3V8.5H2.25H1.75H1V7ZM5.75 12H5V13.5H5.75H6.25H7V12H6.25H5.75ZM5 2H5.75H6.25H7V3.5H6.25H5.75H5V2ZM5.75 7H5V8.5H5.75H6.25H7V7H6.25H5.75Z" fill="currentColor"/>
    </symbol>
  </defs>
</svg>