
<svg width="16" height="16" viewBox="0 0 16 16" fill="none" xmlns="http://www.w3.org/2000/svg">
  <defs>
    <symbol id='microphone-off' viewBox="0 0 16 16">
      <g clip-path="url(#clip0_53_223769)"><path fill-rule="evenodd" clip-rule="evenodd" d="M15.5575 15.0814L15.0694 14.5119L12.5082 11.5239C13.4818 10.6497 14.2004 9.49584 14.5373 8.18698L14.7242 7.46066L13.2716 7.08677L13.0846 7.8131C12.8262 8.8172 12.2773 9.70635 11.5317 10.3846L10.3921 9.05503C11.0739 8.4164 11.5 7.50798 11.5 6.50004V3.50004C11.5 1.56704 9.93299 4.04865e-05 7.99999 4.04865e-05C6.45484 4.04865e-05 5.14355 1.00131 4.67954 2.39041L3.06943 0.511947L2.58134 -0.0574951L1.44245 0.918692L1.93055 1.48813L13.9305 15.4881L14.4186 16.0576L15.5575 15.0814ZM5.99999 3.93093V3.50004C5.99999 2.39547 6.89542 1.50004 7.99999 1.50004C9.10456 1.50004 9.99999 2.39547 9.99999 3.50004V6.50004C9.99999 7.05125 9.77754 7.55134 9.41436 7.91436L5.99999 3.93093ZM1.46269 8.18698L1.27574 7.46066L2.7284 7.08677L2.91534 7.8131C3.49819 10.0776 5.55473 11.75 7.99999 11.75H8.74999L8.74999 12.5L8.74999 13.25L8.74999 15.25V16H7.24999V15.25V13.2089C4.44029 12.8983 2.15159 10.8636 1.46269 8.18698Z" fill="currentColor"/></g><defs><clipPath id="clip0_53_223769"><rect width="16" height="16" fill="white"/></clipPath></defs>
    </symbol>
  </defs>
</svg>