
<svg width="16" height="16" viewBox="0 0 16 16" fill="none" xmlns="http://www.w3.org/2000/svg">
  <defs>
    <symbol id='monorepo' viewBox="0 0 16 16">
      <path fill-rule="evenodd" clip-rule="evenodd" d="M3 3.25C3 3.66421 2.66421 4 2.25 4C1.83579 4 1.5 3.66421 1.5 3.25C1.5 2.83579 1.83579 2.5 2.25 2.5C2.66421 2.5 3 2.83579 3 3.25ZM2.25 5.5C2.61246 5.5 2.9549 5.4143 3.25816 5.26205L7.53954 8.59201L8 8.95015L8.46045 8.59201L12.7418 5.26205C13.0451 5.4143 13.3875 5.5 13.75 5.5C14.9926 5.5 16 4.49264 16 3.25C16 2.00736 14.9926 1 13.75 1C12.5074 1 11.5 2.00736 11.5 3.25C11.5 3.57924 11.5707 3.89196 11.6978 4.1738L8 7.04985L4.30222 4.1738C4.42929 3.89196 4.5 3.57924 4.5 3.25C4.5 2.00736 3.49264 1 2.25 1C1.00736 1 0 2.00736 0 3.25C0 4.49264 1.00736 5.5 2.25 5.5ZM3 12.75C3 13.1642 2.66421 13.5 2.25 13.5C1.83579 13.5 1.5 13.1642 1.5 12.75C1.5 12.3358 1.83579 12 2.25 12C2.66421 12 3 12.3358 3 12.75ZM2.25 15C3.49264 15 4.5 13.9926 4.5 12.75C4.5 11.7703 3.87389 10.9369 3 10.628V7H1.5V10.628C0.626106 10.9369 0 11.7703 0 12.75C0 13.9926 1.00736 15 2.25 15ZM13.75 4C14.1642 4 14.5 3.66421 14.5 3.25C14.5 2.83579 14.1642 2.5 13.75 2.5C13.3358 2.5 13 2.83579 13 3.25C13 3.66421 13.3358 4 13.75 4ZM14.5 12.75C14.5 13.1642 14.1642 13.5 13.75 13.5C13.3358 13.5 13 13.1642 13 12.75C13 12.3358 13.3358 12 13.75 12C14.1642 12 14.5 12.3358 14.5 12.75ZM13.75 15C14.9926 15 16 13.9926 16 12.75C16 11.7703 15.3739 10.9369 14.5 10.628V7H13V10.628C12.1261 10.9369 11.5 11.7703 11.5 12.75C11.5 13.9926 12.5074 15 13.75 15Z" fill="currentColor"/>
    </symbol>
  </defs>
</svg>