
<svg width="16" height="16" viewBox="0 0 16 16" fill="none" xmlns="http://www.w3.org/2000/svg">
  <defs>
    <symbol id='moon-small' viewBox="0 0 16 16">
      <path fill-rule="evenodd" clip-rule="evenodd" d="M12.5 2.25V3V3.5H13L13.75 3.5V5H13H12.5V5.5V6.25H11V5.5V5H10.5H9.75V3.5H10.5H11V3V2.25H12.5ZM5.25514 4.75496C4.33413 5.53491 3.75 6.69972 3.75 8C3.75 10.3472 5.65279 12.25 8 12.25C9.30029 12.25 10.4651 11.6659 11.245 10.7449C11.1638 10.7483 11.0821 10.75 11 10.75C7.82436 10.75 5.25 8.17563 5.25 4.99999C5.25 4.91792 5.25172 4.83623 5.25514 4.75496ZM2.25 8C2.25 5.51072 3.83142 3.39271 6.042 2.59219L7.00256 3.55275C6.83933 4.00347 6.75 4.49047 6.75 4.99999C6.75 7.3472 8.65279 9.24999 11 9.24999C11.5095 9.24999 11.9965 9.16065 12.4473 8.99743L13.4078 9.95798C12.6073 12.1686 10.4893 13.75 8 13.75C4.82436 13.75 2.25 11.1756 2.25 8Z" fill="currentColor"/>
    </symbol>
  </defs>
</svg>