
<svg width="16" height="16" viewBox="0 0 16 16" fill="none" xmlns="http://www.w3.org/2000/svg">
  <defs>
    <symbol id='paperclip' viewBox="0 0 16 16">
      <g clip-path="url(#clip0_53_247787)"><path d="M10.8591 0.292664C11.7673 0.292727 12.6386 0.653537 13.2809 1.29559C13.9234 1.938 14.2848 2.80995 14.2849 3.71844C14.2848 4.62697 13.9234 5.49788 13.2809 6.14032V6.1413L7.03192 12.3835C6.64443 12.7709 6.11889 12.9889 5.57098 12.989C5.02299 12.9889 4.49656 12.771 4.10907 12.3835C3.72171 11.9959 3.50458 11.4695 3.50458 10.9216C3.50473 10.3737 3.72262 9.84806 4.11005 9.46063L9.87665 3.69989L10.3776 3.19989L11.3766 4.20087L10.8766 4.70087L5.10907 10.4616C4.9874 10.5837 4.9188 10.7492 4.91864 10.9216C4.91864 11.0943 4.98799 11.2603 5.11005 11.3825C5.23223 11.5047 5.39819 11.5738 5.57098 11.5739C5.74381 11.5739 5.90971 11.5047 6.03192 11.3825L12.2809 5.14032L12.4147 4.99286C12.7079 4.63504 12.8698 4.18506 12.8698 3.71844C12.8697 3.18525 12.6579 2.67365 12.2809 2.29657C11.9039 1.91965 11.3922 1.70679 10.8591 1.70673C10.3258 1.70681 9.81332 1.91947 9.43622 2.29657L3.19403 8.53876C2.56221 9.17069 2.20688 10.028 2.20673 10.9216C2.20673 11.8153 2.56213 12.6733 3.19403 13.3054C3.82605 13.9374 4.68402 14.2926 5.57782 14.2927C6.47153 14.2926 7.32862 13.9373 7.96063 13.3054L14.7038 6.56219L15.7038 7.56317L8.96161 14.3054C8.06427 15.2027 6.84684 15.7067 5.57782 15.7067C4.30882 15.7066 3.09136 15.2027 2.19403 14.3054C1.29683 13.408 0.792664 12.1905 0.792664 10.9216C0.79282 9.65267 1.29677 8.43504 2.19403 7.53778L8.43622 1.29559C9.07863 0.653202 9.95059 0.292747 10.8591 0.292664Z" fill="currentColor"/></g><defs><clipPath id="clip0_53_247787"><rect width="16" height="16" fill="white"/></clipPath></defs>
    </symbol>
  </defs>
</svg>