
<svg width="16" height="16" viewBox="0 0 16 16" fill="none" xmlns="http://www.w3.org/2000/svg">
  <defs>
    <symbol id='pen' viewBox="0 0 16 16">
      <g clip-path="url(#clip0_53_252784)"><path d="M15.8105 7.24988L13.7373 9.32312C13.1907 9.86968 12.3731 9.97806 11.7178 9.65027L9.54883 13.5565C8.71109 15.0644 7.12149 15.9998 5.39648 15.9999H0V10.6034C7.62885e-05 8.87843 0.935461 7.28877 2.44336 6.45105L6.34863 4.28113C6.02165 3.62604 6.13056 2.80883 6.67676 2.26257L8.75 0.189331L15.8105 7.24988ZM3.17188 7.76257C2.14017 8.33574 1.50008 9.42318 1.5 10.6034V13.4393L4.46973 10.4696L5.53027 11.5302L2.56055 14.4999H5.39648C6.57674 14.4998 7.66412 13.8597 8.2373 12.828L10.5693 8.62976L7.36914 5.42957L3.17188 7.76257ZM7.7373 3.32312C7.63979 3.42071 7.63983 3.57902 7.7373 3.67664L12.3232 8.26257C12.4209 8.3601 12.5791 8.3601 12.6768 8.26257L13.6895 7.24988L8.75 2.31042L7.7373 3.32312Z" fill="currentColor"/></g><defs><clipPath id="clip0_53_252784"><rect width="16" height="16" fill="white"/></clipPath></defs>
    </symbol>
  </defs>
</svg>