
<svg width="16" height="16" viewBox="0 0 16 16" fill="none" xmlns="http://www.w3.org/2000/svg">
  <defs>
    <symbol id='percentage' viewBox="0 0 16 16">
      <path fill-rule="evenodd" clip-rule="evenodd" d="M11.4749 1.33223L11.1964 2.02859L6.19636 14.5286L5.91781 15.2249L4.5251 14.6679L4.80364 13.9715L9.80364 1.4715L10.0822 0.775146L11.4749 1.33223ZM4 5.50005C4.82843 5.50005 5.5 4.82847 5.5 4.00005C5.5 3.17162 4.82843 2.50005 4 2.50005C3.17157 2.50005 2.5 3.17162 2.5 4.00005C2.5 4.82847 3.17157 5.50005 4 5.50005ZM7 4.00005C7 5.6569 5.65685 7.00005 4 7.00005C2.34315 7.00005 1 5.6569 1 4.00005C1 2.34319 2.34315 1.00005 4 1.00005C5.65685 1.00005 7 2.34319 7 4.00005ZM13.5 12C13.5 12.8285 12.8284 13.5 12 13.5C11.1716 13.5 10.5 12.8285 10.5 12C10.5 11.1716 11.1716 10.5 12 10.5C12.8284 10.5 13.5 11.1716 13.5 12ZM12 15C13.6569 15 15 13.6569 15 12C15 10.3432 13.6569 9.00005 12 9.00005C10.3431 9.00005 9 10.3432 9 12C9 13.6569 10.3431 15 12 15Z" fill="currentColor"/>
    </symbol>
  </defs>
</svg>