
<svg width="16" height="16" viewBox="0 0 16 16" fill="none" xmlns="http://www.w3.org/2000/svg">
  <defs>
    <symbol id='plant-sprout' viewBox="0 0 16 16">
      <path fill-rule="evenodd" clip-rule="evenodd" d="M12 2.5H14.5V5C14.5 6.38071 13.3807 7.5 12 7.5C11.5844 7.5 11.1925 7.39858 10.8476 7.21915C10.9192 7.14347 10.992 7.06867 11.0659 6.9948L12.5303 5.53033L11.4697 4.46967L10.0052 5.93414C9.93073 6.00861 9.85727 6.0839 9.78483 6.15999C9.60292 5.81331 9.5 5.41867 9.5 5C9.5 3.61929 10.6193 2.5 12 2.5ZM8.77245 7.36328C8.28681 6.70115 8 5.88407 8 5C8 2.79086 9.79086 1 12 1H14.5H16V2.5V5C16 7.20914 14.2091 9 12 9C11.2208 9 10.4936 8.77719 9.87871 8.39181C8.50348 10.3048 7.75 12.6136 7.75 15H6.25V14.8891C6.25 12.9737 5.61393 11.1239 4.45876 9.62208C4.02694 9.86283 3.52949 10 3 10C1.34315 10 0 8.65685 0 7V5.5V4H1.5H3C4.65685 4 6 5.34315 6 7C6 7.58059 5.83507 8.12266 5.54951 8.58191C6.11167 9.28944 6.57398 10.0656 6.92723 10.8882C7.35371 9.62869 7.97505 8.4386 8.77245 7.36328ZM1.5 5.5H3C3.82843 5.5 4.5 6.17157 4.5 7C4.5 7.82843 3.82843 8.5 3 8.5C2.17157 8.5 1.5 7.82843 1.5 7V5.5Z" fill="currentColor"/>
    </symbol>
  </defs>
</svg>