
<svg width="16" height="16" viewBox="0 0 16 16" fill="none" xmlns="http://www.w3.org/2000/svg">
  <defs>
    <symbol id='play-circle' viewBox="0 0 16 16">
      <g clip-path="url(#clip0_2010_1481768)"><path fill-rule="evenodd" clip-rule="evenodd" d="M14.5 8C14.5 11.5899 11.5899 14.5 8 14.5C4.41015 14.5 1.5 11.5899 1.5 8C1.5 4.41015 4.41015 1.5 8 1.5C11.5899 1.5 14.5 4.41015 14.5 8ZM16 8C16 12.4183 12.4183 16 8 16C3.58172 16 0 12.4183 0 8C0 3.58172 3.58172 0 8 0C12.4183 0 16 3.58172 16 8ZM6 11L11.5 8L6 5L6 11Z" fill="currentColor"/></g><defs><clipPath id="clip0_2010_1481768"><rect width="16" height="16" fill="white"/></clipPath></defs>
    </symbol>
  </defs>
</svg>