
<svg width="16" height="16" viewBox="0 0 16 16" fill="none" xmlns="http://www.w3.org/2000/svg">
  <defs>
    <symbol id='plus-square-small' viewBox="0 0 16 16">
      <path fill-rule="evenodd" clip-rule="evenodd" d="M5 13H11L11.2041 12.9893C12.1457 12.8938 12.8938 12.1457 12.9893 11.2041L13 11V5C13 3.96435 12.2128 3.113 11.2041 3.01074L11 3H5L4.7959 3.01074C3.78722 3.113 3 3.96435 3 5V11L3.01074 11.2041C3.1062 12.1457 3.85435 12.8938 4.7959 12.9893L5 13ZM11 11.75H5C4.58579 11.75 4.25 11.4142 4.25 11V5C4.25 4.58579 4.58579 4.25 5 4.25H11C11.4142 4.25 11.75 4.58579 11.75 5V11C11.75 11.4142 11.4142 11.75 11 11.75ZM7.375 5.625H8.625V7.375H10.375V8.625H8.625V10.375H7.375V8.625H5.625V7.375H7.375V5.625Z" fill="currentColor"/>
    </symbol>
  </defs>
</svg>