
<svg width="16" height="16" viewBox="0 0 16 16" fill="none" xmlns="http://www.w3.org/2000/svg">
  <defs>
    <symbol id='qr-code' viewBox="0 0 16 16">
      <g clip-path="url(#clip0_9687_4527707)"><path d="M5 0.75H2.25C1.42157 0.75 0.75 1.42157 0.75 2.25V5C0.75 5.82843 1.42157 6.5 2.25 6.5H3.625H5C5.82843 6.5 6.5 5.82843 6.5 5V3.625V2.25C6.5 1.42157 5.82843 0.75 5 0.75Z" stroke="currentColor" stroke-width="1.5"/><path d="M4.25 2.5H3C2.72386 2.5 2.5 2.72386 2.5 3V4.25C2.5 4.52614 2.72386 4.75 3 4.75H3.625H4.25C4.52614 4.75 4.75 4.52614 4.75 4.25V3.625V3C4.75 2.72386 4.52614 2.5 4.25 2.5Z" fill="currentColor"/><path d="M13.75 0.75H11C10.1716 0.75 9.5 1.42157 9.5 2.25V5C9.5 5.82843 10.1716 6.5 11 6.5H13.75C14.5784 6.5 15.25 5.82843 15.25 5V3.625V2.25C15.25 1.42157 14.5784 0.75 13.75 0.75Z" stroke="currentColor" stroke-width="1.5"/><path d="M13 2.5H11.75C11.4739 2.5 11.25 2.72386 11.25 3V4.25C11.25 4.52614 11.4739 4.75 11.75 4.75H12.375H13C13.2761 4.75 13.5 4.52614 13.5 4.25V3.625V3C13.5 2.72386 13.2761 2.5 13 2.5Z" fill="currentColor"/><path d="M5 9.5H2.25C1.42157 9.5 0.75 10.1716 0.75 11V13.75C0.75 14.5784 1.42157 15.25 2.25 15.25H3.625H5C5.82843 15.25 6.5 14.5784 6.5 13.75V12.375V11C6.5 10.1716 5.82843 9.5 5 9.5Z" stroke="currentColor" stroke-width="1.5"/><path d="M4.25 11.25H3C2.72386 11.25 2.5 11.4739 2.5 11.75V13C2.5 13.2761 2.72386 13.5 3 13.5H3.625H4.25C4.52614 13.5 4.75 13.2761 4.75 13V12.375V11.75C4.75 11.4739 4.52614 11.25 4.25 11.25Z" fill="currentColor"/><path d="M11.25 9.5H11C10.1716 9.5 9.5 10.1716 9.5 11V11.25" stroke="currentColor" stroke-width="1.5" stroke-linecap="square" stroke-linejoin="round"/><path d="M15.25 11.25L15.25 11C15.25 10.1716 14.5784 9.5 13.75 9.5L13.5 9.5" stroke="currentColor" stroke-width="1.5" stroke-linecap="square" stroke-linejoin="round"/><path d="M13.5 15.25L13.75 15.25C14.5784 15.25 15.25 14.5784 15.25 13.75L15.25 13.5" stroke="currentColor" stroke-width="1.5" stroke-linecap="square" stroke-linejoin="round"/><path d="M9.5 13.5L9.5 13.75C9.5 14.5784 10.1716 15.25 11 15.25L11.25 15.25" stroke="currentColor" stroke-width="1.5" stroke-linecap="square" stroke-linejoin="round"/><path opacity="0.2" d="M9.5 13.5L9.5 13.8125V13.8125C9.5 14.6064 10.1436 15.25 10.9375 15.25V15.25L11.25 15.25" stroke="currentColor" stroke-width="1.5" stroke-linecap="square" stroke-linejoin="round"/><path opacity="0.2" d="M13.5 15.25L13.8125 15.25V15.25C14.6064 15.25 15.25 14.6064 15.25 13.8125V13.8125L15.25 13.5" stroke="currentColor" stroke-width="1.5" stroke-linecap="square" stroke-linejoin="round"/><path opacity="0.2" d="M15.25 11.25L15.25 11C15.25 10.1716 14.5784 9.5 13.75 9.5V9.5" stroke="currentColor" stroke-width="1.5" stroke-linecap="square" stroke-linejoin="round"/><path d="M13 11.25H11.75C11.4739 11.25 11.25 11.4739 11.25 11.75V13C11.25 13.2761 11.4739 13.5 11.75 13.5H12.375H13C13.2761 13.5 13.5 13.2761 13.5 13V12.375V11.75C13.5 11.4739 13.2761 11.25 13 11.25Z" fill="currentColor"/></g><defs><clipPath id="clip0_9687_4527707"><rect width="16" height="16" fill="white"/></clipPath></defs>
    </symbol>
  </defs>
</svg>