
<svg width="16" height="16" viewBox="0 0 16 16" fill="none" xmlns="http://www.w3.org/2000/svg">
  <defs>
    <symbol id='qr-code-scan' viewBox="0 0 16 16">
      <path d="M2.5 12.75C2.5 13.1642 2.83579 13.5 3.25 13.5H5V15H3.25C2.00736 15 1 13.9926 1 12.75V11H2.5V12.75ZM15 12.75C15 13.9926 13.9926 15 12.75 15H11V13.5H12.75C13.1642 13.5 13.5 13.1642 13.5 12.75V11H15V12.75ZM9 11.5C9 11.7761 8.77614 12 8.5 12H4.5L4.39941 11.9902C4.17145 11.9437 4 11.7417 4 11.5V10H5.5V10.5H7.5V10H9V11.5ZM11.5 10C11.7761 10 12 10.2239 12 10.5V11.5C12 11.7761 11.7761 12 11.5 12H10.5C10.2239 12 10 11.7761 10 11.5V10.5C10 10.2239 10.2239 10 10.5 10H11.5ZM11.5 4C11.7761 4 12 4.22386 12 4.5V8.5H4V7.5C4 7.22386 4.22386 7 4.5 7H7V4.5C7 4.22386 7.22386 4 7.5 4H11.5ZM8.5 7C8.77614 7 9 7.22386 9 7.5H10.5V5.5H8.5V7ZM5.5 4C5.77614 4 6 4.22386 6 4.5V5.5C6 5.77614 5.77614 6 5.5 6H4.5C4.22386 6 4 5.77614 4 5.5V4.5C4 4.22386 4.22386 4 4.5 4H5.5ZM5 2.5H3.25C2.83579 2.5 2.5 2.83579 2.5 3.25V5H1V3.25C1 2.00736 2.00736 1 3.25 1H5V2.5ZM12.9805 1.01172C14.1148 1.12714 15 2.08517 15 3.25V5H13.5V3.25C13.5 2.86183 13.2051 2.54253 12.8271 2.50391L12.75 2.5H11V1H12.75L12.9805 1.01172Z" fill="currentColor"/><path d="M0 7.75H16" stroke="currentColor" stroke-width="1.5"/>
    </symbol>
  </defs>
</svg>