
<svg width="16" height="16" viewBox="0 0 16 16" fill="none" xmlns="http://www.w3.org/2000/svg">
  <defs>
    <symbol id='refresh-clockwise' viewBox="0 0 16 16">
      <path fill-rule="evenodd" clip-rule="evenodd" d="M8.00002 1C5.33749 1 3.02334 2.48677 1.84047 4.67183L1.48342 5.33138L2.80253 6.04548L3.15958 5.38592C4.09084 3.66566 5.90986 2.5 8.00002 2.5C10.4897 2.5 12.5941 4.15488 13.2713 6.42462H11.8243H11.0743V7.92462H11.8243H15.2489C15.6631 7.92462 15.9989 7.58883 15.9989 7.17462V3.75V3H14.4989V3.75V5.39468C13.4653 2.81882 10.9456 1 8.00002 1ZM1.50122 10.6055V12.25V13H0.0012207V12.25V8.82538C0.0012207 8.41117 0.337007 8.07538 0.751221 8.07538H4.17584H4.92584V9.57538H4.17584H2.72876C3.40596 11.8451 5.51032 13.5 8.00002 13.5C10.0799 13.5 11.8912 12.3458 12.8266 10.6395L13.1871 9.98181L14.5025 10.7029L14.142 11.3605C12.9539 13.5279 10.6494 15 8.00002 15C5.05453 15 2.53485 13.1813 1.50122 10.6055Z" fill="currentColor"/>
    </symbol>
  </defs>
</svg>