
<svg width="16" height="16" viewBox="0 0 16 16" fill="none" xmlns="http://www.w3.org/2000/svg">
  <defs>
    <symbol id='rewind-10-seconds' viewBox="0 0 16 16">
      <g clip-path="url(#clip0_53_191767)"><path fill-rule="evenodd" clip-rule="evenodd" d="M16 7.94507C16 5.05051 14.2436 2.567 11.7382 1.5011L14.25 1.5011H15V0.00109863H14.25H10.0754C9.5231 0.00109863 9.07539 0.448814 9.07539 1.0011V5.17572V5.92572H10.5754V5.17572V2.67382C12.8451 3.35103 14.5 5.45527 14.5 7.94507C14.5 10.9826 12.0376 13.4451 9.00001 13.4451H8.25001V14.9451H9.00001C12.866 14.9451 16 11.8111 16 7.94507ZM5.37 5.62744C4.47392 5.62744 3.7475 6.35386 3.7475 7.24994V9.37994C3.7475 10.276 4.47392 11.0024 5.37 11.0024C6.26609 11.0024 6.9925 10.276 6.9925 9.37994V7.24994C6.9925 6.35386 6.26609 5.62744 5.37 5.62744ZM4.9925 7.24994C4.9925 7.04145 5.16152 6.87244 5.37 6.87244C5.57849 6.87244 5.7475 7.04145 5.7475 7.24994V9.37994C5.7475 9.58843 5.57849 9.75744 5.37 9.75744C5.16152 9.75744 4.9925 9.58843 4.9925 9.37994V7.24994ZM2.2425 6.37292C2.2425 6.18124 2.15419 6.00024 2.0031 5.88227C1.85201 5.7643 1.65499 5.72252 1.46903 5.76901L0.469026 6.01901L-0.134888 6.16999L0.167069 7.37782L0.770983 7.22684L0.997504 7.17021V9.75043H0.620004H-0.00249553V10.9954H0.620004H1.62H2.62H3.2425V9.75043H2.62H2.2425V6.37292Z" fill="currentColor"/></g><defs><clipPath id="clip0_53_191767"><rect width="16" height="16" fill="white"/></clipPath></defs>
    </symbol>
  </defs>
</svg>