
<svg width="16" height="16" viewBox="0 0 16 16" fill="none" xmlns="http://www.w3.org/2000/svg">
  <defs>
    <symbol id='settings-gear' viewBox="0 0 16 16">
      <g clip-path="url(#clip0_53_406750)"><path fill-rule="evenodd" clip-rule="evenodd" d="M7.70061 1.73618L7.74489 1.5H8.25511L8.2994 1.73618C8.44062 2.48936 8.98359 3.04807 9.63286 3.27226C9.82298 3.33791 10.008 3.41476 10.1871 3.50207C10.8051 3.80328 11.5845 3.7922 12.2172 3.35933L12.4158 3.22342L12.7766 3.5842L12.6407 3.78284C12.2078 4.41549 12.1967 5.19496 12.4979 5.81292C12.5852 5.99203 12.6621 6.17703 12.7277 6.36714C12.9519 7.01642 13.5106 7.55938 14.2638 7.7006L14.5 7.74489V8.25511L14.2638 8.2994C13.5106 8.44062 12.9519 8.98359 12.7277 9.63286C12.6621 9.82298 12.5852 10.008 12.4979 10.1871C12.1967 10.805 12.2078 11.5845 12.6407 12.2172L12.7766 12.4158L12.4158 12.7766L12.2172 12.6407C11.5845 12.2078 10.805 12.1967 10.1871 12.4979C10.008 12.5852 9.82297 12.6621 9.63286 12.7277C8.98359 12.9519 8.44062 13.5106 8.2994 14.2638L8.25511 14.5H7.74489L7.70061 14.2638C7.55939 13.5106 7.01642 12.9519 6.36715 12.7277C6.17703 12.6621 5.99203 12.5852 5.81292 12.4979C5.19497 12.1967 4.4155 12.2078 3.78284 12.6407L3.58421 12.7766L3.22343 12.4158L3.35933 12.2172C3.7922 11.5845 3.80328 10.8051 3.50207 10.1871C3.41477 10.008 3.33791 9.82298 3.27227 9.63285C3.04807 8.98358 2.48936 8.44061 1.73618 8.29939L1.50002 8.25511V7.74489L1.73618 7.70061C2.48936 7.55939 3.04807 7.01642 3.27227 6.36715C3.33791 6.17703 3.41476 5.99203 3.50207 5.81291C3.80327 5.19496 3.79219 4.41549 3.35933 3.78283L3.22342 3.5842L3.5842 3.22342L3.78283 3.35932C4.41549 3.79219 5.19496 3.80327 5.81291 3.50207C5.99203 3.41476 6.17703 3.33791 6.36715 3.27226C7.01642 3.04807 7.55939 2.48936 7.70061 1.73618ZM6.5 0H9.5L9.7737 1.45974C9.80839 1.64472 9.94455 1.79299 10.1224 1.85441C10.3702 1.93996 10.6112 2.04007 10.8443 2.15371C11.0136 2.2362 11.2148 2.22768 11.3702 2.12137L12.5962 1.28249L14.7175 3.40381L13.8786 4.62987C13.7723 4.78525 13.7638 4.98647 13.8463 5.1557C13.9599 5.38885 14.06 5.62981 14.1456 5.87756C14.207 6.05545 14.3553 6.19161 14.5403 6.2263L16 6.5V9.5L14.5403 9.7737C14.3553 9.80839 14.207 9.94455 14.1456 10.1224C14.06 10.3702 13.9599 10.6112 13.8463 10.8443C13.7638 11.0135 13.7723 11.2148 13.8786 11.3701L14.7175 12.5962L12.5962 14.7175L11.3701 13.8786C11.2148 13.7723 11.0135 13.7638 10.8443 13.8463C10.6112 13.9599 10.3702 14.06 10.1224 14.1456C9.94455 14.207 9.80839 14.3553 9.7737 14.5403L9.5 16H6.5L6.2263 14.5403C6.19162 14.3553 6.05545 14.207 5.87756 14.1456C5.62981 14.06 5.38885 13.9599 5.1557 13.8463C4.98647 13.7638 4.78525 13.7723 4.62987 13.8786L3.40382 14.7175L1.2825 12.5962L2.12137 11.3702C2.22768 11.2148 2.23621 11.0136 2.15372 10.8443C2.04007 10.6112 1.93996 10.3702 1.85441 10.1224C1.79299 9.94455 1.64472 9.80838 1.45975 9.7737L1.52588e-05 9.5V6.5L1.45975 6.2263C1.64472 6.19162 1.79299 6.05545 1.85441 5.87756C1.93996 5.62981 2.04007 5.38885 2.15371 5.15569C2.2362 4.98646 2.22768 4.78524 2.12136 4.62986L1.28249 3.40381L3.40381 1.28249L4.62986 2.12136C4.78524 2.22767 4.98646 2.2362 5.15569 2.15371C5.38885 2.04007 5.62981 1.93996 5.87756 1.85441C6.05545 1.79299 6.19162 1.64472 6.2263 1.45975L6.5 0ZM9.5 8C9.5 8.82843 8.82843 9.5 8 9.5C7.17157 9.5 6.5 8.82843 6.5 8C6.5 7.17157 7.17157 6.5 8 6.5C8.82843 6.5 9.5 7.17157 9.5 8ZM11 8C11 9.65685 9.65685 11 8 11C6.34315 11 5 9.65685 5 8C5 6.34315 6.34315 5 8 5C9.65685 5 11 6.34315 11 8Z" fill="currentColor"/></g><defs><clipPath id="clip0_53_406750"><rect width="16" height="16" fill="white"/></clipPath></defs>
    </symbol>
  </defs>
</svg>