
<svg width="16" height="16" viewBox="0 0 16 16" fill="none" xmlns="http://www.w3.org/2000/svg">
  <defs>
    <symbol id='settings-sliders' viewBox="0 0 16 16">
      <g clip-path="url(#clip0_53_405752)"><path fill-rule="evenodd" clip-rule="evenodd" d="M10.75 5.25C11.5784 5.25 12.25 4.57843 12.25 3.75C12.25 2.92157 11.5784 2.25 10.75 2.25C9.92157 2.25 9.25 2.92157 9.25 3.75C9.25 4.57843 9.92157 5.25 10.75 5.25ZM10.75 6.75C12.1479 6.75 13.3225 5.79392 13.6555 4.5H15.25H16V3H15.25H13.6555C13.3225 1.70608 12.1479 0.75 10.75 0.75C9.35212 0.75 8.17754 1.70608 7.84451 3H0.75H0V4.5H0.75H7.84451C8.17754 5.79392 9.35212 6.75 10.75 6.75ZM15.25 13H16V11.5H15.25L8.15549 11.5C7.82245 10.2061 6.64788 9.25 5.25 9.25C3.85212 9.25 2.67755 10.2061 2.34451 11.5H0.75H0V13H0.75H2.34451C2.67755 14.2939 3.85212 15.25 5.25 15.25C6.64788 15.25 7.82246 14.2939 8.15549 13L15.25 13ZM3.75 12.25C3.75 11.4216 4.42157 10.75 5.25 10.75C6.07843 10.75 6.75 11.4216 6.75 12.25C6.75 13.0784 6.07843 13.75 5.25 13.75C4.42157 13.75 3.75 13.0784 3.75 12.25Z" fill="currentColor"/></g><defs><clipPath id="clip0_53_405752"><rect width="16" height="16" fill="white"/></clipPath></defs>
    </symbol>
  </defs>
</svg>