
<svg width="16" height="16" viewBox="0 0 16 16" fill="none" xmlns="http://www.w3.org/2000/svg">
  <defs>
    <symbol id='settings-gear-fill' viewBox="0 0 16 16">
      <g clip-path="url(#clip0_344_1357751)"><path fill-rule="evenodd" clip-rule="evenodd" d="M9.5 0H6.5L6.2263 1.45975C6.19162 1.64472 6.05545 1.79299 5.87756 1.85441C5.62981 1.93996 5.38885 2.04007 5.15569 2.15371C4.98646 2.2362 4.78524 2.22767 4.62986 2.12136L3.40381 1.28249L1.28249 3.40381L2.12136 4.62986C2.22768 4.78524 2.2362 4.98646 2.15371 5.15569C2.04007 5.38885 1.93996 5.62981 1.85441 5.87756C1.79299 6.05545 1.64472 6.19162 1.45975 6.2263L1.52588e-05 6.5V9.5L1.45975 9.7737C1.64472 9.80838 1.79299 9.94455 1.85441 10.1224C1.93996 10.3702 2.04007 10.6112 2.15372 10.8443C2.23621 11.0136 2.22768 11.2148 2.12137 11.3702L1.2825 12.5962L3.40382 14.7175L4.62987 13.8786C4.78525 13.7723 4.98647 13.7638 5.1557 13.8463C5.38885 13.9599 5.62981 14.06 5.87756 14.1456C6.05545 14.207 6.19162 14.3553 6.2263 14.5403L6.5 16H9.5L9.7737 14.5403C9.80839 14.3553 9.94455 14.207 10.1224 14.1456C10.3702 14.06 10.6112 13.9599 10.8443 13.8463C11.0135 13.7638 11.2148 13.7723 11.3701 13.8786L12.5962 14.7175L14.7175 12.5962L13.8786 11.3701C13.7723 11.2148 13.7638 11.0135 13.8463 10.8443C13.9599 10.6112 14.06 10.3702 14.1456 10.1224C14.207 9.94455 14.3553 9.80839 14.5403 9.7737L16 9.5V6.5L14.5403 6.2263C14.3553 6.19161 14.207 6.05545 14.1456 5.87756C14.06 5.62981 13.9599 5.38885 13.8463 5.1557C13.7638 4.98647 13.7723 4.78525 13.8786 4.62987L14.7175 3.40381L12.5962 1.28249L11.3702 2.12137C11.2148 2.22768 11.0136 2.2362 10.8443 2.15371C10.6112 2.04007 10.3702 1.93996 10.1224 1.85441C9.94455 1.79299 9.80839 1.64472 9.7737 1.45974L9.5 0ZM8 11C9.65685 11 11 9.65685 11 8C11 6.34315 9.65685 5 8 5C6.34315 5 5 6.34315 5 8C5 9.65685 6.34315 11 8 11Z" fill="currentColor"/></g><defs><clipPath id="clip0_344_1357751"><rect width="16" height="16" fill="white"/></clipPath></defs>
    </symbol>
  </defs>
</svg>