
<svg width="16" height="16" viewBox="0 0 16 16" fill="none" xmlns="http://www.w3.org/2000/svg">
  <defs>
    <symbol id='share-alt-3' viewBox="0 0 16 16">
      <g clip-path="url(#clip0_5673_2887841)"><path fill-rule="evenodd" clip-rule="evenodd" d="M7.29289 0.396409C7.68342 0.00588455 8.31658 0.00588455 8.70711 0.396409L11.2803 2.96963L11.8107 3.49996L10.75 4.56062L10.2197 4.03029L8.75 2.56062V9.24996V9.99996H7.25V9.24996V2.56062L5.78033 4.03029L5.25 4.56062L4.18934 3.49996L4.71967 2.96963L7.29289 0.396409ZM13.5 8.75V13.75C13.5 14.1642 13.1642 14.5 12.75 14.5H3.25C2.83579 14.5 2.5 14.1642 2.5 13.75L2.5 8.75C2.5 8.33579 2.83579 8 3.25 8L4.25 8H5V6.5H4.25L3.25 6.5C2.00736 6.5 1 7.50736 1 8.75V13.75C1 14.9926 2.00736 16 3.25 16H12.75C13.9926 16 15 14.9926 15 13.75V8.75C15 7.50736 13.9926 6.5 12.75 6.5H11.75H11V8H11.75H12.75C13.1642 8 13.5 8.33579 13.5 8.75Z" fill="currentColor"/></g><defs><clipPath id="clip0_5673_2887841"><rect width="16" height="16" rx="0.25" fill="white"/></clipPath></defs>
    </symbol>
  </defs>
</svg>