
<svg width="16" height="16" viewBox="0 0 16 16" fill="none" xmlns="http://www.w3.org/2000/svg">
  <defs>
    <symbol id='share-alt-1' viewBox="0 0 16 16">
      <path fill-rule="evenodd" clip-rule="evenodd" d="M13.5 11.25V12.75C13.5 13.1642 13.1642 13.5 12.75 13.5H3.25C2.83579 13.5 2.5 13.1642 2.5 12.75L2.5 3.25C2.5 2.83579 2.83579 2.5 3.25 2.5H5.75H6.5V1H5.75H3.25C2.00736 1 1 2.00736 1 3.25V12.75C1 13.9926 2.00736 15 3.25 15H12.75C13.9926 15 15 13.9926 15 12.75V11.25V10.5H13.5V11.25ZM11.25 1.18935L11.7803 1.71968L14.6553 4.59468C14.9482 4.88757 14.9482 5.36245 14.6553 5.65534L11.7803 8.53034L11.25 9.06067L10.1893 8.00001L10.7197 7.46968L12.4393 5.75001H9.75C8.50736 5.75001 7.5 6.75737 7.5 8.00001V10H6V8.00001C6 5.92894 7.67893 4.25001 9.75 4.25001H12.1893L10.7197 2.78034L10.1893 2.25001L11.25 1.18935Z" fill="currentColor"/>
    </symbol>
  </defs>
</svg>