
<svg width="16" height="16" viewBox="0 0 16 16" fill="none" xmlns="http://www.w3.org/2000/svg">
  <defs>
    <symbol id='share' viewBox="0 0 16 16">
      <path fill-rule="evenodd" clip-rule="evenodd" d="M7.29289 1.39647C7.68342 1.00595 8.31658 1.00595 8.70711 1.39647L11.7803 4.46969L12.3107 5.00002L11.25 6.06068L10.7197 5.53035L8.75 3.56068V10.25V11H7.25V10.25V3.56068L5.28033 5.53035L4.75 6.06068L3.68934 5.00002L4.21967 4.46969L7.29289 1.39647ZM13.5 9.25002V13.5H2.5V9.25002V8.50002H1V9.25002V14C1 14.5523 1.44771 15 2 15H14C14.5523 15 15 14.5523 15 14V9.25002V8.50002H13.5V9.25002Z" fill="currentColor"/>
    </symbol>
  </defs>
</svg>