
<svg width="16" height="16" viewBox="0 0 16 16" fill="none" xmlns="http://www.w3.org/2000/svg">
  <defs>
    <symbol id='shield-globe' viewBox="0 0 16 16">
      <g clip-path="url(#clip0_113_179731)"><path fill-rule="evenodd" clip-rule="evenodd" d="M1.5 4.057V9.52717C1.5 10.9221 2.27429 12.2018 3.50998 12.849L4.84801 13.5499L5.51238 13.8979L4.81637 15.2267L4.15199 14.8787L2.81396 14.1778C1.08401 13.2716 0 11.4801 0 9.52717V3.5V2.95943L0.512829 2.78849C0.894582 2.66124 1.33687 2.54586 1.76932 2.43305L1.7694 2.43303C1.90732 2.39706 2.04424 2.36134 2.17787 2.32558C2.75351 2.17155 3.30375 2.00853 3.78576 1.79681C4.26955 1.58432 4.6357 1.34329 4.87802 1.06132C5.10537 0.796772 5.25 0.467199 5.25 0H6.75C6.75 0.467199 6.89463 0.796772 7.12198 1.06132C7.3643 1.34329 7.73045 1.58432 8.21424 1.79681C8.69625 2.00853 9.24649 2.17155 9.82213 2.32558C9.95574 2.36133 10.0926 2.39704 10.2305 2.43301L10.2307 2.43305C10.6631 2.54586 11.1054 2.66124 11.4872 2.78849L12 2.95943V3.5V4.25V5H10.5V4.25V4.057C10.3094 4.00405 10.1074 3.9513 9.89317 3.89539C9.74604 3.85699 9.59319 3.81709 9.4344 3.7746C8.84757 3.61758 8.20404 3.43066 7.61101 3.17017C7.02666 2.91351 6.44336 2.56529 6 2.05704C5.55664 2.56529 4.97334 2.91351 4.38899 3.17017C3.79596 3.43066 3.15243 3.61758 2.5656 3.7746C2.40682 3.81709 2.25396 3.85699 2.10684 3.89539L2.10681 3.8954C1.8926 3.95131 1.69054 4.00405 1.5 4.057ZM13.2307 12C13.2 12.815 13.0938 13.6278 12.9124 14.4279C13.8564 13.9717 14.5462 13.0724 14.7118 12H13.2307ZM11.8047 14.7359C11.7044 14.7452 11.6028 14.75 11.5 14.75C11.3972 14.75 11.2956 14.7452 11.1953 14.7359C10.9494 13.839 10.8077 12.9211 10.77 12H12.23C12.1923 12.9211 12.0506 13.839 11.8047 14.7359ZM13.2307 11C13.2 10.185 13.0938 9.37224 12.9124 8.57213C13.8564 9.02834 14.5462 9.92764 14.7118 11H13.2307ZM12.23 11C12.1923 10.0789 12.0506 9.16097 11.8047 8.2641C11.7044 8.25477 11.6028 8.25 11.5 8.25C11.3972 8.25 11.2956 8.25477 11.1953 8.2641C10.9494 9.16097 10.8077 10.0789 10.77 11H12.23ZM9.76925 11C9.80005 10.185 9.90616 9.37224 10.0876 8.57213C9.1436 9.02834 8.45381 9.92764 8.28822 11H9.76925ZM10.0876 14.4279C9.90616 13.6278 9.80005 12.815 9.76925 12H8.28822C8.45381 13.0724 9.1436 13.9717 10.0876 14.4279ZM11.5 16C13.9853 16 16 13.9853 16 11.5C16 9.01472 13.9853 7 11.5 7C9.01472 7 7 9.01472 7 11.5C7 13.9853 9.01472 16 11.5 16Z" fill="currentColor"/></g><defs><clipPath id="clip0_113_179731"><rect width="16" height="16" fill="white"/></clipPath></defs>
    </symbol>
  </defs>
</svg>