
<svg width="16" height="16" viewBox="0 0 16 16" fill="none" xmlns="http://www.w3.org/2000/svg">
  <defs>
    <symbol id='shield-small' viewBox="0 0 16 16">
      <path fill-rule="evenodd" clip-rule="evenodd" d="M4.5 5.07063V7.80188C4.5 9.07392 5.14484 10.2592 6.21281 10.9503L8 12.1067L9.78719 10.9503C10.8552 10.2592 11.5 9.07392 11.5 7.80188V5.07063C11.4982 5.07013 11.4964 5.06963 11.4945 5.06914C10.7554 4.86766 9.88293 4.62982 9.16415 4.31036C8.77685 4.13823 8.3513 3.90642 8 3.59018C7.6487 3.90642 7.22315 4.13823 6.83585 4.31036C6.11707 4.62982 5.24455 4.86766 4.50546 5.06914C4.50364 5.06963 4.50182 5.07013 4.5 5.07063ZM7.25 2C7.25 2.25188 7.05188 2.57287 6.22665 2.93964C5.62343 3.20774 4.90514 3.40412 4.18023 3.6023C3.9678 3.66038 3.7548 3.71862 3.54396 3.77886L3 3.93427V4.5V7.80188C3 9.58273 3.90278 11.2422 5.39793 12.2096L7.59256 13.6297L8 13.8933L8.40744 13.6297L10.6021 12.2096C12.0972 11.2422 13 9.58273 13 7.80188V4.5V3.93427L12.456 3.77886C12.2452 3.71862 12.0322 3.66038 11.8198 3.6023C11.0949 3.40412 10.3766 3.20774 9.77335 2.93964C8.94812 2.57287 8.75 2.25188 8.75 2H7.25Z" fill="currentColor"/>
    </symbol>
  </defs>
</svg>