
<svg width="16" height="16" viewBox="0 0 16 16" fill="none" xmlns="http://www.w3.org/2000/svg">
  <defs>
    <symbol id='skip-back' viewBox="0 0 16 16">
      <path fill-rule="evenodd" clip-rule="evenodd" d="M5.14697 7.11096L5.11553 7.13097L4.53256 7.50195L4.08144 7.78903C3.92706 7.88727 3.92706 8.11262 4.08144 8.21086L4.53256 8.49794L5.11553 8.86892L5.14697 8.88893L13.25 14.0454L13.3308 14.0968L14.0343 14.5445L14.3658 14.7554C14.5322 14.8614 14.75 14.7418 14.75 14.5445V14.1517V13.3178V13.222L14.75 2.77791V2.68214V1.84822V1.45536C14.75 1.25809 14.5322 1.13854 14.3658 1.24445L14.0343 1.45536L13.3308 1.90307L13.25 1.95449L5.14697 7.11096ZM13.25 3.73245L6.54394 7.99994L13.25 12.2674L13.25 3.73245ZM0.75 1.99994V1.24994H2.25V1.99994V13.9999V14.7499H0.75V13.9999V1.99994Z" fill="currentColor"/>
    </symbol>
  </defs>
</svg>