
<svg width="16" height="16" viewBox="0 0 16 16" fill="none" xmlns="http://www.w3.org/2000/svg">
  <defs>
    <symbol id='skip-forward' viewBox="0 0 16 16">
      <path fill-rule="evenodd" clip-rule="evenodd" d="M10.603 7.11096L10.6345 7.13097L11.2174 7.50195L11.6686 7.78903C11.8229 7.88727 11.8229 8.11262 11.6686 8.21086L11.2174 8.49794L10.6345 8.86892L10.603 8.88893L2.5 14.0454L2.4192 14.0968L1.71566 14.5445L1.38422 14.7554C1.21779 14.8614 1 14.7418 1 14.5445V14.1517V13.3178V13.222V2.77791V2.68214V1.84822V1.45536C1 1.25809 1.21779 1.13854 1.38422 1.24445L1.71566 1.45536L2.4192 1.90307L2.5 1.95449L10.603 7.11096ZM2.5 3.73245L9.20606 7.99994L2.5 12.2674L2.5 3.73245ZM15 1.99994V1.24994H13.5V1.99994V13.9999V14.7499H15V13.9999V1.99994Z" fill="currentColor"/>
    </symbol>
  </defs>
</svg>