
<svg width="16" height="16" viewBox="0 0 16 16" fill="none" xmlns="http://www.w3.org/2000/svg">
  <defs>
    <symbol id='speaker-off' viewBox="0 0 16 16">
      <g clip-path="url(#clip0_53_221770)"><path fill-rule="evenodd" clip-rule="evenodd" d="M14 1.24995V0.0550537L12.9239 0.574532L5.82844 3.99995H3.25001H2.67706L1.33542 3.32913L0.664595 2.99372L-0.00622559 4.33536L0.664595 4.67077L14.6646 11.6708L15.3354 12.0062L16.0062 10.6645L15.3354 10.3291L14 9.66142V9.49995V1.24995ZM12.5 8.91142V2.44484L6.37757 5.4005C6.24198 5.46595 6.09337 5.49995 5.94282 5.49995H5.67706L12.5 8.91142ZM3.50001 7.99995V7.24995H2.00001V7.99995V10.9999C2.00001 11.5522 2.44772 11.9999 3.00001 11.9999H5.82844L12.9239 15.4254L14 15.9448V14.7499V13.4999V12.7499H12.5V13.4999V13.5551L6.37757 10.5994C6.24198 10.5339 6.09337 10.4999 5.94282 10.4999H3.50001V7.99995Z" fill="currentColor"/></g><defs><clipPath id="clip0_53_221770"><rect width="16" height="16" fill="white"/></clipPath></defs>
    </symbol>
  </defs>
</svg>