
<svg width="16" height="16" viewBox="0 0 16 16" fill="none" xmlns="http://www.w3.org/2000/svg">
  <defs>
    <symbol id='star' viewBox="0 0 16 16">
      <g clip-path="url(#clip0_53_175694)"><path fill-rule="evenodd" clip-rule="evenodd" d="M7.99998 0.433594L8.65842 1.64093L10.5908 5.18412L14.5577 5.92698L15.9094 6.18011L14.9646 7.17942L12.192 10.1121L12.7113 14.1144L12.8883 15.4782L11.6459 14.8884L7.99998 13.1577L4.35405 14.8884L3.1117 15.4782L3.28866 14.1144L3.80799 10.1121L1.03535 7.17942L0.0905762 6.18011L1.4423 5.92698L5.40919 5.18412L7.34153 1.64093L7.99998 0.433594ZM7.99998 3.56646L6.55562 6.21487L6.38516 6.52743L6.03522 6.59296L3.07011 7.14822L5.14256 9.34029L5.38715 9.59899L5.34134 9.95205L4.95315 12.9436L7.67835 11.65L7.99998 11.4973L8.3216 11.65L11.0468 12.9436L10.6586 9.95205L10.6128 9.59899L10.8574 9.34029L12.9298 7.14822L9.96473 6.59296L9.61479 6.52743L9.44433 6.21487L7.99998 3.56646Z" fill="currentColor"/></g><defs><clipPath id="clip0_53_175694"><rect width="16" height="16" fill="white"/></clipPath></defs>
    </symbol>
  </defs>
</svg>