
<svg width="16" height="16" viewBox="0 0 16 16" fill="none" xmlns="http://www.w3.org/2000/svg">
  <defs>
    <symbol id='stop-fill-small' viewBox="0 0 16 16">
      <path fill-rule="evenodd" clip-rule="evenodd" d="M5.22183 2.29289C5.40936 2.10536 5.66372 2 5.92893 2H10.0711C10.3363 2 10.5906 2.10536 10.7782 2.29289L13.7071 5.22183C13.8946 5.40936 14 5.66372 14 5.92893V10.0711C14 10.3363 13.8946 10.5906 13.7071 10.7782L10.7782 13.7071C10.5906 13.8946 10.3363 14 10.0711 14H5.92893C5.66372 14 5.40936 13.8946 5.22183 13.7071L2.29289 10.7782C2.10536 10.5906 2 10.3363 2 10.0711V5.92893C2 5.66372 2.10536 5.40936 2.29289 5.22183L5.22183 2.29289ZM8.75 4.5V5.25V8V8.75H7.25V8V5.25V4.5L8.75 4.5ZM8 12C8.55228 12 9 11.5523 9 11C9 10.4477 8.55228 10 8 10C7.44771 10 7 10.4477 7 11C7 11.5523 7.44771 12 8 12Z" fill="currentColor"/>
    </symbol>
  </defs>
</svg>