
<svg width="16" height="16" viewBox="0 0 16 16" fill="none" xmlns="http://www.w3.org/2000/svg">
  <defs>
    <symbol id='stroke-weight' viewBox="0 0 16 16">
      <path fill-rule="evenodd" clip-rule="evenodd" d="M1 1.75C1 1.33579 1.33579 1 1.75 1C2.16421 1 2.5 1.33579 2.5 1.75V14.25C2.5 14.6642 2.16421 15 1.75 15C1.33579 15 1 14.6642 1 14.25V1.75ZM9.5 2C9.5 1.44772 9.94772 1 10.5 1H14C14.5523 1 15 1.44772 15 2V14C15 14.5523 14.5523 15 14 15H10.5C9.94772 15 9.5 14.5523 9.5 14V2ZM5.5 1C4.94772 1 4.5 1.44772 4.5 2V14C4.5 14.5523 4.94772 15 5.5 15H6.5C7.05228 15 7.5 14.5523 7.5 14V2C7.5 1.44772 7.05228 1 6.5 1H5.5Z" fill="currentColor"/>
    </symbol>
  </defs>
</svg>