
<svg width="16" height="16" viewBox="0 0 16 16" fill="none" xmlns="http://www.w3.org/2000/svg">
  <defs>
    <symbol id='sun-small' viewBox="0 0 16 16">
      <path fill-rule="evenodd" clip-rule="evenodd" d="M8.74989 2V1.25H7.24989V2V2.25V3H8.74989V2.25V2ZM7.99989 10C9.10446 10 9.99989 9.10457 9.99989 8C9.99989 6.89543 9.10446 6 7.99989 6C6.89532 6 5.99989 6.89543 5.99989 8C5.99989 9.10457 6.89532 10 7.99989 10ZM7.99989 11.5C9.93289 11.5 11.4999 9.933 11.4999 8C11.4999 6.067 9.93289 4.5 7.99989 4.5C6.0669 4.5 4.49989 6.067 4.49989 8C4.49989 9.933 6.0669 11.5 7.99989 11.5ZM8.74989 13V13.75V14V14.75H7.24989V14V13.75V13H8.74989ZM12.9999 7.25H13.7499H13.9999H14.7499V8.75H13.9999H13.7499H12.9999V7.25ZM1.99989 7.25H1.24989V8.75H1.99989H2.24989H2.99989V7.25H2.24989H1.99989ZM11.0051 3.93414L11.5354 3.40381L11.7122 3.22703L12.2425 2.6967L13.3032 3.75736L12.7729 4.28769L12.5961 4.46447L12.0658 4.9948L11.0051 3.93414ZM3.22692 11.7123L2.69659 12.2426L3.75725 13.3033L4.28758 12.773L4.46436 12.5962L4.99469 12.0659L3.93403 11.0052L3.4037 11.5355L3.22692 11.7123ZM3.93403 4.9948L3.4037 4.46447L3.22692 4.28769L2.69659 3.75736L3.75725 2.6967L4.28758 3.22703L4.46436 3.40381L4.99469 3.93414L3.93403 4.9948ZM11.7122 12.773L12.2425 13.3033L13.3032 12.2426L12.7729 11.7123L12.5961 11.5355L12.0658 11.0052L11.0051 12.0659L11.5354 12.5962L11.7122 12.773Z" fill="currentColor"/>
    </symbol>
  </defs>
</svg>