
<svg width="16" height="16" viewBox="0 0 16 16" fill="none" xmlns="http://www.w3.org/2000/svg">
  <defs>
    <symbol id='sun' viewBox="0 0 16 16">
      <g clip-path="url(#clip0_53_177691)"><path fill-rule="evenodd" clip-rule="evenodd" d="M8.75 0.75V0H7.25V0.75V1.25V2H8.75V1.25V0.75ZM3.25977 4.32066L2.72944 3.79033L2.37588 3.43678L1.84555 2.90645L2.90621 1.84579L3.43654 2.37612L3.7901 2.72967L4.32043 3.26L3.25977 4.32066ZM11.6793 3.26001L12.2097 2.72968L12.5632 2.37613L13.0936 1.8458L14.1542 2.90646L13.6239 3.43679L13.2703 3.79034L12.74 4.32067L11.6793 3.26001ZM8 11.25C9.79493 11.25 11.25 9.79493 11.25 8C11.25 6.20507 9.79493 4.75 8 4.75C6.20507 4.75 4.75 6.20507 4.75 8C4.75 9.79493 6.20507 11.25 8 11.25ZM8 12.75C10.6234 12.75 12.75 10.6234 12.75 8C12.75 5.37665 10.6234 3.25 8 3.25C5.37665 3.25 3.25 5.37665 3.25 8C3.25 10.6234 5.37665 12.75 8 12.75ZM14 7.25H14.75H15.25H16V8.75H15.25H14.75H14V7.25ZM0.75 7.25H0V8.75H0.75H1.25H2V7.25H1.25H0.75ZM2.37006 12.5697L1.83973 13.1L2.90039 14.1607L3.43072 13.6303L3.78427 13.2768L4.3146 12.7464L3.25394 11.6858L2.72361 12.2161L2.37006 12.5697ZM12.5693 13.6303L13.0996 14.1607L14.1603 13.1L13.6299 12.5697L13.2764 12.2161L12.7461 11.6858L11.6854 12.7464L12.2157 13.2768L12.5693 13.6303ZM8.75 14V14.75V15.25V16H7.25V15.25V14.75V14H8.75Z" fill="currentColor"/></g><defs><clipPath id="clip0_53_177691"><rect width="16" height="16" fill="white"/></clipPath></defs>
    </symbol>
  </defs>
</svg>