
<svg width="16" height="16" viewBox="0 0 16 16" fill="none" xmlns="http://www.w3.org/2000/svg">
  <defs>
    <symbol id='support-float' viewBox="0 0 16 16">
      <g clip-path="url(#clip0_9803_4530706)"><path d="M8 0C12.4183 0 16 3.58172 16 8C16 12.4183 12.4183 16 8 16C3.58172 16 0 12.4183 0 8C0 3.58172 3.58172 0 8 0ZM8 1.5C4.41015 1.5 1.5 4.41015 1.5 8C1.5 11.5899 4.41015 14.5 8 14.5C11.5899 14.5 14.5 11.5899 14.5 8C14.5 4.41015 11.5899 1.5 8 1.5ZM8 4.5C9.933 4.5 11.5 6.067 11.5 8C11.5 9.933 9.933 11.5 8 11.5C6.067 11.5 4.5 9.933 4.5 8C4.5 6.067 6.067 4.5 8 4.5ZM8 6C6.89543 6 6 6.89543 6 8C6 9.10457 6.89543 10 8 10C9.10457 10 10 9.10457 10 8C10 6.89543 9.10457 6 8 6Z" fill="currentColor"/><path d="M7.29785 9.87012C7.51661 9.95229 7.75253 10 8 10V16C7.01115 16 6.0647 15.8193 5.19043 15.4912L7.29785 9.87012ZM10.8086 15.4912C9.93456 15.8191 8.98853 16 8 16V10C8.24714 10 8.48266 9.95208 8.70117 9.87012L10.8086 15.4912ZM6.12891 7.29785C6.04681 7.51652 6 7.75266 6 8C6 8.24702 6.04702 8.48275 6.12891 8.70117L0.507812 10.8086C0.180047 9.93465 0 8.98841 0 8C0 7.01127 0.179843 6.06461 0.507812 5.19043L6.12891 7.29785ZM15.4912 5.19043C15.8193 6.0647 16 7.01115 16 8C16 8.98853 15.8191 9.93456 15.4912 10.8086L9.87012 8.70117C9.95208 8.48266 10 8.24714 10 8C10 7.75253 9.95229 7.51661 9.87012 7.29785L15.4912 5.19043ZM8 0C8.98841 0 9.93465 0.180047 10.8086 0.507812L8.70117 6.12891C8.48275 6.04702 8.24702 6 8 6C7.75266 6 7.51652 6.04681 7.29785 6.12891L5.19043 0.507812C6.06461 0.179843 7.01127 0 8 0Z" fill="currentColor"/></g><defs><clipPath id="clip0_9803_4530706"><rect width="16" height="16" fill="white"/></clipPath></defs>
    </symbol>
  </defs>
</svg>