
<svg width="16" height="16" viewBox="0 0 16 16" fill="none" xmlns="http://www.w3.org/2000/svg">
  <defs>
    <symbol id='toggle-on-alt-unread' viewBox="0 0 16 16">
      <circle cx="13.5" cy="2.5" r="2.5" fill="var(--ds-blue-900)"/><path fill-rule="evenodd" clip-rule="evenodd" d="M6 2H9.53095C9.51052 2.1638 9.5 2.33067 9.5 2.5C9.5 2.8453 9.54375 3.18038 9.62602 3.5H6C3.51472 3.5 1.5 5.51472 1.5 8C1.5 10.4853 3.51472 12.5 6 12.5H10C12.4853 12.5 14.5 10.4853 14.5 8C14.5 7.44978 14.4012 6.92262 14.2205 6.43528C14.7264 6.34325 15.1992 6.15605 15.6196 5.89289C15.8655 6.54847 16 7.25853 16 8C16 11.3137 13.3137 14 10 14H6C2.68629 14 0 11.3137 0 8C0 4.68629 2.68629 2 6 2ZM10 11C11.6569 11 13 9.65685 13 8C13 6.34315 11.6569 5 10 5C8.34315 5 7 6.34315 7 8C7 9.65685 8.34315 11 10 11Z" fill="currentColor"/>
    </symbol>
  </defs>
</svg>