
<svg width="16" height="16" viewBox="0 0 16 16" fill="none" xmlns="http://www.w3.org/2000/svg">
  <defs>
    <symbol id='toggle-off-alt-unread' viewBox="0 0 16 16">
      <path fill-rule="evenodd" clip-rule="evenodd" d="M15.6196 5.89289C15.8655 6.54847 16 7.25853 16 8C16 11.3137 13.3137 14 10 14H6C2.68629 14 0 11.3137 0 8C0 4.68629 2.68629 2 6 2H9.53095C9.51052 2.1638 9.5 2.33067 9.5 2.5C9.5 2.8453 9.54375 3.18038 9.62602 3.5H6C3.51472 3.5 1.5 5.51472 1.5 8C1.5 10.4853 3.51472 12.5 6 12.5H10C12.4853 12.5 14.5 10.4853 14.5 8C14.5 7.44978 14.4012 6.92262 14.2205 6.43528C14.7264 6.34325 15.1992 6.15605 15.6196 5.89289ZM6 9.5C6.82843 9.5 7.5 8.82843 7.5 8C7.5 7.17157 6.82843 6.5 6 6.5C5.17157 6.5 4.5 7.17157 4.5 8C4.5 8.82843 5.17157 9.5 6 9.5ZM6 11C7.65685 11 9 9.65685 9 8C9 6.34315 7.65685 5 6 5C4.34315 5 3 6.34315 3 8C3 9.65685 4.34315 11 6 11Z" fill="currentColor"/><circle cx="13.5" cy="2.5" r="2.5" fill="var(--ds-blue-900)"/>
    </symbol>
  </defs>
</svg>