
<svg width="16" height="16" viewBox="0 0 16 16" fill="none" xmlns="http://www.w3.org/2000/svg">
  <defs>
    <symbol id='undo' viewBox="0 0 16 16">
      <path fill-rule="evenodd" clip-rule="evenodd" d="M4.46967 9.09099L5 9.62132L6.06066 8.56066L5.53033 8.03033L3.56063 6.06063H10.125C11.989 6.06063 13.5 7.57167 13.5 9.43563C13.5 11.2996 11.989 12.8106 10.125 12.8106H4.5H3.75V14.3106H4.5H10.125C12.8174 14.3106 15 12.128 15 9.43563C15 6.74324 12.8174 4.56063 10.125 4.56063H3.56069L5.53033 2.59099L6.06066 2.06066L5 1L4.46967 1.53033L1.21967 4.78033C0.926777 5.07322 0.926777 5.5481 1.21967 5.84099L4.46967 9.09099Z" fill="currentColor"/>
    </symbol>
  </defs>
</svg>