
<svg width="16" height="16" viewBox="0 0 16 16" fill="none" xmlns="http://www.w3.org/2000/svg">
  <defs>
    <symbol id='user-link' viewBox="0 0 16 16">
      <g clip-path="url(#clip0_6123_1811679)"><path fill-rule="evenodd" clip-rule="evenodd" d="M9.71967 7.21973C11.1171 5.82226 13.3829 5.82227 14.7803 7.21973C16.1778 8.61719 16.1778 10.8829 14.7803 12.2804L14.2803 12.7804L13.2197 11.7197L13.7197 11.2197C14.5313 10.4081 14.5313 9.09207 13.7197 8.28039C12.908 7.46871 11.592 7.46871 10.7803 8.28039L10.2803 8.78039L9.21967 7.71973L9.71967 7.21973ZM13.0303 10.0304L10.0303 13.0304L8.96967 11.9697L11.9697 8.96971L13.0303 10.0304ZM7.21973 14.7804C8.61719 16.1779 10.8829 16.1779 12.2804 14.7804L12.7804 14.2804L11.7197 13.2197L11.2197 13.7197C10.4081 14.5314 9.09207 14.5314 8.28039 13.7197C7.46871 12.9081 7.46871 11.5921 8.28039 10.7804L8.78039 10.2804L7.71973 9.21973L7.21973 9.71973C5.82226 11.1172 5.82227 13.3829 7.21973 14.7804Z" fill="currentColor"/><path fill-rule="evenodd" clip-rule="evenodd" d="M2.5 3.25C2.5 1.45507 3.95507 0 5.75 0H6.25C8.04493 0 9.5 1.45507 9.5 3.25V3.75C9.5 5.54493 8.04493 7 6.25 7H5.75C3.95507 7 2.5 5.54493 2.5 3.75V3.25ZM5.75 1.5C4.7835 1.5 4 2.2835 4 3.25V3.75C4 4.7165 4.7835 5.5 5.75 5.5H6.25C7.2165 5.5 8 4.7165 8 3.75V3.25C8 2.2835 7.2165 1.5 6.25 1.5H5.75ZM4.5 9.08152C2.47287 9.42048 0.944113 10.7897 0.0690305 12.6857L0 12.8353V13V15.25V16H0.75H4.5V14.5H1.5V13.1694C2.16375 11.8187 3.19242 10.9132 4.5 10.6111V9.08152Z" fill="currentColor"/></g><defs><clipPath id="clip0_6123_1811679"><rect width="16" height="16" fill="white"/></clipPath></defs>
    </symbol>
  </defs>
</svg>