
<svg width="16" height="16" viewBox="0 0 16 16" fill="none" xmlns="http://www.w3.org/2000/svg">
  <defs>
    <symbol id='v0-credits-0' viewBox="0 0 16 16">
      <g clip-path="url(#clip0_1529_2812822)"><path fill-rule="evenodd" clip-rule="evenodd" d="M14.5 8C14.5 11.5899 11.5899 14.5 8 14.5C4.41015 14.5 1.5 11.5899 1.5 8C1.5 4.41015 4.41015 1.5 8 1.5C11.5899 1.5 14.5 4.41015 14.5 8ZM16 8C16 12.4183 12.4183 16 8 16C3.58172 16 0 12.4183 0 8C0 3.58172 3.58172 0 8 0C12.4183 0 16 3.58172 16 8ZM6 6H8.75C8.80246 6 8.85417 6.00323 8.90493 6.00951L6.00951 8.90493C6.00323 8.85417 6 8.80246 6 8.75V6ZM10 10H11.5V7.25C11.5 5.73122 10.2688 4.5 8.75 4.5H6V6H4.5L4.5 8.75C4.5 10.2688 5.73122 11.5 7.25 11.5H10V10ZM7.05144 9.98432L9.98432 7.05144C9.99464 7.11611 10 7.18243 10 7.25V10H7.25C7.18243 10 7.11611 9.99464 7.05144 9.98432Z" fill="currentColor"/></g><defs><clipPath id="clip0_1529_2812822"><rect width="16" height="16" fill="white"/></clipPath></defs>
    </symbol>
  </defs>
</svg>