
<svg width="16" height="16" viewBox="0 0 16 16" fill="none" xmlns="http://www.w3.org/2000/svg">
  <defs>
    <symbol id='window-advanced' viewBox="0 0 16 16">
      <path fill-rule="evenodd" clip-rule="evenodd" d="M0 1H0.75H15.25H16V1.75V7H14.5V2.5H1.5V11.5C1.5 12.0523 1.94772 12.5 2.5 12.5H6V14H2.5C1.11929 14 0 12.8807 0 11.5V1.75V1ZM4.5 4.75C4.5 5.16421 4.16421 5.5 3.75 5.5C3.33579 5.5 3 5.16421 3 4.75C3 4.33579 3.33579 4 3.75 4C4.16421 4 4.5 4.33579 4.5 4.75ZM6.25 5.5C6.66421 5.5 7 5.16421 7 4.75C7 4.33579 6.66421 4 6.25 4C5.83579 4 5.5 4.33579 5.5 4.75C5.5 5.16421 5.83579 5.5 6.25 5.5ZM9.5 4.75C9.5 5.16421 9.16421 5.5 8.75 5.5C8.33579 5.5 8 5.16421 8 4.75C8 4.33579 8.33579 4 8.75 4C9.16421 4 9.5 4.33579 9.5 4.75ZM12.9999 9.99999L13 7H12L8 13H10.9999L11 16H12L16 9.99999H12.9999Z" fill="currentColor"/>
    </symbol>
  </defs>
</svg>